<svg width="790" height="462" viewBox="0 0 790 462" fill="none" xmlns="http://www.w3.org/2000/svg">
<g style="mix-blend-mode:darken" filter="url(#filter0_bd_22_102)">
<path d="M785 343.441L780.105 346.147L749.495 412.988L783.271 428.893L601.106 423.187L369.523 453L152.965 410.991L34.397 441.951L5 319.048V110.769L11.8593 10.3819L152.965 1L298.404 37.16L469.31 1L665.159 37.16L785 5.69097L783.271 339.232L785 343.441Z" fill="#F4C82D" fill-opacity="0.2" shape-rendering="crispEdges"/>
<path d="M5 110.769L152.965 1M5 110.769V319.048M5 110.769L11.8593 10.3819L152.965 1M5 110.769L60.8543 134.693L116.709 158.617M116.709 158.617V256.189M116.709 158.617L152.965 1M208.819 231.796L116.709 256.189M208.819 231.796L221.558 319.048M208.819 231.796L282.312 224.29M116.709 256.189L5 319.048M152.965 1L298.404 37.16M5 319.048L152.965 410.991M5 319.048L34.397 441.951L152.965 410.991M152.965 410.991L221.558 319.048M152.965 410.991L263.693 390.024M152.965 410.991L378.342 388.474L419.498 410.991M152.965 410.991L369.523 453M282.312 224.29L268.593 388.474M282.312 224.29L369.523 194.268M282.312 224.29L298.404 37.16M268.593 388.474L263.693 390.024M268.593 388.474L414.598 300.284L487.111 308.31M298.404 37.16L369.523 194.268M298.404 37.16L469.31 1M369.523 194.268L469.31 1M369.523 194.268L428.317 260.88L487.111 308.31M221.558 319.048L263.693 390.024M469.31 1L608.618 176.442M469.31 1L665.159 37.16M369.523 453L419.498 410.991M369.523 453L601.106 423.187M419.498 410.991L584.121 319.048M584.121 319.048L487.111 308.31M584.121 319.048L700.729 390.024M584.121 319.048L563.914 368.627L601.106 423.187M487.111 308.31L611.558 180.195M608.618 176.442L744.824 87.3138L743.329 92.0048M608.618 176.442L665.159 37.16M700.729 390.024L785 343.441L783.271 339.232M700.729 390.024L744.824 423.187L783.271 339.232M700.729 390.024L783.271 428.893L601.106 423.187M665.159 37.16L785 5.69097M785 5.69097L743.329 92.0048M785 5.69097L783.271 339.232M743.329 92.0048L716.407 176.442L783.271 339.232" stroke="white" shape-rendering="crispEdges"/>
</g>
<defs>
<filter id="filter0_bd_22_102" x="0.5" y="-3.50967" width="789.132" height="465.016" filterUnits="userSpaceOnUse" color-interpolation-filters="sRGB">
<feFlood flood-opacity="0" result="BackgroundImageFix"/>
<feGaussianBlur in="BackgroundImageFix" stdDeviation="2"/>
<feComposite in2="SourceAlpha" operator="in" result="effect1_backgroundBlur_22_102"/>
<feColorMatrix in="SourceAlpha" type="matrix" values="0 0 0 0 0 0 0 0 0 0 0 0 0 0 0 0 0 0 127 0" result="hardAlpha"/>
<feOffset dy="4"/>
<feGaussianBlur stdDeviation="2"/>
<feComposite in2="hardAlpha" operator="out"/>
<feColorMatrix type="matrix" values="0 0 0 0 0 0 0 0 0 0 0 0 0 0 0 0 0 0 0.25 0"/>
<feBlend mode="normal" in2="effect1_backgroundBlur_22_102" result="effect2_dropShadow_22_102"/>
<feBlend mode="normal" in="SourceGraphic" in2="effect2_dropShadow_22_102" result="shape"/>
</filter>
</defs>
</svg>
