<svg width="312" height="23" viewBox="0 0 312 23" fill="none" xmlns="http://www.w3.org/2000/svg">
<path d="M7.82281 10.68V18H5.01481V10.968L0.406813 2.16H3.47881L6.59881 8.664L9.55081 2.16H12.4308L7.82281 10.68ZM16.5787 5.28C18.3707 5.28 19.6987 5.864 20.5627 7.032C21.4267 8.184 21.8587 9.744 21.8587 11.712C21.8587 13.808 21.4427 15.472 20.6107 16.704C19.7787 17.92 18.4347 18.528 16.5787 18.528C14.7547 18.528 13.4187 17.944 12.5707 16.776C11.7387 15.608 11.3227 14 11.3227 11.952C11.3227 9.968 11.7547 8.36 12.6187 7.128C13.4827 5.896 14.8027 5.28 16.5787 5.28ZM16.5787 17.088C17.5707 17.088 18.2187 16.6 18.5227 15.624C18.8267 14.648 18.9787 13.384 18.9787 11.832C18.9787 10.408 18.8107 9.2 18.4747 8.208C18.1547 7.216 17.5227 6.72 16.5787 6.72C14.9947 6.72 14.2027 8.424 14.2027 11.832C14.2027 13.384 14.3467 14.648 14.6347 15.624C14.9387 16.6 15.5867 17.088 16.5787 17.088ZM33.713 16.032C33.713 16.816 33.961 17.344 34.457 17.616C34.329 17.856 34.137 18.04 33.881 18.168C33.641 18.296 33.361 18.36 33.041 18.36C32.577 18.36 32.193 18.232 31.889 17.976C31.585 17.704 31.401 17.344 31.337 16.896C31.081 17.424 30.665 17.824 30.089 18.096C29.529 18.384 28.921 18.528 28.265 18.528C27.113 18.528 26.233 18.28 25.625 17.784C25.033 17.272 24.641 16.584 24.449 15.72C24.257 14.84 24.161 13.712 24.161 12.336V5.76H26.801V12.216C26.801 13.192 26.833 14 26.897 14.64C26.977 15.264 27.177 15.8 27.497 16.248C27.817 16.696 28.305 16.92 28.961 16.92C29.665 16.92 30.193 16.656 30.545 16.128C30.897 15.584 31.073 14.912 31.073 14.112V5.76H33.713V16.032ZM41.2544 7.128C40.5664 7.128 40.1184 7.592 39.9104 8.52C39.7184 9.432 39.6224 10.528 39.6224 11.808V18H36.9824V5.76L39.1904 5.472L39.3104 7.632C39.5344 6.912 39.9264 6.344 40.4864 5.928C41.0464 5.496 41.6944 5.28 42.4304 5.28C43.2304 5.28 43.8624 5.512 44.3264 5.976C44.8064 6.44 45.0464 7.072 45.0464 7.872C45.0464 9.168 44.4224 9.816 43.1744 9.816C42.7584 9.816 42.4384 9.728 42.2144 9.552C42.3264 9.136 42.3824 8.776 42.3824 8.472C42.3824 7.576 42.0064 7.128 41.2544 7.128ZM57.8465 3.168C57.8465 2.672 57.6625 2.32 57.2945 2.112C56.9425 1.888 56.4945 1.776 55.9505 1.776C55.0865 1.776 54.4625 2 54.0785 2.448C53.6945 2.88 53.5025 3.552 53.5025 4.464V5.76H60.4625V16.032C60.4625 16.816 60.7105 17.344 61.2065 17.616C61.0785 17.856 60.8705 18.04 60.5825 18.168C60.2945 18.296 59.9905 18.36 59.6705 18.36C59.0625 18.36 58.5985 18.184 58.2785 17.832C57.9745 17.48 57.8225 16.984 57.8225 16.344V6.84H53.5265V18L50.8865 18.288V6.84H49.1825V5.76H50.8865L50.9585 4.464C51.0225 3.152 51.5105 2.2 52.4225 1.608C53.3345 1.016 54.5505 0.719999 56.0705 0.719999C57.3025 0.719999 58.3905 0.895999 59.3345 1.248C60.2945 1.584 60.7745 2.184 60.7745 3.048C60.7745 3.512 60.5825 3.88 60.1985 4.152C59.8145 4.424 59.3665 4.56 58.8545 4.56C58.3585 4.56 57.9505 4.448 57.6305 4.224C57.7745 3.84 57.8465 3.488 57.8465 3.168ZM67.9966 7.128C67.3086 7.128 66.8606 7.592 66.6526 8.52C66.4606 9.432 66.3646 10.528 66.3646 11.808V18H63.7246V5.76L65.9326 5.472L66.0526 7.632C66.2766 6.912 66.6686 6.344 67.2286 5.928C67.7886 5.496 68.4366 5.28 69.1726 5.28C69.9726 5.28 70.6046 5.512 71.0686 5.976C71.5486 6.44 71.7886 7.072 71.7886 7.872C71.7886 9.168 71.1646 9.816 69.9166 9.816C69.5006 9.816 69.1806 9.728 68.9566 9.552C69.0686 9.136 69.1246 8.776 69.1246 8.472C69.1246 7.576 68.7486 7.128 67.9966 7.128ZM77.0814 6.552C76.6014 6.552 76.2174 6.68 75.9294 6.936C75.6414 7.176 75.4974 7.528 75.4974 7.992C75.4974 8.616 75.7054 9.128 76.1214 9.528C76.5534 9.912 77.2094 10.344 78.0894 10.824C78.7934 11.208 79.3534 11.552 79.7694 11.856C80.2014 12.16 80.5694 12.552 80.8734 13.032C81.1774 13.496 81.3294 14.064 81.3294 14.736C81.3294 15.952 80.8894 16.888 80.0094 17.544C79.1454 18.2 78.0414 18.528 76.6974 18.528C75.5294 18.528 74.5454 18.328 73.7454 17.928C72.9614 17.528 72.5694 16.864 72.5694 15.936C72.5694 15.392 72.7374 14.976 73.0734 14.688C73.4094 14.4 73.8654 14.256 74.4414 14.256C74.8574 14.256 75.1774 14.344 75.4014 14.52C75.2734 14.904 75.2094 15.264 75.2094 15.6C75.2094 16.112 75.3694 16.52 75.6894 16.824C76.0094 17.112 76.4414 17.256 76.9854 17.256C77.5774 17.256 78.0254 17.104 78.3294 16.8C78.6494 16.48 78.8094 16.016 78.8094 15.408C78.8094 14.784 78.5934 14.28 78.1614 13.896C77.7454 13.496 77.0974 13.056 76.2174 12.576C75.5134 12.176 74.9454 11.824 74.5134 11.52C74.0974 11.216 73.7374 10.832 73.4334 10.368C73.1294 9.888 72.9774 9.312 72.9774 8.64C72.9774 7.568 73.4094 6.744 74.2734 6.168C75.1374 5.576 76.1854 5.28 77.4174 5.28C78.5534 5.28 79.4814 5.488 80.2014 5.904C80.9374 6.304 81.3054 6.968 81.3054 7.896C81.3054 8.44 81.1294 8.856 80.7774 9.144C80.4414 9.432 79.9854 9.576 79.4094 9.576C78.9934 9.576 78.6734 9.488 78.4494 9.312C78.5774 8.928 78.6414 8.568 78.6414 8.232C78.6414 7.704 78.5054 7.296 78.2334 7.008C77.9774 6.704 77.5934 6.552 77.0814 6.552ZM82.3934 6.84L82.3694 6.12C83.0894 5.832 83.7694 5.448 84.4094 4.968C85.0654 4.488 85.6174 3.96 86.0654 3.384H86.8094V5.76H89.0174V6.84H86.7614V15.576C86.7614 16.056 86.8494 16.416 87.0254 16.656C87.2014 16.896 87.4814 17.048 87.8654 17.112C87.7854 17.48 87.5694 17.776 87.2174 18C86.8814 18.24 86.4894 18.36 86.0414 18.36C84.7454 18.36 84.0974 17.624 84.0974 16.152V6.84H82.3934ZM99.1685 1.68C100.545 1.68 101.649 1.944 102.481 2.472C103.329 3 103.753 3.848 103.753 5.016C103.753 5.592 103.585 6.064 103.249 6.432C102.913 6.784 102.457 6.96 101.881 6.96C101.321 6.96 100.905 6.832 100.633 6.576C100.761 6.224 100.825 5.824 100.825 5.376C100.825 3.968 100.201 3.264 98.9525 3.264C98.3445 3.264 97.8645 3.416 97.5125 3.72C97.1765 4.008 97.0085 4.44 97.0085 5.016C97.0085 5.544 97.1445 6.024 97.4165 6.456C97.6885 6.888 98.0245 7.272 98.4245 7.608C98.8405 7.944 99.4005 8.352 100.105 8.832C100.937 9.392 101.601 9.896 102.097 10.344C102.609 10.776 103.041 11.304 103.393 11.928C103.745 12.536 103.921 13.24 103.921 14.04C103.921 15.464 103.433 16.568 102.457 17.352C101.481 18.136 100.217 18.528 98.6645 18.528C97.2565 18.528 96.0885 18.248 95.1605 17.688C94.2485 17.112 93.7925 16.224 93.7925 15.024C93.7925 14.448 93.9605 13.984 94.2965 13.632C94.6325 13.264 95.0805 13.08 95.6405 13.08C96.2005 13.08 96.6165 13.208 96.8885 13.464C96.7765 13.784 96.7205 14.184 96.7205 14.664C96.7205 16.184 97.4405 16.944 98.8805 16.944C99.5845 16.944 100.161 16.752 100.609 16.368C101.057 15.968 101.281 15.432 101.281 14.76C101.281 14.232 101.145 13.752 100.873 13.32C100.601 12.888 100.257 12.504 99.8405 12.168C99.4405 11.832 98.8885 11.424 98.1845 10.944C97.3525 10.384 96.6805 9.888 96.1685 9.456C95.6725 9.008 95.2485 8.48 94.8965 7.872C94.5445 7.248 94.3685 6.536 94.3685 5.736C94.3685 4.456 94.8165 3.464 95.7125 2.76C96.6245 2.04 97.7765 1.68 99.1685 1.68ZM104.753 6.84L104.729 6.12C105.449 5.832 106.129 5.448 106.769 4.968C107.425 4.488 107.977 3.96 108.425 3.384H109.169V5.76H111.377V6.84H109.121V15.576C109.121 16.056 109.209 16.416 109.385 16.656C109.561 16.896 109.841 17.048 110.225 17.112C110.145 17.48 109.929 17.776 109.577 18C109.241 18.24 108.849 18.36 108.401 18.36C107.105 18.36 106.457 17.624 106.457 16.152V6.84H104.753ZM120.789 14.616C121.157 14.792 121.341 15.136 121.341 15.648C121.341 16.224 121.149 16.736 120.765 17.184C120.381 17.616 119.885 17.944 119.277 18.168C118.669 18.408 118.053 18.528 117.429 18.528C115.669 18.528 114.365 17.96 113.517 16.824C112.669 15.672 112.245 14.128 112.245 12.192C112.245 10.128 112.701 8.464 113.613 7.2C114.541 5.92 115.941 5.28 117.813 5.28C118.997 5.28 119.949 5.592 120.669 6.216C121.389 6.824 121.749 7.688 121.749 8.808C121.749 10.2 121.261 11.176 120.285 11.736C119.325 12.296 118.013 12.576 116.349 12.576C115.885 12.576 115.445 12.56 115.029 12.528C115.077 13.792 115.285 14.8 115.653 15.552C116.037 16.304 116.709 16.68 117.669 16.68C118.373 16.68 118.989 16.504 119.517 16.152C120.061 15.784 120.485 15.272 120.789 14.616ZM117.429 6.648C116.565 6.648 115.957 7.104 115.605 8.016C115.253 8.912 115.061 10.016 115.029 11.328C115.509 11.36 115.861 11.376 116.085 11.376C118.101 11.376 119.109 10.568 119.109 8.952C119.109 8.296 118.965 7.752 118.677 7.32C118.405 6.872 117.989 6.648 117.429 6.648ZM130.077 5.28C131.581 5.28 132.653 5.888 133.293 7.104C133.933 8.304 134.253 9.84 134.253 11.712C134.253 13.76 133.813 15.408 132.933 16.656C132.053 17.904 130.701 18.528 128.877 18.528C128.109 18.528 127.413 18.424 126.789 18.216V22.344L124.149 22.632V5.76L126.357 5.472L126.477 7.632C127.149 6.064 128.349 5.28 130.077 5.28ZM129.141 7.128C128.309 7.128 127.709 7.464 127.341 8.136C126.973 8.792 126.789 9.624 126.789 10.632V16.344C127.525 16.84 128.261 17.088 128.997 17.088C129.973 17.088 130.613 16.592 130.917 15.6C131.221 14.608 131.373 13.352 131.373 11.832C131.373 10.408 131.237 9.272 130.965 8.424C130.693 7.56 130.085 7.128 129.141 7.128ZM139.347 6.84L139.323 6.12C140.043 5.832 140.723 5.448 141.363 4.968C142.019 4.488 142.571 3.96 143.019 3.384H143.763V5.76H145.971V6.84H143.715V15.576C143.715 16.056 143.803 16.416 143.979 16.656C144.155 16.896 144.435 17.048 144.819 17.112C144.739 17.48 144.523 17.776 144.171 18C143.835 18.24 143.443 18.36 142.995 18.36C141.699 18.36 141.051 17.624 141.051 16.152V6.84H139.347ZM152.094 5.28C153.886 5.28 155.214 5.864 156.078 7.032C156.942 8.184 157.374 9.744 157.374 11.712C157.374 13.808 156.958 15.472 156.126 16.704C155.294 17.92 153.95 18.528 152.094 18.528C150.27 18.528 148.934 17.944 148.086 16.776C147.254 15.608 146.838 14 146.838 11.952C146.838 9.968 147.27 8.36 148.134 7.128C148.998 5.896 150.318 5.28 152.094 5.28ZM152.094 17.088C153.086 17.088 153.734 16.6 154.038 15.624C154.342 14.648 154.494 13.384 154.494 11.832C154.494 10.408 154.326 9.2 153.99 8.208C153.67 7.216 153.038 6.72 152.094 6.72C150.51 6.72 149.718 8.424 149.718 11.832C149.718 13.384 149.862 14.648 150.15 15.624C150.454 16.6 151.102 17.088 152.094 17.088ZM174.749 5.76L171.437 18H168.173L166.277 9.384L164.453 18H161.189L158.141 5.76H160.877L163.061 16.392L165.245 5.76H167.861L170.045 16.392L172.229 5.76H174.749ZM182.822 16.896C182.518 17.456 182.07 17.864 181.478 18.12C180.902 18.392 180.246 18.528 179.51 18.528C178.406 18.528 177.478 18.192 176.726 17.52C175.99 16.848 175.622 15.976 175.622 14.904C175.622 12.312 177.934 11.016 182.558 11.016V8.928C182.558 8.128 182.438 7.536 182.198 7.152C181.958 6.752 181.502 6.552 180.83 6.552C180.27 6.552 179.806 6.704 179.438 7.008C179.07 7.296 178.886 7.704 178.886 8.232C178.886 8.568 178.95 8.928 179.078 9.312C178.854 9.488 178.534 9.576 178.118 9.576C177.542 9.576 177.086 9.432 176.75 9.144C176.414 8.856 176.246 8.44 176.246 7.896C176.246 7.128 176.678 6.504 177.542 6.024C178.406 5.528 179.558 5.28 180.998 5.28C182.054 5.28 182.886 5.44 183.494 5.76C184.102 6.064 184.534 6.544 184.79 7.2C185.062 7.84 185.198 8.704 185.198 9.792V16.032C185.198 16.816 185.446 17.344 185.942 17.616C185.814 17.856 185.622 18.04 185.366 18.168C185.126 18.296 184.846 18.36 184.526 18.36C184.062 18.36 183.678 18.232 183.374 17.976C183.07 17.704 182.886 17.344 182.822 16.896ZM180.446 16.92C181.15 16.92 181.678 16.656 182.03 16.128C182.382 15.584 182.558 14.912 182.558 14.112V12.216C179.854 12.216 178.502 13.08 178.502 14.808C178.502 15.448 178.67 15.96 179.006 16.344C179.358 16.728 179.838 16.92 180.446 16.92ZM192.59 7.128C191.902 7.128 191.454 7.592 191.246 8.52C191.054 9.432 190.958 10.528 190.958 11.808V18H188.318V5.76L190.526 5.472L190.646 7.632C190.87 6.912 191.262 6.344 191.822 5.928C192.382 5.496 193.03 5.28 193.766 5.28C194.566 5.28 195.198 5.512 195.662 5.976C196.142 6.44 196.382 7.072 196.382 7.872C196.382 9.168 195.758 9.816 194.51 9.816C194.094 9.816 193.774 9.728 193.55 9.552C193.662 9.136 193.718 8.776 193.718 8.472C193.718 7.576 193.342 7.128 192.59 7.128ZM207.075 16.032C207.075 16.816 207.323 17.344 207.819 17.616C207.691 17.856 207.499 18.04 207.243 18.168C207.003 18.296 206.723 18.36 206.403 18.36C205.939 18.36 205.555 18.232 205.251 17.976C204.947 17.704 204.763 17.344 204.699 16.896C204.443 17.424 204.027 17.824 203.451 18.096C202.891 18.384 202.283 18.528 201.627 18.528C199.995 18.528 198.811 17.904 198.075 16.656C197.339 15.408 196.971 13.808 196.971 11.856C196.971 9.84 197.403 8.24 198.267 7.056C199.147 5.872 200.507 5.28 202.347 5.28C203.115 5.28 203.811 5.384 204.435 5.592V1.2L207.075 0.912V16.032ZM204.435 7.464C203.699 6.968 202.963 6.72 202.227 6.72C201.251 6.72 200.611 7.184 200.307 8.112C200.003 9.04 199.851 10.248 199.851 11.736C199.851 13.16 200.027 14.384 200.379 15.408C200.731 16.416 201.379 16.92 202.323 16.92C203.027 16.92 203.555 16.656 203.907 16.128C204.259 15.584 204.435 14.912 204.435 14.112V7.464ZM229.111 2.16V18H226.303V4.776L222.463 18H220.591L216.751 4.728V18H214.495V2.16H218.719L221.911 13.56L225.079 2.16H229.111ZM239.851 14.616C240.219 14.792 240.403 15.136 240.403 15.648C240.403 16.224 240.211 16.736 239.827 17.184C239.443 17.616 238.947 17.944 238.339 18.168C237.731 18.408 237.115 18.528 236.491 18.528C234.731 18.528 233.427 17.96 232.579 16.824C231.731 15.672 231.307 14.128 231.307 12.192C231.307 10.128 231.763 8.464 232.675 7.2C233.603 5.92 235.003 5.28 236.875 5.28C238.059 5.28 239.011 5.592 239.731 6.216C240.451 6.824 240.811 7.688 240.811 8.808C240.811 10.2 240.323 11.176 239.347 11.736C238.387 12.296 237.075 12.576 235.411 12.576C234.947 12.576 234.507 12.56 234.091 12.528C234.139 13.792 234.347 14.8 234.715 15.552C235.099 16.304 235.771 16.68 236.731 16.68C237.435 16.68 238.051 16.504 238.579 16.152C239.123 15.784 239.547 15.272 239.851 14.616ZM236.491 6.648C235.627 6.648 235.019 7.104 234.667 8.016C234.315 8.912 234.123 10.016 234.091 11.328C234.571 11.36 234.923 11.376 235.147 11.376C237.163 11.376 238.171 10.568 238.171 8.952C238.171 8.296 238.027 7.752 237.739 7.32C237.467 6.872 237.051 6.648 236.491 6.648ZM241.651 6.84L241.627 6.12C242.347 5.832 243.027 5.448 243.667 4.968C244.323 4.488 244.875 3.96 245.323 3.384H246.067V5.76H248.275V6.84H246.019V15.576C246.019 16.056 246.107 16.416 246.283 16.656C246.459 16.896 246.739 17.048 247.123 17.112C247.043 17.48 246.827 17.776 246.475 18C246.139 18.24 245.747 18.36 245.299 18.36C244.003 18.36 243.355 17.624 243.355 16.152V6.84H241.651ZM256.463 16.896C256.159 17.456 255.711 17.864 255.119 18.12C254.543 18.392 253.887 18.528 253.151 18.528C252.047 18.528 251.119 18.192 250.367 17.52C249.631 16.848 249.263 15.976 249.263 14.904C249.263 12.312 251.575 11.016 256.199 11.016V8.928C256.199 8.128 256.079 7.536 255.839 7.152C255.599 6.752 255.143 6.552 254.471 6.552C253.911 6.552 253.447 6.704 253.079 7.008C252.711 7.296 252.527 7.704 252.527 8.232C252.527 8.568 252.591 8.928 252.719 9.312C252.495 9.488 252.175 9.576 251.759 9.576C251.183 9.576 250.727 9.432 250.391 9.144C250.055 8.856 249.887 8.44 249.887 7.896C249.887 7.128 250.319 6.504 251.183 6.024C252.047 5.528 253.199 5.28 254.639 5.28C255.695 5.28 256.527 5.44 257.135 5.76C257.743 6.064 258.175 6.544 258.431 7.2C258.703 7.84 258.839 8.704 258.839 9.792V16.032C258.839 16.816 259.087 17.344 259.583 17.616C259.455 17.856 259.263 18.04 259.007 18.168C258.767 18.296 258.487 18.36 258.167 18.36C257.703 18.36 257.319 18.232 257.015 17.976C256.711 17.704 256.527 17.344 256.463 16.896ZM254.087 16.92C254.791 16.92 255.319 16.656 255.671 16.128C256.023 15.584 256.199 14.912 256.199 14.112V12.216C253.495 12.216 252.143 13.08 252.143 14.808C252.143 15.448 252.311 15.96 252.647 16.344C252.999 16.728 253.479 16.92 254.087 16.92ZM270.527 5.76L266.951 18H263.687L260.375 5.76H263.111L265.559 16.392L268.007 5.76H270.527ZM279.812 14.616C280.18 14.792 280.364 15.136 280.364 15.648C280.364 16.224 280.172 16.736 279.788 17.184C279.404 17.616 278.908 17.944 278.3 18.168C277.692 18.408 277.076 18.528 276.452 18.528C274.692 18.528 273.388 17.96 272.54 16.824C271.692 15.672 271.268 14.128 271.268 12.192C271.268 10.128 271.724 8.464 272.636 7.2C273.564 5.92 274.964 5.28 276.836 5.28C278.02 5.28 278.972 5.592 279.692 6.216C280.412 6.824 280.772 7.688 280.772 8.808C280.772 10.2 280.284 11.176 279.308 11.736C278.348 12.296 277.036 12.576 275.372 12.576C274.908 12.576 274.468 12.56 274.052 12.528C274.1 13.792 274.308 14.8 274.676 15.552C275.06 16.304 275.732 16.68 276.692 16.68C277.396 16.68 278.012 16.504 278.54 16.152C279.084 15.784 279.508 15.272 279.812 14.616ZM276.452 6.648C275.588 6.648 274.98 7.104 274.628 8.016C274.276 8.912 274.084 10.016 274.052 11.328C274.532 11.36 274.884 11.376 275.108 11.376C277.124 11.376 278.132 10.568 278.132 8.952C278.132 8.296 277.988 7.752 277.7 7.32C277.428 6.872 277.012 6.648 276.452 6.648ZM287.348 7.128C286.66 7.128 286.212 7.592 286.004 8.52C285.812 9.432 285.716 10.528 285.716 11.808V18H283.076V5.76L285.284 5.472L285.404 7.632C285.628 6.912 286.02 6.344 286.58 5.928C287.14 5.496 287.788 5.28 288.524 5.28C289.324 5.28 289.956 5.512 290.42 5.976C290.9 6.44 291.14 7.072 291.14 7.872C291.14 9.168 290.516 9.816 289.268 9.816C288.852 9.816 288.532 9.728 288.308 9.552C288.42 9.136 288.476 8.776 288.476 8.472C288.476 7.576 288.1 7.128 287.348 7.128ZM296.433 6.552C295.953 6.552 295.569 6.68 295.281 6.936C294.993 7.176 294.849 7.528 294.849 7.992C294.849 8.616 295.057 9.128 295.473 9.528C295.905 9.912 296.561 10.344 297.441 10.824C298.145 11.208 298.705 11.552 299.121 11.856C299.553 12.16 299.921 12.552 300.225 13.032C300.529 13.496 300.681 14.064 300.681 14.736C300.681 15.952 300.241 16.888 299.361 17.544C298.497 18.2 297.393 18.528 296.049 18.528C294.881 18.528 293.897 18.328 293.097 17.928C292.313 17.528 291.921 16.864 291.921 15.936C291.921 15.392 292.089 14.976 292.425 14.688C292.761 14.4 293.217 14.256 293.793 14.256C294.209 14.256 294.529 14.344 294.753 14.52C294.625 14.904 294.561 15.264 294.561 15.6C294.561 16.112 294.721 16.52 295.041 16.824C295.361 17.112 295.793 17.256 296.337 17.256C296.929 17.256 297.377 17.104 297.681 16.8C298.001 16.48 298.161 16.016 298.161 15.408C298.161 14.784 297.945 14.28 297.513 13.896C297.097 13.496 296.449 13.056 295.569 12.576C294.865 12.176 294.297 11.824 293.865 11.52C293.449 11.216 293.089 10.832 292.785 10.368C292.481 9.888 292.329 9.312 292.329 8.64C292.329 7.568 292.761 6.744 293.625 6.168C294.489 5.576 295.537 5.28 296.769 5.28C297.905 5.28 298.833 5.488 299.553 5.904C300.289 6.304 300.657 6.968 300.657 7.896C300.657 8.44 300.481 8.856 300.129 9.144C299.793 9.432 299.337 9.576 298.761 9.576C298.345 9.576 298.025 9.488 297.801 9.312C297.929 8.928 297.993 8.568 297.993 8.232C297.993 7.704 297.857 7.296 297.585 7.008C297.329 6.704 296.945 6.552 296.433 6.552ZM310.937 14.616C311.305 14.792 311.489 15.136 311.489 15.648C311.489 16.224 311.297 16.736 310.913 17.184C310.529 17.616 310.033 17.944 309.425 18.168C308.817 18.408 308.201 18.528 307.577 18.528C305.817 18.528 304.513 17.96 303.665 16.824C302.817 15.672 302.393 14.128 302.393 12.192C302.393 10.128 302.849 8.464 303.761 7.2C304.689 5.92 306.089 5.28 307.961 5.28C309.145 5.28 310.097 5.592 310.817 6.216C311.537 6.824 311.897 7.688 311.897 8.808C311.897 10.2 311.409 11.176 310.433 11.736C309.473 12.296 308.161 12.576 306.497 12.576C306.033 12.576 305.593 12.56 305.177 12.528C305.225 13.792 305.433 14.8 305.801 15.552C306.185 16.304 306.857 16.68 307.817 16.68C308.521 16.68 309.137 16.504 309.665 16.152C310.209 15.784 310.633 15.272 310.937 14.616ZM307.577 6.648C306.713 6.648 306.105 7.104 305.753 8.016C305.401 8.912 305.209 10.016 305.177 11.328C305.657 11.36 306.009 11.376 306.233 11.376C308.249 11.376 309.257 10.568 309.257 8.952C309.257 8.296 309.113 7.752 308.825 7.32C308.553 6.872 308.137 6.648 307.577 6.648Z" fill="#9D317E" fill-opacity="0.8"/>
</svg>
