<svg width="134" height="97" viewBox="0 0 134 97" fill="none" xmlns="http://www.w3.org/2000/svg">
<path d="M8.68047 5.52C8.68047 6.68 8.34047 7.62 7.66047 8.34C6.98047 9.04667 6.06714 9.4 4.92047 9.4C4.4938 9.4 4.12047 9.33333 3.80047 9.2C3.48047 9.05333 3.32047 8.81333 3.32047 8.48C4.3338 8.48 5.08047 8.24667 5.56047 7.78C6.04047 7.31333 6.28047 6.58667 6.28047 5.6C6.28047 4.76 6.0738 4.14 5.66047 3.74C5.26047 3.32667 4.64047 3.12 3.80047 3.12C3.38714 3.12 2.96047 3.15333 2.52047 3.22V15H0.180469V1.88C1.7538 1.77333 3.00714 1.72 3.94047 1.72C5.46047 1.72 6.62714 2.02 7.44047 2.62C8.26714 3.20667 8.68047 4.17333 8.68047 5.52ZM13.7628 5.94C13.1895 5.94 12.8161 6.32667 12.6428 7.1C12.4828 7.86 12.4028 8.77333 12.4028 9.84V15H10.2028V4.8L12.0428 4.56L12.1428 6.36C12.3295 5.76 12.6561 5.28667 13.1228 4.94C13.5895 4.58 14.1295 4.4 14.7428 4.4C15.4095 4.4 15.9361 4.59333 16.3228 4.98C16.7228 5.36667 16.9228 5.89333 16.9228 6.56C16.9228 7.64 16.4028 8.18 15.3628 8.18C15.0161 8.18 14.7495 8.10667 14.5628 7.96C14.6561 7.61333 14.7028 7.31333 14.7028 7.06C14.7028 6.31333 14.3895 5.94 13.7628 5.94ZM21.7934 4.4C23.2868 4.4 24.3934 4.88667 25.1134 5.86C25.8334 6.82 26.1934 8.12 26.1934 9.76C26.1934 11.5067 25.8468 12.8933 25.1534 13.92C24.4601 14.9333 23.3401 15.44 21.7934 15.44C20.2734 15.44 19.1601 14.9533 18.4534 13.98C17.7601 13.0067 17.4134 11.6667 17.4134 9.96C17.4134 8.30667 17.7734 6.96667 18.4934 5.94C19.2134 4.91333 20.3134 4.4 21.7934 4.4ZM21.7934 14.24C22.6201 14.24 23.1601 13.8333 23.4134 13.02C23.6668 12.2067 23.7934 11.1533 23.7934 9.86C23.7934 8.67333 23.6534 7.66667 23.3734 6.84C23.1068 6.01333 22.5801 5.6 21.7934 5.6C20.4734 5.6 19.8134 7.02 19.8134 9.86C19.8134 11.1533 19.9334 12.2067 20.1734 13.02C20.4268 13.8333 20.9668 14.24 21.7934 14.24ZM35.892 13.36C35.892 14.0133 36.0987 14.4533 36.512 14.68C36.4054 14.88 36.2454 15.0333 36.032 15.14C35.832 15.2467 35.5987 15.3 35.332 15.3C34.9454 15.3 34.6254 15.1933 34.372 14.98C34.1187 14.7533 33.9654 14.4533 33.912 14.08C33.6987 14.52 33.352 14.8533 32.872 15.08C32.4054 15.32 31.8987 15.44 31.352 15.44C29.992 15.44 29.0054 14.92 28.392 13.88C27.7787 12.84 27.472 11.5067 27.472 9.88C27.472 8.2 27.832 6.86667 28.552 5.88C29.2854 4.89333 30.4187 4.4 31.952 4.4C32.592 4.4 33.172 4.48667 33.692 4.66V0.999999L35.892 0.76V13.36ZM33.692 6.22C33.0787 5.80667 32.4654 5.6 31.852 5.6C31.0387 5.6 30.5054 5.98667 30.252 6.76C29.9987 7.53333 29.872 8.54 29.872 9.78C29.872 10.9667 30.0187 11.9867 30.312 12.84C30.6054 13.68 31.1454 14.1 31.932 14.1C32.5187 14.1 32.9587 13.88 33.252 13.44C33.5454 12.9867 33.692 12.4267 33.692 11.76V6.22ZM46.6189 13.36C46.6189 14.0133 46.8256 14.4533 47.2389 14.68C47.1322 14.88 46.9722 15.0333 46.7589 15.14C46.5589 15.2467 46.3256 15.3 46.0589 15.3C45.6722 15.3 45.3522 15.1933 45.0989 14.98C44.8456 14.7533 44.6922 14.4533 44.6389 14.08C44.4256 14.52 44.0789 14.8533 43.5989 15.08C43.1322 15.32 42.6256 15.44 42.0789 15.44C41.1189 15.44 40.3856 15.2333 39.8789 14.82C39.3856 14.3933 39.0589 13.82 38.8989 13.1C38.7389 12.3667 38.6589 11.4267 38.6589 10.28V4.8H40.8589V10.18C40.8589 10.9933 40.8856 11.6667 40.9389 12.2C41.0056 12.72 41.1722 13.1667 41.4389 13.54C41.7056 13.9133 42.1122 14.1 42.6589 14.1C43.2456 14.1 43.6856 13.88 43.9789 13.44C44.2722 12.9867 44.4189 12.4267 44.4189 11.76V4.8H46.6189V13.36ZM52.9834 5.58C51.6501 5.58 50.9834 7.03333 50.9834 9.94C50.9834 11.1267 51.1301 12.0867 51.4234 12.82C51.7301 13.54 52.3168 13.9 53.1834 13.9C53.7701 13.9 54.2701 13.7467 54.6834 13.44C55.1101 13.12 55.3968 12.6733 55.5434 12.1C55.7701 12.2067 55.9301 12.3333 56.0234 12.48C56.1301 12.6133 56.1834 12.8 56.1834 13.04C56.1834 13.52 56.0234 13.9467 55.7034 14.32C55.3968 14.68 54.9968 14.9533 54.5034 15.14C54.0101 15.34 53.5034 15.44 52.9834 15.44C51.5168 15.44 50.4301 14.9667 49.7234 14.02C49.0168 13.06 48.6634 11.7733 48.6634 10.16C48.6634 8.44 49.0434 7.05333 49.8034 6C50.5768 4.93333 51.7368 4.4 53.2834 4.4C54.1901 4.4 54.9368 4.58667 55.5234 4.96C56.1101 5.33333 56.4034 5.90667 56.4034 6.68C56.4034 7.13333 56.2634 7.48 55.9834 7.72C55.7034 7.96 55.3234 8.08 54.8434 8.08C54.6968 8.08 54.5434 8.06 54.3834 8.02C54.2368 7.98 54.1168 7.92667 54.0234 7.86C54.1301 7.54 54.1834 7.24 54.1834 6.96C54.1834 6.04 53.7834 5.58 52.9834 5.58ZM57.0492 5.7L57.0292 5.1C57.6292 4.86 58.1959 4.54 58.7292 4.14C59.2759 3.74 59.7359 3.3 60.1092 2.82H60.7292V4.8H62.5692V5.7H60.6892V12.98C60.6892 13.38 60.7626 13.68 60.9092 13.88C61.0559 14.08 61.2892 14.2067 61.6092 14.26C61.5426 14.5667 61.3626 14.8133 61.0692 15C60.7892 15.2 60.4626 15.3 60.0892 15.3C59.0092 15.3 58.4692 14.6867 58.4692 13.46V5.7H57.0492ZM65.0923 0.599999C65.5323 0.599999 65.8857 0.706666 66.1523 0.919999C66.4323 1.13333 66.5723 1.44 66.5723 1.84C66.5723 2.25333 66.4257 2.57333 66.1323 2.8C65.8523 3.01333 65.4857 3.12 65.0323 3.12C64.5923 3.12 64.239 3.01333 63.9723 2.8C63.7057 2.58667 63.5723 2.28 63.5723 1.88C63.5723 1.46667 63.7123 1.15333 63.9923 0.94C64.2857 0.713333 64.6523 0.599999 65.0923 0.599999ZM66.1323 13.36C66.1323 14.0133 66.339 14.4533 66.7523 14.68C66.6457 14.88 66.4723 15.0333 66.2323 15.14C65.9923 15.2467 65.7323 15.3 65.4523 15.3C64.9457 15.3 64.5657 15.1533 64.3123 14.86C64.059 14.5667 63.9323 14.1533 63.9323 13.62V4.8H66.1323V13.36ZM72.5552 4.4C74.0485 4.4 75.1552 4.88667 75.8752 5.86C76.5952 6.82 76.9552 8.12 76.9552 9.76C76.9552 11.5067 76.6085 12.8933 75.9152 13.92C75.2218 14.9333 74.1018 15.44 72.5552 15.44C71.0352 15.44 69.9218 14.9533 69.2152 13.98C68.5218 13.0067 68.1752 11.6667 68.1752 9.96C68.1752 8.30667 68.5352 6.96667 69.2552 5.94C69.9752 4.91333 71.0752 4.4 72.5552 4.4ZM72.5552 14.24C73.3818 14.24 73.9218 13.8333 74.1752 13.02C74.4285 12.2067 74.5552 11.1533 74.5552 9.86C74.5552 8.67333 74.4152 7.66667 74.1352 6.84C73.8685 6.01333 73.3418 5.6 72.5552 5.6C71.2352 5.6 70.5752 7.02 70.5752 9.86C70.5752 11.1533 70.6952 12.2067 70.9352 13.02C71.1885 13.8333 71.7285 14.24 72.5552 14.24ZM78.9137 4.8L80.7538 4.56L80.8538 6.36C81.1071 5.72 81.4938 5.23333 82.0138 4.9C82.5471 4.56667 83.1671 4.4 83.8738 4.4C84.9938 4.4 85.7738 4.71333 86.2138 5.34C86.6538 5.95333 86.8738 6.89333 86.8738 8.16V13.36C86.8738 14.0133 87.0804 14.4533 87.4938 14.68C87.3871 14.88 87.2138 15.0333 86.9738 15.14C86.7338 15.2467 86.4804 15.3 86.2138 15.3C85.6938 15.3 85.3071 15.1533 85.0538 14.86C84.8004 14.5667 84.6738 14.1533 84.6738 13.62V8.44C84.6738 7.6 84.5804 6.97333 84.3938 6.56C84.2071 6.14667 83.7938 5.94 83.1538 5.94C82.3404 5.94 81.7938 6.3 81.5138 7.02C81.2471 7.74 81.1138 8.66667 81.1138 9.8V15H78.9137V4.8ZM100.056 1.8L99.9163 3.28H96.8363V15H94.4963V3.28H91.3562V1.8H100.056ZM106.448 12.18C106.754 12.3267 106.908 12.6133 106.908 13.04C106.908 13.52 106.748 13.9467 106.428 14.32C106.108 14.68 105.694 14.9533 105.188 15.14C104.681 15.34 104.168 15.44 103.648 15.44C102.181 15.44 101.094 14.9667 100.388 14.02C99.6808 13.06 99.3275 11.7733 99.3275 10.16C99.3275 8.44 99.7075 7.05333 100.468 6C101.241 4.93333 102.407 4.4 103.967 4.4C104.954 4.4 105.748 4.66 106.348 5.18C106.948 5.68667 107.248 6.40667 107.248 7.34C107.248 8.5 106.841 9.31333 106.028 9.78C105.228 10.2467 104.134 10.48 102.748 10.48C102.361 10.48 101.994 10.4667 101.648 10.44C101.688 11.4933 101.861 12.3333 102.168 12.96C102.488 13.5867 103.048 13.9 103.848 13.9C104.434 13.9 104.948 13.7533 105.388 13.46C105.841 13.1533 106.194 12.7267 106.448 12.18ZM103.648 5.54C102.928 5.54 102.421 5.92 102.128 6.68C101.834 7.42667 101.674 8.34667 101.648 9.44C102.048 9.46667 102.341 9.48 102.528 9.48C104.208 9.48 105.048 8.80667 105.048 7.46C105.048 6.91333 104.928 6.46 104.688 6.1C104.461 5.72667 104.114 5.54 103.648 5.54ZM114.588 14.08C114.334 14.5467 113.961 14.8867 113.468 15.1C112.988 15.3267 112.441 15.44 111.828 15.44C110.908 15.44 110.134 15.16 109.508 14.6C108.894 14.04 108.588 13.3133 108.588 12.42C108.588 10.26 110.514 9.18 114.368 9.18V7.44C114.368 6.77333 114.268 6.28 114.068 5.96C113.868 5.62667 113.488 5.46 112.928 5.46C112.461 5.46 112.074 5.58667 111.768 5.84C111.461 6.08 111.308 6.42 111.308 6.86C111.308 7.14 111.361 7.44 111.468 7.76C111.281 7.90667 111.014 7.98 110.668 7.98C110.188 7.98 109.808 7.86 109.528 7.62C109.248 7.38 109.108 7.03333 109.108 6.58C109.108 5.94 109.468 5.42 110.188 5.02C110.908 4.60667 111.868 4.4 113.068 4.4C113.948 4.4 114.641 4.53333 115.148 4.8C115.654 5.05333 116.014 5.45333 116.228 6C116.454 6.53333 116.568 7.25333 116.568 8.16V13.36C116.568 14.0133 116.774 14.4533 117.188 14.68C117.081 14.88 116.921 15.0333 116.708 15.14C116.508 15.2467 116.274 15.3 116.008 15.3C115.621 15.3 115.301 15.1933 115.048 14.98C114.794 14.7533 114.641 14.4533 114.588 14.08ZM112.608 14.1C113.194 14.1 113.634 13.88 113.928 13.44C114.221 12.9867 114.368 12.4267 114.368 11.76V10.18C112.114 10.18 110.988 10.9 110.988 12.34C110.988 12.8733 111.128 13.3 111.408 13.62C111.701 13.94 112.101 14.1 112.608 14.1ZM119.168 4.8L121.008 4.56L121.108 6.36C121.361 5.72 121.748 5.23333 122.268 4.9C122.801 4.56667 123.421 4.4 124.128 4.4C124.914 4.4 125.528 4.56 125.968 4.88C126.408 5.18667 126.721 5.64667 126.908 6.26C127.428 5.02 128.374 4.4 129.748 4.4C130.868 4.4 131.648 4.71333 132.088 5.34C132.528 5.95333 132.748 6.89333 132.748 8.16V13.36C132.748 14.0133 132.954 14.4533 133.368 14.68C133.261 14.88 133.088 15.0333 132.848 15.14C132.608 15.2467 132.354 15.3 132.088 15.3C131.568 15.3 131.181 15.1533 130.928 14.86C130.674 14.5667 130.548 14.1533 130.548 13.62V8.44C130.548 7.6 130.454 6.97333 130.268 6.56C130.081 6.14667 129.668 5.94 129.028 5.94C128.268 5.94 127.761 6.3 127.508 7.02C127.254 7.74 127.128 8.66667 127.128 9.8V15H124.928V8.44C124.928 7.6 124.834 6.97333 124.648 6.56C124.461 6.14667 124.048 5.94 123.408 5.94C122.594 5.94 122.048 6.3 121.768 7.02C121.501 7.74 121.368 8.66667 121.368 9.8V15H119.168V4.8Z" fill="#9D317E"/>
<path d="M16.0117 28.44V39H14.1397V28.44H16.0117ZM23.7446 30.84L21.3606 39H19.1846L16.9766 30.84H18.8006L20.4326 37.928L22.0646 30.84H23.7446ZM29.1186 38.264C28.9159 38.6373 28.6172 38.9093 28.2226 39.08C27.8386 39.2613 27.4012 39.352 26.9106 39.352C26.1746 39.352 25.5559 39.128 25.0546 38.68C24.5639 38.232 24.3186 37.6507 24.3186 36.936C24.3186 35.208 25.8599 34.344 28.9426 34.344V32.952C28.9426 32.4187 28.8626 32.024 28.7026 31.768C28.5426 31.5013 28.2386 31.368 27.7906 31.368C27.4172 31.368 27.1079 31.4693 26.8626 31.672C26.6172 31.864 26.4946 32.136 26.4946 32.488C26.4946 32.712 26.5372 32.952 26.6226 33.208C26.4732 33.3253 26.2599 33.384 25.9826 33.384C25.5986 33.384 25.2946 33.288 25.0706 33.096C24.8466 32.904 24.7346 32.6267 24.7346 32.264C24.7346 31.752 25.0226 31.336 25.5986 31.016C26.1746 30.6853 26.9426 30.52 27.9026 30.52C28.6066 30.52 29.1612 30.6267 29.5666 30.84C29.9719 31.0427 30.2599 31.3627 30.4306 31.8C30.6119 32.2267 30.7026 32.8027 30.7026 33.528V37.688C30.7026 38.2107 30.8679 38.5627 31.1986 38.744C31.1132 38.904 30.9852 39.0267 30.8146 39.112C30.6546 39.1973 30.4679 39.24 30.2546 39.24C29.9452 39.24 29.6892 39.1547 29.4866 38.984C29.2839 38.8027 29.1612 38.5627 29.1186 38.264ZM27.5346 38.28C28.0039 38.28 28.3559 38.104 28.5906 37.752C28.8252 37.3893 28.9426 36.9413 28.9426 36.408V35.144C27.1399 35.144 26.2386 35.72 26.2386 36.872C26.2386 37.2987 26.3506 37.64 26.5746 37.896C26.8092 38.152 27.1292 38.28 27.5346 38.28ZM32.7826 30.84L34.2546 30.648L34.3346 32.088C34.5372 31.576 34.8466 31.1867 35.2626 30.92C35.6892 30.6533 36.1852 30.52 36.7506 30.52C37.6466 30.52 38.2706 30.7707 38.6226 31.272C38.9746 31.7627 39.1506 32.5147 39.1506 33.528V37.688C39.1506 38.2107 39.3159 38.5627 39.6466 38.744C39.5612 38.904 39.4226 39.0267 39.2306 39.112C39.0386 39.1973 38.8359 39.24 38.6226 39.24C38.2066 39.24 37.8972 39.1227 37.6946 38.888C37.4919 38.6533 37.3906 38.3227 37.3906 37.896V33.752C37.3906 33.08 37.3159 32.5787 37.1666 32.248C37.0172 31.9173 36.6866 31.752 36.1746 31.752C35.5239 31.752 35.0866 32.04 34.8626 32.616C34.6492 33.192 34.5426 33.9333 34.5426 34.84V39H32.7826V30.84ZM46.8806 28.12C47.7979 28.12 48.5339 28.296 49.0886 28.648C49.6539 29 49.9366 29.5653 49.9366 30.344C49.9366 30.728 49.8246 31.0427 49.6006 31.288C49.3766 31.5227 49.0726 31.64 48.6886 31.64C48.3152 31.64 48.0379 31.5547 47.8566 31.384C47.9419 31.1493 47.9846 30.8827 47.9846 30.584C47.9846 29.6453 47.5686 29.176 46.7366 29.176C46.3312 29.176 46.0112 29.2773 45.7766 29.48C45.5526 29.672 45.4406 29.96 45.4406 30.344C45.4406 30.696 45.5312 31.016 45.7126 31.304C45.8939 31.592 46.1179 31.848 46.3846 32.072C46.6619 32.296 47.0352 32.568 47.5046 32.888C48.0592 33.2613 48.5019 33.5973 48.8326 33.896C49.1739 34.184 49.4619 34.536 49.6966 34.952C49.9312 35.3573 50.0486 35.8267 50.0486 36.36C50.0486 37.3093 49.7232 38.0453 49.0726 38.568C48.4219 39.0907 47.5792 39.352 46.5446 39.352C45.6059 39.352 44.8272 39.1653 44.2086 38.792C43.6006 38.408 43.2966 37.816 43.2966 37.016C43.2966 36.632 43.4086 36.3227 43.6326 36.088C43.8566 35.8427 44.1552 35.72 44.5286 35.72C44.9019 35.72 45.1792 35.8053 45.3606 35.976C45.2859 36.1893 45.2486 36.456 45.2486 36.776C45.2486 37.7893 45.7286 38.296 46.6886 38.296C47.1579 38.296 47.5419 38.168 47.8406 37.912C48.1392 37.6453 48.2886 37.288 48.2886 36.84C48.2886 36.488 48.1979 36.168 48.0166 35.88C47.8352 35.592 47.6059 35.336 47.3286 35.112C47.0619 34.888 46.6939 34.616 46.2246 34.296C45.6699 33.9227 45.2219 33.592 44.8806 33.304C44.5499 33.0053 44.2672 32.6533 44.0326 32.248C43.7979 31.832 43.6806 31.3573 43.6806 30.824C43.6806 29.9707 43.9792 29.3093 44.5766 28.84C45.1846 28.36 45.9526 28.12 46.8806 28.12ZM55.9154 38.264C55.7128 38.6373 55.4141 38.9093 55.0194 39.08C54.6354 39.2613 54.1981 39.352 53.7074 39.352C52.9714 39.352 52.3528 39.128 51.8514 38.68C51.3608 38.232 51.1154 37.6507 51.1154 36.936C51.1154 35.208 52.6568 34.344 55.7394 34.344V32.952C55.7394 32.4187 55.6594 32.024 55.4994 31.768C55.3394 31.5013 55.0354 31.368 54.5874 31.368C54.2141 31.368 53.9048 31.4693 53.6594 31.672C53.4141 31.864 53.2914 32.136 53.2914 32.488C53.2914 32.712 53.3341 32.952 53.4194 33.208C53.2701 33.3253 53.0568 33.384 52.7794 33.384C52.3954 33.384 52.0914 33.288 51.8674 33.096C51.6434 32.904 51.5314 32.6267 51.5314 32.264C51.5314 31.752 51.8194 31.336 52.3954 31.016C52.9714 30.6853 53.7394 30.52 54.6994 30.52C55.4034 30.52 55.9581 30.6267 56.3634 30.84C56.7688 31.0427 57.0568 31.3627 57.2274 31.8C57.4088 32.2267 57.4994 32.8027 57.4994 33.528V37.688C57.4994 38.2107 57.6648 38.5627 57.9954 38.744C57.9101 38.904 57.7821 39.0267 57.6114 39.112C57.4514 39.1973 57.2648 39.24 57.0514 39.24C56.7421 39.24 56.4861 39.1547 56.2834 38.984C56.0808 38.8027 55.9581 38.5627 55.9154 38.264ZM54.3314 38.28C54.8008 38.28 55.1528 38.104 55.3874 37.752C55.6221 37.3893 55.7394 36.9413 55.7394 36.408V35.144C53.9368 35.144 53.0354 35.72 53.0354 36.872C53.0354 37.2987 53.1474 37.64 53.3714 37.896C53.6061 38.152 53.9261 38.28 54.3314 38.28ZM61.3714 27.608V37.688C61.3714 38.2107 61.5368 38.5627 61.8674 38.744C61.7821 38.904 61.6381 39.0267 61.4354 39.112C61.2434 39.1973 61.0408 39.24 60.8274 39.24C60.4221 39.24 60.1181 39.1227 59.9154 38.888C59.7128 38.6533 59.6114 38.3227 59.6114 37.896V27.8L61.3714 27.608ZM69.8027 37.688C69.8027 38.2107 69.968 38.5627 70.2987 38.744C70.2134 38.904 70.0854 39.0267 69.9147 39.112C69.7547 39.1973 69.568 39.24 69.3547 39.24C69.0454 39.24 68.7894 39.1547 68.5867 38.984C68.384 38.8027 68.2614 38.5627 68.2187 38.264C68.048 38.616 67.7707 38.8827 67.3867 39.064C67.0134 39.256 66.608 39.352 66.1707 39.352C65.0827 39.352 64.2934 38.936 63.8027 38.104C63.312 37.272 63.0667 36.2053 63.0667 34.904C63.0667 33.56 63.3547 32.4933 63.9307 31.704C64.5174 30.9147 65.424 30.52 66.6507 30.52C67.1627 30.52 67.6267 30.5893 68.0427 30.728V27.8L69.8027 27.608V37.688ZM68.0427 31.976C67.552 31.6453 67.0614 31.48 66.5707 31.48C65.92 31.48 65.4934 31.7893 65.2907 32.408C65.088 33.0267 64.9867 33.832 64.9867 34.824C64.9867 35.7733 65.104 36.5893 65.3387 37.272C65.5734 37.944 66.0054 38.28 66.6347 38.28C67.104 38.28 67.456 38.104 67.6907 37.752C67.9254 37.3893 68.0427 36.9413 68.0427 36.408V31.976ZM76.3842 38.264C76.1815 38.6373 75.8829 38.9093 75.4882 39.08C75.1042 39.2613 74.6669 39.352 74.1762 39.352C73.4402 39.352 72.8215 39.128 72.3202 38.68C71.8295 38.232 71.5842 37.6507 71.5842 36.936C71.5842 35.208 73.1255 34.344 76.2082 34.344V32.952C76.2082 32.4187 76.1282 32.024 75.9682 31.768C75.8082 31.5013 75.5042 31.368 75.0562 31.368C74.6829 31.368 74.3735 31.4693 74.1282 31.672C73.8829 31.864 73.7602 32.136 73.7602 32.488C73.7602 32.712 73.8029 32.952 73.8882 33.208C73.7389 33.3253 73.5255 33.384 73.2482 33.384C72.8642 33.384 72.5602 33.288 72.3362 33.096C72.1122 32.904 72.0002 32.6267 72.0002 32.264C72.0002 31.752 72.2882 31.336 72.8642 31.016C73.4402 30.6853 74.2082 30.52 75.1682 30.52C75.8722 30.52 76.4269 30.6267 76.8322 30.84C77.2375 31.0427 77.5255 31.3627 77.6962 31.8C77.8775 32.2267 77.9682 32.8027 77.9682 33.528V37.688C77.9682 38.2107 78.1335 38.5627 78.4642 38.744C78.3789 38.904 78.2509 39.0267 78.0802 39.112C77.9202 39.1973 77.7335 39.24 77.5202 39.24C77.2109 39.24 76.9549 39.1547 76.7522 38.984C76.5495 38.8027 76.4269 38.5627 76.3842 38.264ZM74.8002 38.28C75.2695 38.28 75.6215 38.104 75.8562 37.752C76.0909 37.3893 76.2082 36.9413 76.2082 36.408V35.144C74.4055 35.144 73.5042 35.72 73.5042 36.872C73.5042 37.2987 73.6162 37.64 73.8402 37.896C74.0749 38.152 74.3949 38.28 74.8002 38.28ZM82.8962 31.752C82.4375 31.752 82.1389 32.0613 82.0002 32.68C81.8722 33.288 81.8082 34.0187 81.8082 34.872V39H80.0482V30.84L81.5202 30.648L81.6002 32.088C81.7495 31.608 82.0109 31.2293 82.3842 30.952C82.7575 30.664 83.1895 30.52 83.6802 30.52C84.2135 30.52 84.6349 30.6747 84.9442 30.984C85.2642 31.2933 85.4242 31.7147 85.4242 32.248C85.4242 33.112 85.0082 33.544 84.1762 33.544C83.8989 33.544 83.6855 33.4853 83.5362 33.368C83.6109 33.0907 83.6482 32.8507 83.6482 32.648C83.6482 32.0507 83.3975 31.752 82.8962 31.752ZM89.2087 31.752C88.75 31.752 88.4514 32.0613 88.3127 32.68C88.1847 33.288 88.1207 34.0187 88.1207 34.872V39H86.3607V30.84L87.8327 30.648L87.9127 32.088C88.062 31.608 88.3234 31.2293 88.6967 30.952C89.07 30.664 89.502 30.52 89.9927 30.52C90.526 30.52 90.9474 30.6747 91.2567 30.984C91.5767 31.2933 91.7367 31.7147 91.7367 32.248C91.7367 33.112 91.3207 33.544 90.4887 33.544C90.2114 33.544 89.998 33.4853 89.8487 33.368C89.9234 33.0907 89.9607 32.8507 89.9607 32.648C89.9607 32.0507 89.71 31.752 89.2087 31.752ZM93.5692 27.48C93.9212 27.48 94.2039 27.5653 94.4172 27.736C94.6412 27.9067 94.7532 28.152 94.7532 28.472C94.7532 28.8027 94.6359 29.0587 94.4012 29.24C94.1772 29.4107 93.8839 29.496 93.5212 29.496C93.1692 29.496 92.8865 29.4107 92.6732 29.24C92.4599 29.0693 92.3532 28.824 92.3532 28.504C92.3532 28.1733 92.4652 27.9227 92.6892 27.752C92.9239 27.5707 93.2172 27.48 93.5692 27.48ZM94.4012 37.688C94.4012 38.2107 94.5665 38.5627 94.8972 38.744C94.8119 38.904 94.6732 39.0267 94.4812 39.112C94.2892 39.1973 94.0812 39.24 93.8572 39.24C93.4519 39.24 93.1479 39.1227 92.9452 38.888C92.7425 38.6533 92.6412 38.3227 92.6412 37.896V30.84H94.4012V37.688ZM100.915 38.264C100.713 38.6373 100.414 38.9093 100.019 39.08C99.6354 39.2613 99.1981 39.352 98.7074 39.352C97.9714 39.352 97.3528 39.128 96.8514 38.68C96.3608 38.232 96.1154 37.6507 96.1154 36.936C96.1154 35.208 97.6568 34.344 100.739 34.344V32.952C100.739 32.4187 100.659 32.024 100.499 31.768C100.339 31.5013 100.035 31.368 99.5874 31.368C99.2141 31.368 98.9048 31.4693 98.6594 31.672C98.4141 31.864 98.2914 32.136 98.2914 32.488C98.2914 32.712 98.3341 32.952 98.4194 33.208C98.2701 33.3253 98.0568 33.384 97.7794 33.384C97.3954 33.384 97.0914 33.288 96.8674 33.096C96.6434 32.904 96.5314 32.6267 96.5314 32.264C96.5314 31.752 96.8194 31.336 97.3954 31.016C97.9714 30.6853 98.7394 30.52 99.6994 30.52C100.403 30.52 100.958 30.6267 101.363 30.84C101.769 31.0427 102.057 31.3627 102.227 31.8C102.409 32.2267 102.499 32.8027 102.499 33.528V37.688C102.499 38.2107 102.665 38.5627 102.995 38.744C102.91 38.904 102.782 39.0267 102.611 39.112C102.451 39.1973 102.265 39.24 102.051 39.24C101.742 39.24 101.486 39.1547 101.283 38.984C101.081 38.8027 100.958 38.5627 100.915 38.264ZM99.3314 38.28C99.8008 38.28 100.153 38.104 100.387 37.752C100.622 37.3893 100.739 36.9413 100.739 36.408V35.144C98.9368 35.144 98.0354 35.72 98.0354 36.872C98.0354 37.2987 98.1474 37.64 98.3714 37.896C98.6061 38.152 98.9261 38.28 99.3314 38.28ZM107.475 41.256C107.966 41.256 108.329 41.0853 108.563 40.744C108.798 40.4133 108.942 40.0133 108.995 39.544C109.049 39.0747 109.075 38.4827 109.075 37.768V37.336C108.873 37.6347 108.595 37.8587 108.243 38.008C107.891 38.1573 107.518 38.232 107.123 38.232C106.078 38.232 105.31 37.88 104.819 37.176C104.339 36.472 104.099 35.528 104.099 34.344C104.099 33.1387 104.393 32.2 104.979 31.528C105.566 30.856 106.435 30.52 107.587 30.52C108.121 30.52 108.659 30.6213 109.203 30.824L110.771 30.648V37.384C110.771 38.4187 110.675 39.2827 110.483 39.976C110.302 40.6693 109.955 41.2133 109.443 41.608C108.942 42.0027 108.238 42.2 107.331 42.2C106.574 42.2 105.923 42.0507 105.379 41.752C104.846 41.4533 104.579 40.9947 104.579 40.376C104.579 40.0133 104.691 39.736 104.915 39.544C105.139 39.352 105.443 39.256 105.827 39.256C106.105 39.256 106.318 39.3147 106.467 39.432C106.393 39.656 106.355 39.896 106.355 40.152C106.355 40.888 106.729 41.256 107.475 41.256ZM109.011 31.992C108.51 31.6507 108.014 31.48 107.523 31.48C106.937 31.48 106.531 31.7413 106.307 32.264C106.094 32.7867 105.987 33.4533 105.987 34.264C105.987 35.128 106.094 35.8267 106.307 36.36C106.531 36.8933 106.958 37.16 107.587 37.16C108.067 37.16 108.425 36.984 108.659 36.632C108.894 36.28 109.011 35.832 109.011 35.288V31.992ZM117.212 38.264C117.01 38.6373 116.711 38.9093 116.316 39.08C115.932 39.2613 115.495 39.352 115.004 39.352C114.268 39.352 113.65 39.128 113.148 38.68C112.658 38.232 112.412 37.6507 112.412 36.936C112.412 35.208 113.954 34.344 117.036 34.344V32.952C117.036 32.4187 116.956 32.024 116.796 31.768C116.636 31.5013 116.332 31.368 115.884 31.368C115.511 31.368 115.202 31.4693 114.956 31.672C114.711 31.864 114.588 32.136 114.588 32.488C114.588 32.712 114.631 32.952 114.716 33.208C114.567 33.3253 114.354 33.384 114.076 33.384C113.692 33.384 113.388 33.288 113.164 33.096C112.94 32.904 112.828 32.6267 112.828 32.264C112.828 31.752 113.116 31.336 113.692 31.016C114.268 30.6853 115.036 30.52 115.996 30.52C116.7 30.52 117.255 30.6267 117.66 30.84C118.066 31.0427 118.354 31.3627 118.524 31.8C118.706 32.2267 118.796 32.8027 118.796 33.528V37.688C118.796 38.2107 118.962 38.5627 119.292 38.744C119.207 38.904 119.079 39.0267 118.908 39.112C118.748 39.1973 118.562 39.24 118.348 39.24C118.039 39.24 117.783 39.1547 117.58 38.984C117.378 38.8027 117.255 38.5627 117.212 38.264ZM115.628 38.28C116.098 38.28 116.45 38.104 116.684 37.752C116.919 37.3893 117.036 36.9413 117.036 36.408V35.144C115.234 35.144 114.332 35.72 114.332 36.872C114.332 37.2987 114.444 37.64 114.668 37.896C114.903 38.152 115.223 38.28 115.628 38.28ZM29.6672 47.44L27.0752 58H24.6752L23.1232 50.416L21.5712 58H19.1712L16.7872 47.44H18.6752L20.5472 56.8L22.4032 47.44H24.1792L26.0512 56.8L27.9072 47.44H29.6672ZM34.4936 57.264C34.2909 57.6373 33.9922 57.9093 33.5976 58.08C33.2136 58.2613 32.7762 58.352 32.2856 58.352C31.5496 58.352 30.9309 58.128 30.4296 57.68C29.9389 57.232 29.6936 56.6507 29.6936 55.936C29.6936 54.208 31.2349 53.344 34.3176 53.344V51.952C34.3176 51.4187 34.2376 51.024 34.0776 50.768C33.9176 50.5013 33.6136 50.368 33.1656 50.368C32.7922 50.368 32.4829 50.4693 32.2376 50.672C31.9922 50.864 31.8696 51.136 31.8696 51.488C31.8696 51.712 31.9122 51.952 31.9976 52.208C31.8482 52.3253 31.6349 52.384 31.3576 52.384C30.9736 52.384 30.6696 52.288 30.4456 52.096C30.2216 51.904 30.1096 51.6267 30.1096 51.264C30.1096 50.752 30.3976 50.336 30.9736 50.016C31.5496 49.6853 32.3176 49.52 33.2776 49.52C33.9816 49.52 34.5362 49.6267 34.9416 49.84C35.3469 50.0427 35.6349 50.3627 35.8056 50.8C35.9869 51.2267 36.0776 51.8027 36.0776 52.528V56.688C36.0776 57.2107 36.2429 57.5627 36.5736 57.744C36.4882 57.904 36.3602 58.0267 36.1896 58.112C36.0296 58.1973 35.8429 58.24 35.6296 58.24C35.3202 58.24 35.0642 58.1547 34.8616 57.984C34.6589 57.8027 34.5362 57.5627 34.4936 57.264ZM32.9096 57.28C33.3789 57.28 33.7309 57.104 33.9656 56.752C34.2002 56.3893 34.3176 55.9413 34.3176 55.408V54.144C32.5149 54.144 31.6136 54.72 31.6136 55.872C31.6136 56.2987 31.7256 56.64 31.9496 56.896C32.1842 57.152 32.5042 57.28 32.9096 57.28ZM43.8696 49.84L41.4856 58H39.3096L37.1016 49.84H38.9256L40.5576 56.928L42.1896 49.84H43.8696ZM45.8036 46.48C46.1556 46.48 46.4382 46.5653 46.6516 46.736C46.8756 46.9067 46.9876 47.152 46.9876 47.472C46.9876 47.8027 46.8702 48.0587 46.6356 48.24C46.4116 48.4107 46.1182 48.496 45.7556 48.496C45.4036 48.496 45.1209 48.4107 44.9076 48.24C44.6942 48.0693 44.5876 47.824 44.5876 47.504C44.5876 47.1733 44.6996 46.9227 44.9236 46.752C45.1582 46.5707 45.4516 46.48 45.8036 46.48ZM46.6356 56.688C46.6356 57.2107 46.8009 57.5627 47.1316 57.744C47.0462 57.904 46.9076 58.0267 46.7156 58.112C46.5236 58.1973 46.3156 58.24 46.0916 58.24C45.6862 58.24 45.3822 58.1227 45.1796 57.888C44.9769 57.6533 44.8756 57.3227 44.8756 56.896V49.84H46.6356V56.688ZM55.0058 56.688C55.0058 57.2107 55.1711 57.5627 55.5018 57.744C55.4165 57.904 55.2885 58.0267 55.1178 58.112C54.9578 58.1973 54.7711 58.24 54.5578 58.24C54.2485 58.24 53.9925 58.1547 53.7898 57.984C53.5871 57.8027 53.4645 57.5627 53.4218 57.264C53.2511 57.616 52.9738 57.8827 52.5898 58.064C52.2165 58.256 51.8111 58.352 51.3738 58.352C50.2858 58.352 49.4965 57.936 49.0058 57.104C48.5151 56.272 48.2698 55.2053 48.2698 53.904C48.2698 52.56 48.5578 51.4933 49.1338 50.704C49.7205 49.9147 50.6271 49.52 51.8538 49.52C52.3658 49.52 52.8298 49.5893 53.2458 49.728V46.8L55.0058 46.608V56.688ZM53.2458 50.976C52.7551 50.6453 52.2645 50.48 51.7738 50.48C51.1231 50.48 50.6965 50.7893 50.4938 51.408C50.2911 52.0267 50.1898 52.832 50.1898 53.824C50.1898 54.7733 50.3071 55.5893 50.5418 56.272C50.7765 56.944 51.2085 57.28 51.8378 57.28C52.3071 57.28 52.6591 57.104 52.8938 56.752C53.1285 56.3893 53.2458 55.9413 53.2458 55.408V50.976ZM66.4322 49.872C66.4322 50.32 66.2989 50.7467 66.0322 51.152C65.7655 51.5467 65.4242 51.8613 65.0082 52.096C65.7122 52.2347 66.2509 52.5547 66.6242 53.056C67.0082 53.5573 67.2002 54.176 67.2002 54.912C67.2002 55.6267 67.0029 56.2293 66.6082 56.72C66.2135 57.2 65.6855 57.5627 65.0242 57.808C64.3735 58.0427 63.6642 58.16 62.8962 58.16C62.0002 58.16 61.0189 58.08 59.9522 57.92V47.504C61.2109 47.4187 62.2135 47.376 62.9602 47.376C64.0482 47.376 64.8962 47.5627 65.5042 47.936C66.1229 48.3093 66.4322 48.9547 66.4322 49.872ZM61.8242 51.776C62.0695 51.808 62.3415 51.824 62.6402 51.824C63.2695 51.824 63.7389 51.68 64.0482 51.392C64.3575 51.104 64.5122 50.6507 64.5122 50.032C64.5122 49.008 63.9575 48.496 62.8482 48.496C62.5175 48.496 62.1762 48.5227 61.8242 48.576V51.776ZM61.8242 56.944C62.2082 57.008 62.5655 57.04 62.8962 57.04C63.6429 57.04 64.2135 56.8693 64.6082 56.528C65.0135 56.1867 65.2162 55.664 65.2162 54.96C65.2162 54.16 64.9975 53.6213 64.5602 53.344C64.1335 53.056 63.4615 52.912 62.5442 52.912C62.2562 52.912 62.0162 52.928 61.8242 52.96V56.944ZM71.6488 49.52C72.8435 49.52 73.7288 49.9093 74.3048 50.688C74.8808 51.456 75.1688 52.496 75.1688 53.808C75.1688 55.2053 74.8915 56.3147 74.3368 57.136C73.7821 57.9467 72.8861 58.352 71.6488 58.352C70.4328 58.352 69.5421 57.9627 68.9768 57.184C68.4221 56.4053 68.1448 55.3333 68.1448 53.968C68.1448 52.6453 68.4328 51.5733 69.0088 50.752C69.5848 49.9307 70.4648 49.52 71.6488 49.52ZM71.6488 57.392C72.3101 57.392 72.7421 57.0667 72.9448 56.416C73.1475 55.7653 73.2488 54.9227 73.2488 53.888C73.2488 52.9387 73.1368 52.1333 72.9128 51.472C72.6995 50.8107 72.2781 50.48 71.6488 50.48C70.5928 50.48 70.0648 51.616 70.0648 53.888C70.0648 54.9227 70.1608 55.7653 70.3528 56.416C70.5555 57.0667 70.9875 57.392 71.6488 57.392ZM86.7517 49.84L84.5437 58H82.3677L81.1037 52.256L79.8877 58H77.7117L75.6797 49.84H77.5037L78.9597 56.928L80.4157 49.84H82.1597L83.6157 56.928L85.0717 49.84H86.7517ZM87.7982 49.84L89.2702 49.648L89.3502 51.088C89.5529 50.576 89.8622 50.1867 90.2782 49.92C90.7049 49.6533 91.2009 49.52 91.7662 49.52C92.3955 49.52 92.8862 49.648 93.2382 49.904C93.5902 50.1493 93.8409 50.5173 93.9902 51.008C94.4062 50.016 95.1635 49.52 96.2622 49.52C97.1582 49.52 97.7822 49.7707 98.1342 50.272C98.4862 50.7627 98.6622 51.5147 98.6622 52.528V56.688C98.6622 57.2107 98.8275 57.5627 99.1582 57.744C99.0729 57.904 98.9342 58.0267 98.7422 58.112C98.5502 58.1973 98.3475 58.24 98.1342 58.24C97.7182 58.24 97.4089 58.1227 97.2062 57.888C97.0035 57.6533 96.9022 57.3227 96.9022 56.896V52.752C96.9022 52.08 96.8275 51.5787 96.6782 51.248C96.5289 50.9173 96.1982 50.752 95.6862 50.752C95.0782 50.752 94.6729 51.04 94.4702 51.616C94.2675 52.192 94.1662 52.9333 94.1662 53.84V58H92.4062V52.752C92.4062 52.08 92.3315 51.5787 92.1822 51.248C92.0329 50.9173 91.7022 50.752 91.1902 50.752C90.5395 50.752 90.1022 51.04 89.8782 51.616C89.6649 52.192 89.5582 52.9333 89.5582 53.84V58H87.7982V49.84ZM105.072 57.264C104.869 57.6373 104.57 57.9093 104.176 58.08C103.792 58.2613 103.354 58.352 102.864 58.352C102.128 58.352 101.509 58.128 101.008 57.68C100.517 57.232 100.272 56.6507 100.272 55.936C100.272 54.208 101.813 53.344 104.896 53.344V51.952C104.896 51.4187 104.816 51.024 104.656 50.768C104.496 50.5013 104.192 50.368 103.744 50.368C103.37 50.368 103.061 50.4693 102.816 50.672C102.57 50.864 102.448 51.136 102.448 51.488C102.448 51.712 102.49 51.952 102.576 52.208C102.426 52.3253 102.213 52.384 101.936 52.384C101.552 52.384 101.248 52.288 101.024 52.096C100.8 51.904 100.688 51.6267 100.688 51.264C100.688 50.752 100.976 50.336 101.552 50.016C102.128 49.6853 102.896 49.52 103.856 49.52C104.56 49.52 105.114 49.6267 105.52 49.84C105.925 50.0427 106.213 50.3627 106.384 50.8C106.565 51.2267 106.656 51.8027 106.656 52.528V56.688C106.656 57.2107 106.821 57.5627 107.152 57.744C107.066 57.904 106.938 58.0267 106.768 58.112C106.608 58.1973 106.421 58.24 106.208 58.24C105.898 58.24 105.642 58.1547 105.44 57.984C105.237 57.8027 105.114 57.5627 105.072 57.264ZM103.488 57.28C103.957 57.28 104.309 57.104 104.544 56.752C104.778 56.3893 104.896 55.9413 104.896 55.408V54.144C103.093 54.144 102.192 54.72 102.192 55.872C102.192 56.2987 102.304 56.64 102.528 56.896C102.762 57.152 103.082 57.28 103.488 57.28ZM108.736 49.84L110.208 49.648L110.288 51.088C110.49 50.576 110.8 50.1867 111.216 49.92C111.642 49.6533 112.138 49.52 112.704 49.52C113.6 49.52 114.224 49.7707 114.576 50.272C114.928 50.7627 115.104 51.5147 115.104 52.528V56.688C115.104 57.2107 115.269 57.5627 115.6 57.744C115.514 57.904 115.376 58.0267 115.184 58.112C114.992 58.1973 114.789 58.24 114.576 58.24C114.16 58.24 113.85 58.1227 113.648 57.888C113.445 57.6533 113.344 57.3227 113.344 56.896V52.752C113.344 52.08 113.269 51.5787 113.12 51.248C112.97 50.9173 112.64 50.752 112.128 50.752C111.477 50.752 111.04 51.04 110.816 51.616C110.602 52.192 110.496 52.9333 110.496 53.84V58H108.736V49.84ZM37.8684 66.44L37.7564 67.624H35.2924V77H33.4204V67.624H30.9084V66.44H37.8684ZM42.0092 76.264C41.8065 76.6373 41.5079 76.9093 41.1132 77.08C40.7292 77.2613 40.2919 77.352 39.8012 77.352C39.0652 77.352 38.4465 77.128 37.9452 76.68C37.4545 76.232 37.2092 75.6507 37.2092 74.936C37.2092 73.208 38.7505 72.344 41.8332 72.344V70.952C41.8332 70.4187 41.7532 70.024 41.5932 69.768C41.4332 69.5013 41.1292 69.368 40.6812 69.368C40.3079 69.368 39.9985 69.4693 39.7532 69.672C39.5079 69.864 39.3852 70.136 39.3852 70.488C39.3852 70.712 39.4279 70.952 39.5132 71.208C39.3639 71.3253 39.1505 71.384 38.8732 71.384C38.4892 71.384 38.1852 71.288 37.9612 71.096C37.7372 70.904 37.6252 70.6267 37.6252 70.264C37.6252 69.752 37.9132 69.336 38.4892 69.016C39.0652 68.6853 39.8332 68.52 40.7932 68.52C41.4972 68.52 42.0519 68.6267 42.4572 68.84C42.8625 69.0427 43.1505 69.3627 43.3212 69.8C43.5025 70.2267 43.5932 70.8027 43.5932 71.528V75.688C43.5932 76.2107 43.7585 76.5627 44.0892 76.744C44.0039 76.904 43.8759 77.0267 43.7052 77.112C43.5452 77.1973 43.3585 77.24 43.1452 77.24C42.8359 77.24 42.5799 77.1547 42.3772 76.984C42.1745 76.8027 42.0519 76.5627 42.0092 76.264ZM40.4252 76.28C40.8945 76.28 41.2465 76.104 41.4812 75.752C41.7159 75.3893 41.8332 74.9413 41.8332 74.408V73.144C40.0305 73.144 39.1292 73.72 39.1292 74.872C39.1292 75.2987 39.2412 75.64 39.4652 75.896C39.6999 76.152 40.0199 76.28 40.4252 76.28ZM45.6732 68.84L47.1452 68.648L47.2252 70.088C47.4279 69.576 47.7372 69.1867 48.1532 68.92C48.5799 68.6533 49.0759 68.52 49.6412 68.52C50.2705 68.52 50.7612 68.648 51.1132 68.904C51.4652 69.1493 51.7159 69.5173 51.8652 70.008C52.2812 69.016 53.0385 68.52 54.1372 68.52C55.0332 68.52 55.6572 68.7707 56.0092 69.272C56.3612 69.7627 56.5372 70.5147 56.5372 71.528V75.688C56.5372 76.2107 56.7025 76.5627 57.0332 76.744C56.9479 76.904 56.8092 77.0267 56.6172 77.112C56.4252 77.1973 56.2225 77.24 56.0092 77.24C55.5932 77.24 55.2839 77.1227 55.0812 76.888C54.8785 76.6533 54.7772 76.3227 54.7772 75.896V71.752C54.7772 71.08 54.7025 70.5787 54.5532 70.248C54.4039 69.9173 54.0732 69.752 53.5612 69.752C52.9532 69.752 52.5479 70.04 52.3452 70.616C52.1425 71.192 52.0412 71.9333 52.0412 72.84V77H50.2812V71.752C50.2812 71.08 50.2065 70.5787 50.0572 70.248C49.9079 69.9173 49.5772 69.752 49.0652 69.752C48.4145 69.752 47.9772 70.04 47.7532 70.616C47.5399 71.192 47.4332 71.9333 47.4332 72.84V77H45.6732V68.84ZM68.6396 66.44V77H66.7676V72.248H63.1836V77H61.3116V66.44H63.1836V71.064H66.7676V66.44H68.6396ZM76.9936 75.688C76.9936 76.2107 77.1589 76.5627 77.4896 76.744C77.4042 76.904 77.2762 77.0267 77.1056 77.112C76.9456 77.1973 76.7589 77.24 76.5456 77.24C76.2362 77.24 75.9802 77.1547 75.7776 76.984C75.5749 76.8027 75.4522 76.5627 75.4096 76.264C75.2389 76.616 74.9616 76.8827 74.5776 77.064C74.2042 77.256 73.7989 77.352 73.3616 77.352C72.5936 77.352 72.0069 77.1867 71.6016 76.856C71.2069 76.5147 70.9456 76.056 70.8176 75.48C70.6896 74.8933 70.6256 74.1413 70.6256 73.224V68.84H72.3856V73.144C72.3856 73.7947 72.4069 74.3333 72.4496 74.76C72.5029 75.176 72.6362 75.5333 72.8496 75.832C73.0629 76.1307 73.3882 76.28 73.8256 76.28C74.2949 76.28 74.6469 76.104 74.8816 75.752C75.1162 75.3893 75.2336 74.9413 75.2336 74.408V68.84H76.9936V75.688ZM84.8852 68.84L81.2532 80.088L79.4932 79.88L81.0772 76.232H80.2772L78.2452 68.84H80.0692L81.5892 75.16L83.2212 68.84H84.8852ZM85.9388 68.84L87.4108 68.648L87.4908 70.088C87.6935 69.576 88.0028 69.1867 88.4188 68.92C88.8455 68.6533 89.3415 68.52 89.9068 68.52C90.8028 68.52 91.4268 68.7707 91.7788 69.272C92.1308 69.7627 92.3068 70.5147 92.3068 71.528V75.688C92.3068 76.2107 92.4721 76.5627 92.8028 76.744C92.7175 76.904 92.5788 77.0267 92.3868 77.112C92.1948 77.1973 91.9921 77.24 91.7788 77.24C91.3628 77.24 91.0535 77.1227 90.8508 76.888C90.6481 76.6533 90.5468 76.3227 90.5468 75.896V71.752C90.5468 71.08 90.4721 70.5787 90.3228 70.248C90.1735 69.9173 89.8428 69.752 89.3308 69.752C88.6801 69.752 88.2428 70.04 88.0188 70.616C87.8055 71.192 87.6988 71.9333 87.6988 72.84V77H85.9388V68.84ZM96.2159 67.416C96.2159 68.5787 96.1626 69.432 96.0559 69.976C96.2799 69.496 96.5946 69.1333 96.9999 68.888C97.4053 68.6427 97.8799 68.52 98.4239 68.52C99.3199 68.52 99.9439 68.7707 100.296 69.272C100.648 69.7627 100.824 70.5147 100.824 71.528V75.688C100.824 76.2107 100.989 76.5627 101.32 76.744C101.235 76.904 101.096 77.0267 100.904 77.112C100.712 77.1973 100.509 77.24 100.296 77.24C99.8799 77.24 99.5706 77.1227 99.3679 76.888C99.1653 76.6533 99.0639 76.3227 99.0639 75.896V71.752C99.0639 71.08 98.9893 70.5787 98.8399 70.248C98.6906 69.9173 98.3599 69.752 97.8479 69.752C97.1973 69.752 96.7599 70.04 96.5359 70.616C96.3226 71.192 96.2159 71.9333 96.2159 72.84V77H94.4559V65.8L96.2159 65.608V67.416ZM28.2334 91.12V96H26.3614V91.312L23.2894 85.44H25.3374L27.4174 89.776L29.3854 85.44H31.3054L28.2334 91.12ZM37.7748 94.688C37.7748 95.2107 37.9401 95.5627 38.2708 95.744C38.1855 95.904 38.0575 96.0267 37.8868 96.112C37.7268 96.1973 37.5401 96.24 37.3268 96.24C37.0175 96.24 36.7615 96.1547 36.5588 95.984C36.3561 95.8027 36.2335 95.5627 36.1908 95.264C36.0201 95.616 35.7428 95.8827 35.3588 96.064C34.9855 96.256 34.5801 96.352 34.1428 96.352C33.3748 96.352 32.7881 96.1867 32.3828 95.856C31.9881 95.5147 31.7268 95.056 31.5988 94.48C31.4708 93.8933 31.4068 93.1413 31.4068 92.224V87.84H33.1668V92.144C33.1668 92.7947 33.1881 93.3333 33.2308 93.76C33.2841 94.176 33.4175 94.5333 33.6308 94.832C33.8441 95.1307 34.1695 95.28 34.6068 95.28C35.0761 95.28 35.4281 95.104 35.6628 94.752C35.8975 94.3893 36.0148 93.9413 36.0148 93.408V87.84H37.7748V94.688ZM39.9544 87.84L41.4264 87.648L41.5064 89.088C41.7091 88.576 42.0184 88.1867 42.4344 87.92C42.8611 87.6533 43.3571 87.52 43.9224 87.52C44.8184 87.52 45.4424 87.7707 45.7944 88.272C46.1464 88.7627 46.3224 89.5147 46.3224 90.528V94.688C46.3224 95.2107 46.4878 95.5627 46.8184 95.744C46.7331 95.904 46.5944 96.0267 46.4024 96.112C46.2104 96.1973 46.0078 96.24 45.7944 96.24C45.3784 96.24 45.0691 96.1227 44.8664 95.888C44.6638 95.6533 44.5624 95.3227 44.5624 94.896V90.752C44.5624 90.08 44.4878 89.5787 44.3384 89.248C44.1891 88.9173 43.8584 88.752 43.3464 88.752C42.6958 88.752 42.2584 89.04 42.0344 89.616C41.8211 90.192 41.7144 90.9333 41.7144 91.84V96H39.9544V87.84ZM50.7756 93.136L49.2716 96H47.4316L50.1036 91.952L47.6236 87.84H49.6716L51.1436 90.496L52.4876 87.84H54.3436L51.8316 91.696L54.4236 96H52.3756L50.7756 93.136ZM56.4442 84.48C56.7962 84.48 57.0789 84.5653 57.2922 84.736C57.5162 84.9067 57.6282 85.152 57.6282 85.472C57.6282 85.8027 57.5109 86.0587 57.2762 86.24C57.0522 86.4107 56.7589 86.496 56.3962 86.496C56.0442 86.496 55.7615 86.4107 55.5482 86.24C55.3349 86.0693 55.2282 85.824 55.2282 85.504C55.2282 85.1733 55.3402 84.9227 55.5642 84.752C55.7989 84.5707 56.0922 84.48 56.4442 84.48ZM57.2762 94.688C57.2762 95.2107 57.4415 95.5627 57.7722 95.744C57.6869 95.904 57.5482 96.0267 57.3562 96.112C57.1642 96.1973 56.9562 96.24 56.7322 96.24C56.3269 96.24 56.0229 96.1227 55.8202 95.888C55.6175 95.6533 55.5162 95.3227 55.5162 94.896V87.84H57.2762V94.688ZM63.7904 95.264C63.5878 95.6373 63.2891 95.9093 62.8944 96.08C62.5104 96.2613 62.0731 96.352 61.5824 96.352C60.8464 96.352 60.2278 96.128 59.7264 95.68C59.2358 95.232 58.9904 94.6507 58.9904 93.936C58.9904 92.208 60.5318 91.344 63.6144 91.344V89.952C63.6144 89.4187 63.5344 89.024 63.3744 88.768C63.2144 88.5013 62.9104 88.368 62.4624 88.368C62.0891 88.368 61.7798 88.4693 61.5344 88.672C61.2891 88.864 61.1664 89.136 61.1664 89.488C61.1664 89.712 61.2091 89.952 61.2944 90.208C61.1451 90.3253 60.9318 90.384 60.6544 90.384C60.2704 90.384 59.9664 90.288 59.7424 90.096C59.5184 89.904 59.4064 89.6267 59.4064 89.264C59.4064 88.752 59.6944 88.336 60.2704 88.016C60.8464 87.6853 61.6144 87.52 62.5744 87.52C63.2784 87.52 63.8331 87.6267 64.2384 87.84C64.6438 88.0427 64.9318 88.3627 65.1024 88.8C65.2838 89.2267 65.3744 89.8027 65.3744 90.528V94.688C65.3744 95.2107 65.5398 95.5627 65.8704 95.744C65.7851 95.904 65.6571 96.0267 65.4864 96.112C65.3264 96.1973 65.1398 96.24 64.9264 96.24C64.6171 96.24 64.3611 96.1547 64.1584 95.984C63.9558 95.8027 63.8331 95.5627 63.7904 95.264ZM62.2064 95.28C62.6758 95.28 63.0278 95.104 63.2624 94.752C63.4971 94.3893 63.6144 93.9413 63.6144 93.408V92.144C61.8118 92.144 60.9104 92.72 60.9104 93.872C60.9104 94.2987 61.0224 94.64 61.2464 94.896C61.4811 95.152 61.8011 95.28 62.2064 95.28ZM70.4144 87.52C71.6091 87.52 72.4944 87.9093 73.0704 88.688C73.6464 89.456 73.9344 90.496 73.9344 91.808C73.9344 93.2053 73.6571 94.3147 73.1024 95.136C72.5478 95.9467 71.6518 96.352 70.4144 96.352C69.1984 96.352 68.3078 95.9627 67.7424 95.184C67.1878 94.4053 66.9104 93.3333 66.9104 91.968C66.9104 90.6453 67.1984 89.5733 67.7744 88.752C68.3504 87.9307 69.2304 87.52 70.4144 87.52ZM70.4144 95.392C71.0758 95.392 71.5078 95.0667 71.7104 94.416C71.9131 93.7653 72.0144 92.9227 72.0144 91.888C72.0144 90.9387 71.9024 90.1333 71.6784 89.472C71.4651 88.8107 71.0438 88.48 70.4144 88.48C69.3584 88.48 68.8304 89.616 68.8304 91.888C68.8304 92.9227 68.9264 93.7653 69.1184 94.416C69.3211 95.0667 69.7531 95.392 70.4144 95.392ZM81.8022 86.24C80.9915 86.24 80.4529 86.6667 80.1862 87.52C79.9302 88.3627 79.8022 89.4187 79.8022 90.688C79.8022 91.9573 79.9409 92.976 80.2182 93.744C80.4955 94.5013 81.0769 94.88 81.9622 94.88C82.5169 94.88 82.9915 94.7253 83.3862 94.416C83.7809 94.1067 84.0635 93.68 84.2342 93.136C84.4582 93.2107 84.6182 93.328 84.7142 93.488C84.8102 93.6373 84.8582 93.8347 84.8582 94.08C84.8582 94.56 84.7089 94.9707 84.4102 95.312C84.1222 95.6533 83.7435 95.9093 83.2742 96.08C82.8155 96.2613 82.3249 96.352 81.8022 96.352C80.3515 96.352 79.3169 95.8507 78.6982 94.848C78.0902 93.8453 77.7862 92.4853 77.7862 90.768C77.7862 89.0613 78.1115 87.696 78.7622 86.672C79.4235 85.6373 80.4849 85.12 81.9462 85.12C82.8849 85.12 83.6315 85.3067 84.1862 85.68C84.7515 86.0533 85.0342 86.6453 85.0342 87.456C85.0342 87.84 84.9222 88.1547 84.6982 88.4C84.4742 88.6347 84.1702 88.752 83.7862 88.752C83.4129 88.752 83.1355 88.6667 82.9542 88.496C83.0395 88.2613 83.0822 87.9947 83.0822 87.696C83.0822 86.7253 82.6555 86.24 81.8022 86.24ZM88.3097 86.416C88.3097 87.5787 88.2564 88.432 88.1497 88.976C88.3737 88.496 88.6884 88.1333 89.0937 87.888C89.499 87.6427 89.9737 87.52 90.5177 87.52C91.4137 87.52 92.0377 87.7707 92.3897 88.272C92.7417 88.7627 92.9177 89.5147 92.9177 90.528V94.688C92.9177 95.2107 93.083 95.5627 93.4137 95.744C93.3284 95.904 93.1897 96.0267 92.9977 96.112C92.8057 96.1973 92.603 96.24 92.3897 96.24C91.9737 96.24 91.6644 96.1227 91.4617 95.888C91.259 95.6533 91.1577 95.3227 91.1577 94.896V90.752C91.1577 90.08 91.083 89.5787 90.9337 89.248C90.7844 88.9173 90.4537 88.752 89.9417 88.752C89.291 88.752 88.8537 89.04 88.6297 89.616C88.4164 90.192 88.3097 90.9333 88.3097 91.84V96H86.5497V84.8L88.3097 84.608V86.416ZM100.153 93.744C100.399 93.8613 100.521 94.0907 100.521 94.432C100.521 94.816 100.393 95.1573 100.137 95.456C99.8813 95.744 99.5506 95.9627 99.1453 96.112C98.74 96.272 98.3293 96.352 97.9133 96.352C96.74 96.352 95.8706 95.9733 95.3053 95.216C94.74 94.448 94.4573 93.4187 94.4573 92.128C94.4573 90.752 94.7613 89.6427 95.3693 88.8C95.988 87.9467 96.9213 87.52 98.1693 87.52C98.9586 87.52 99.5933 87.728 100.073 88.144C100.553 88.5493 100.793 89.1253 100.793 89.872C100.793 90.8 100.468 91.4507 99.8173 91.824C99.1773 92.1973 98.3026 92.384 97.1933 92.384C96.884 92.384 96.5906 92.3733 96.3133 92.352C96.3453 93.1947 96.484 93.8667 96.7293 94.368C96.9853 94.8693 97.4333 95.12 98.0733 95.12C98.5426 95.12 98.9533 95.0027 99.3053 94.768C99.668 94.5227 99.9506 94.1813 100.153 93.744ZM97.9133 88.432C97.3373 88.432 96.932 88.736 96.6973 89.344C96.4626 89.9413 96.3346 90.6773 96.3133 91.552C96.6333 91.5733 96.868 91.584 97.0173 91.584C98.3613 91.584 99.0333 91.0453 99.0333 89.968C99.0333 89.5307 98.9373 89.168 98.7453 88.88C98.564 88.5813 98.2866 88.432 97.9133 88.432ZM102.329 87.84L103.801 87.648L103.881 89.088C104.084 88.576 104.393 88.1867 104.809 87.92C105.236 87.6533 105.732 87.52 106.297 87.52C107.193 87.52 107.817 87.7707 108.169 88.272C108.521 88.7627 108.697 89.5147 108.697 90.528V94.688C108.697 95.2107 108.863 95.5627 109.193 95.744C109.108 95.904 108.969 96.0267 108.777 96.112C108.585 96.1973 108.383 96.24 108.169 96.24C107.753 96.24 107.444 96.1227 107.241 95.888C107.039 95.6533 106.937 95.3227 106.937 94.896V90.752C106.937 90.08 106.863 89.5787 106.713 89.248C106.564 88.9173 106.233 88.752 105.721 88.752C105.071 88.752 104.633 89.04 104.409 89.616C104.196 90.192 104.089 90.9333 104.089 91.84V96H102.329V87.84Z" fill="#D8572A"/>
</svg>
