<svg width="571" height="82" viewBox="0 0 571 82" fill="none" xmlns="http://www.w3.org/2000/svg">
<g filter="url(#filter0_dii_20_13)">
<path d="M44.843 5.29999C61.1763 5.29999 69.343 11.0667 69.343 22.6C69.343 28.9333 67.3096 34 63.243 37.8C59.243 41.6 53.743 43.5 46.743 43.5C43.4763 43.5 40.5763 42.5667 38.043 40.7C36.843 39.9 35.843 38.9667 35.043 37.9C39.9096 37.9 43.6096 36.4333 46.143 33.5C48.743 30.5 50.043 26.1 50.043 20.3C50.043 14.5 47.1763 11.6 41.443 11.6H39.043C38.643 11.6 38.2763 11.6333 37.943 11.7L26.443 72H4.74297L17.043 6.5C24.1763 5.83333 29.8096 5.46666 33.943 5.4C38.0763 5.33333 41.7096 5.29999 44.843 5.29999ZM110.305 55.1C111.972 56.2333 112.805 58.0667 112.805 60.6C112.805 63.0667 112.172 65.1 110.905 66.7C109.639 68.3 107.972 69.6333 105.905 70.7C101.639 72.9 97.2055 74 92.6055 74C88.0055 74 84.3388 73.5 81.6055 72.5C78.9388 71.5 76.7055 70.0667 74.9055 68.2C71.3721 64.6667 69.6055 59.6667 69.6055 53.2C69.6055 43.1333 72.3388 35.0333 77.8055 28.9C83.6721 22.3 91.7055 19 101.905 19C108.239 19 112.972 20.3333 116.105 23C118.439 25 119.605 27.6333 119.605 30.9C119.605 42.6333 109.472 48.5 89.2055 48.5C88.9388 50.2333 88.8055 51.8333 88.8055 53.3C88.8055 56.3667 89.4721 58.5 90.8055 59.7C92.2055 60.8333 94.1721 61.4 96.7055 61.4C99.2388 61.4 101.839 60.8333 104.505 59.7C107.239 58.5 109.172 56.9667 110.305 55.1ZM89.9055 44.2C94.6388 44.2 98.3721 42.7333 101.105 39.8C103.839 37 105.205 33.3667 105.205 28.9C105.205 27.3667 104.905 26.2 104.305 25.4C103.772 24.5333 102.939 24.1 101.805 24.1C100.672 24.1 99.6055 24.3333 98.6055 24.8C97.6721 25.2 96.7055 26.1333 95.7055 27.6C93.2388 30.9333 91.3055 36.4667 89.9055 44.2ZM154.328 43.9C156.728 39.6333 157.928 35.3333 157.928 31C157.928 28.1333 156.895 26.7 154.828 26.7C153.228 26.7 151.595 28.0667 149.928 30.8C148.195 33.5333 147.061 36.6667 146.528 40.2L141.328 72L120.628 74L130.828 21L147.328 19L145.528 29.1C148.795 22.3667 154.095 19 161.428 19C165.295 19 168.261 20 170.328 22C172.461 24 173.528 27.0667 173.528 31.2C173.528 35.2667 172.161 38.6 169.428 41.2C166.761 43.8 163.128 45.1 158.528 45.1C156.528 45.1 155.128 44.7 154.328 43.9ZM205.077 36.9C206.01 34.4333 206.477 32.1333 206.477 30C206.477 26.0667 204.877 24.1 201.677 24.1C200.01 24.1 198.477 24.8667 197.077 26.4C195.743 27.8667 195.077 29.5333 195.077 31.4C195.077 32.7333 195.61 33.9333 196.677 35C198.21 36.4667 200.943 38.4 204.877 40.8C208.81 43.2 211.51 45.4 212.977 47.4C214.51 49.3333 215.277 51.6667 215.277 54.4C215.277 57.0667 214.61 59.6333 213.277 62.1C212.01 64.5667 210.21 66.6667 207.877 68.4C202.877 72.1333 196.377 74 188.377 74C184.043 74 180.21 72.8667 176.877 70.6C173.543 68.4 171.877 66 171.877 63.4C171.877 60.8 172.81 58.7333 174.677 57.2C176.61 55.6667 178.977 54.9 181.777 54.9C184.577 54.9 186.843 55.4333 188.577 56.5C187.71 58.7 187.277 60.5333 187.277 62C187.277 66.4 189.143 68.6 192.877 68.6C194.477 68.6 195.81 68.1 196.877 67.1C197.943 66.1 198.477 64.7333 198.477 63C198.477 59.6 195.61 56.1 189.877 52.5C185.21 49.4333 182.343 47.3 181.277 46.1C179.477 43.9667 178.577 41.5667 178.577 38.9C178.577 36.2333 179.21 33.6333 180.477 31.1C181.743 28.5667 183.543 26.4 185.877 24.6C190.743 20.8667 197.41 19 205.877 19C210.21 19 213.643 19.8667 216.177 21.6C218.777 23.3333 220.077 25.6667 220.077 28.6C220.077 31.5333 219.177 33.8333 217.377 35.5C215.643 37.1667 213.177 38 209.977 38C207.777 38 206.143 37.6333 205.077 36.9ZM245.609 74C230.943 74 223.609 67.1 223.609 53.3C223.609 43.5 226.309 35.4333 231.709 29.1C237.443 22.3667 245.276 19 255.209 19C262.409 19 267.843 20.6667 271.509 24C275.176 27.3333 277.009 32.5 277.009 39.5C277.009 50.1667 274.143 58.6 268.409 64.8C262.809 70.9333 255.209 74 245.609 74ZM248.209 30.5C247.409 32.3 246.676 34.5667 246.009 37.3C245.409 39.9667 244.709 43.4333 243.909 47.7C243.109 51.9667 242.709 56.7333 242.709 62C242.709 63.7333 242.976 65.1667 243.509 66.3C244.109 67.4333 245.176 68 246.709 68C248.243 68 249.476 67.6333 250.409 66.9C251.409 66.1667 252.276 64.9333 253.009 63.2C254.343 60.1333 255.543 55.7667 256.609 50.1C257.676 44.3667 258.243 40.2667 258.309 37.8C258.443 35.3333 258.509 33.2 258.509 31.4C258.509 29.5333 258.243 28 257.709 26.8C257.176 25.6 256.143 25 254.609 25C253.143 25 251.909 25.4667 250.909 26.4C249.909 27.3333 249.009 28.7 248.209 30.5ZM325.191 74C317.125 74 313.091 70.8667 313.091 64.6C313.158 62.8667 313.458 60.5333 313.991 57.6L315.791 48.4C317.591 39.7333 318.491 34.4333 318.491 32.5C318.491 28.6333 317.358 26.7 315.091 26.7C311.291 26.7 308.391 31.6667 306.391 41.6L300.491 72L280.391 74L290.791 20.9L307.191 19L305.591 28.8C308.725 22.2667 315.091 19 324.691 19C329.358 19 332.658 20 334.591 22C336.591 23.9333 337.591 27.1 337.591 31.5C337.591 35.6333 336.525 42.5333 334.391 52.2C333.391 56.5333 332.891 59.5333 332.891 61.2C332.891 62.8 333.325 64.0667 334.191 65C335.125 65.9333 336.258 66.4667 337.591 66.6C336.925 68.8667 335.425 70.6667 333.091 72C330.825 73.3333 328.191 74 325.191 74ZM349.887 69C348.353 67.2667 347.22 65.0333 346.487 62.3C345.82 59.5667 345.487 55.9667 345.487 51.5C345.487 47.0333 346.253 42.7667 347.787 38.7C349.32 34.6333 351.487 31.1333 354.287 28.2C360.02 22.0667 367.62 19 377.087 19C380.487 19 383.42 19.5667 385.887 20.7L402.987 19L395.587 58C395.387 58.8 395.287 59.9333 395.287 61.4C395.287 62.8667 395.72 64.0667 396.587 65C397.52 65.9333 398.653 66.4667 399.987 66.6C399.32 68.8667 397.753 70.6667 395.287 72C392.887 73.3333 390.32 74 387.587 74C384.853 74 382.553 73.4667 380.687 72.4C378.887 71.4 377.72 70.0333 377.187 68.3C376.12 69.9667 374.453 71.3333 372.187 72.4C369.92 73.4667 367.253 74 364.187 74C361.187 74 358.453 73.6 355.987 72.8C353.52 72 351.487 70.7333 349.887 69ZM370.987 28.4C370.253 29.6 369.553 31.2333 368.887 33.3C368.22 35.3 367.32 39.0333 366.187 44.5C365.12 49.9 364.587 54.5333 364.587 58.4C364.587 62.2667 364.887 64.7667 365.487 65.9C366.087 67.0333 366.92 67.6 367.987 67.6C370.12 67.6 371.953 66.6 373.487 64.6C375.087 62.5333 376.187 59.7 376.787 56.1L382.087 26.8C380.687 25.6 379.153 25 377.487 25C375.887 25 374.587 25.2667 373.587 25.8C372.653 26.3333 371.787 27.2 370.987 28.4ZM447.48 5.29999C463.813 5.29999 471.98 11.0667 471.98 22.6C471.98 28.9333 469.946 34 465.88 37.8C461.88 41.6 456.38 43.5 449.38 43.5C446.113 43.5 443.213 42.5667 440.68 40.7C439.48 39.9 438.48 38.9667 437.68 37.9C442.546 37.9 446.246 36.4333 448.78 33.5C451.38 30.5 452.68 26.1 452.68 20.3C452.68 14.5 449.813 11.6 444.08 11.6H441.68C441.28 11.6 440.913 11.6333 440.58 11.7L429.08 72H407.38L419.68 6.5C426.813 5.83333 432.446 5.46666 436.58 5.4C440.713 5.33333 444.346 5.29999 447.48 5.29999ZM476.742 69C475.209 67.2667 474.076 65.0333 473.342 62.3C472.676 59.5667 472.342 55.9667 472.342 51.5C472.342 47.0333 473.109 42.7667 474.642 38.7C476.176 34.6333 478.342 31.1333 481.142 28.2C486.876 22.0667 494.476 19 503.942 19C507.342 19 510.276 19.5667 512.742 20.7L529.842 19L522.442 58C522.242 58.8 522.142 59.9333 522.142 61.4C522.142 62.8667 522.576 64.0667 523.442 65C524.376 65.9333 525.509 66.4667 526.842 66.6C526.176 68.8667 524.609 70.6667 522.142 72C519.742 73.3333 517.176 74 514.442 74C511.709 74 509.409 73.4667 507.542 72.4C505.742 71.4 504.576 70.0333 504.042 68.3C502.976 69.9667 501.309 71.3333 499.042 72.4C496.776 73.4667 494.109 74 491.042 74C488.042 74 485.309 73.6 482.842 72.8C480.376 72 478.342 70.7333 476.742 69ZM497.842 28.4C497.109 29.6 496.409 31.2333 495.742 33.3C495.076 35.3 494.176 39.0333 493.042 44.5C491.976 49.9 491.442 54.5333 491.442 58.4C491.442 62.2667 491.742 64.7667 492.342 65.9C492.942 67.0333 493.776 67.6 494.842 67.6C496.976 67.6 498.809 66.6 500.342 64.6C501.942 62.5333 503.042 59.7 503.642 56.1L508.942 26.8C507.542 25.6 506.009 25 504.342 25C502.742 25 501.442 25.2667 500.442 25.8C499.509 26.3333 498.642 27.2 497.842 28.4ZM559.135 66.5C557.068 71.5 552.735 74 546.135 74C542.802 74 540.068 72.8333 537.935 70.5C536.202 68.5667 535.335 66.5 535.335 64.3C535.335 59.3 536.502 51.3333 538.835 40.4L546.135 2L566.435 -2.86102e-06L556.735 50.6C555.602 55.5333 555.035 58.8667 555.035 60.6C555.035 64.4 556.402 66.3667 559.135 66.5Z" fill="#9D317E"/>
<path d="M63.243 37.8L62.9016 37.4347L62.8986 37.4375L63.243 37.8ZM38.043 40.7L38.3396 40.2975L38.3301 40.2905L38.3203 40.284L38.043 40.7ZM35.043 37.9V37.4H34.043L34.643 38.2L35.043 37.9ZM46.143 33.5L45.7651 33.1725L45.7646 33.1732L46.143 33.5ZM37.943 11.7L37.8449 11.2097L37.5149 11.2757L37.4518 11.6063L37.943 11.7ZM26.443 72V72.5H26.8566L26.9341 72.0937L26.443 72ZM4.74297 72L4.25156 71.9077L4.14034 72.5H4.74297V72ZM17.043 6.5L16.9964 6.00217L16.6211 6.03724L16.5516 6.40772L17.043 6.5ZM33.943 5.4L33.951 5.89993L33.943 5.4ZM44.843 5.8C52.966 5.8 58.9689 7.23672 62.9296 10.0334C66.8584 12.8076 68.843 16.967 68.843 22.6H69.843C69.843 16.6996 67.7442 12.209 63.5064 9.21656C59.3004 6.24661 53.0532 4.8 44.843 4.8V5.8ZM68.843 22.6C68.843 28.8158 66.8527 33.7427 62.9016 37.4347L63.5843 38.1653C67.7666 34.2573 69.843 29.0508 69.843 22.6H68.843ZM62.8986 37.4375C59.0147 41.1272 53.6507 43 46.743 43V44C53.8352 44 59.4713 42.0728 63.5873 38.1625L62.8986 37.4375ZM46.743 43C43.5787 43 40.7835 42.0983 38.3396 40.2975L37.7464 41.1025C40.3691 43.035 43.3739 44 46.743 44V43ZM38.3203 40.284C37.1636 39.5128 36.2063 38.6178 35.443 37.6L34.643 38.2C35.4797 39.3156 36.5223 40.2872 37.7656 41.116L38.3203 40.284ZM35.043 38.4C40.0148 38.4 43.8697 36.8972 46.5214 33.8268L45.7646 33.1732C43.3496 35.9694 39.8045 37.4 35.043 37.4V38.4ZM46.5208 33.8275C49.229 30.7026 50.543 26.1661 50.543 20.3H49.543C49.543 26.0339 48.2569 30.2974 45.7651 33.1725L46.5208 33.8275ZM50.543 20.3C50.543 17.3244 49.8075 15.0005 48.2486 13.4235C46.6886 11.8454 44.3882 11.1 41.443 11.1V12.1C44.2311 12.1 46.2307 12.8046 47.5374 14.1265C48.8451 15.4495 49.543 17.4756 49.543 20.3H50.543ZM41.443 11.1H39.043V12.1H41.443V11.1ZM39.043 11.1C38.6156 11.1 38.2156 11.1356 37.8449 11.2097L38.041 12.1903C38.337 12.1311 38.6703 12.1 39.043 12.1V11.1ZM37.4518 11.6063L25.9518 71.9063L26.9341 72.0937L38.4341 11.7937L37.4518 11.6063ZM26.443 71.5H4.74297V72.5H26.443V71.5ZM5.23438 72.0923L17.5344 6.59228L16.5516 6.40772L4.25156 71.9077L5.23438 72.0923ZM17.0895 6.99783C24.2178 6.33163 29.8365 5.9663 33.951 5.89993L33.9349 4.90006C29.7828 4.96703 24.1348 5.33503 16.9964 6.00217L17.0895 6.99783ZM33.951 5.89993C38.0825 5.8333 41.713 5.8 44.843 5.8V4.8C41.7063 4.8 38.0701 4.83336 33.9349 4.90006L33.951 5.89993ZM110.305 55.1L110.587 54.6865L110.151 54.3905L109.878 54.8405L110.305 55.1ZM110.905 66.7L111.297 67.0104L110.905 66.7ZM105.905 70.7L106.135 71.1444L106.135 71.1443L105.905 70.7ZM81.6055 72.5L81.4299 72.9682L81.4337 72.9696L81.6055 72.5ZM74.9055 68.2L75.2654 67.8529L75.259 67.8464L74.9055 68.2ZM77.8055 28.9L78.1787 29.2327L78.1792 29.2322L77.8055 28.9ZM116.105 23L116.431 22.6204L116.43 22.6192L116.105 23ZM89.2055 48.5V48H88.7765L88.7113 48.424L89.2055 48.5ZM90.8055 59.7L90.471 60.0716L90.4807 60.0804L90.4909 60.0886L90.8055 59.7ZM104.505 59.7L104.701 60.1602L104.706 60.1578L104.505 59.7ZM89.9055 44.2L89.4135 44.1109L89.3068 44.7H89.9055V44.2ZM101.105 39.8L100.748 39.4506L100.74 39.4591L101.105 39.8ZM104.305 25.4L103.88 25.662L103.892 25.6816L103.905 25.7L104.305 25.4ZM98.6055 24.8L98.8024 25.2596L98.8097 25.2564L98.8169 25.2531L98.6055 24.8ZM95.7055 27.6L96.1074 27.8974L96.1131 27.8896L96.1186 27.8817L95.7055 27.6ZM110.024 55.5135C111.519 56.5296 112.305 58.1843 112.305 60.6H113.305C113.305 57.9491 112.426 55.937 110.587 54.6865L110.024 55.5135ZM112.305 60.6C112.305 62.9783 111.696 64.8953 110.513 66.3896L111.297 67.0104C112.648 65.3047 113.305 63.155 113.305 60.6H112.305ZM110.513 66.3896C109.297 67.9267 107.688 69.2171 105.676 70.2557L106.135 71.1443C108.256 70.0496 109.981 68.6733 111.297 67.0104L110.513 66.3896ZM105.676 70.2556C101.477 72.4207 97.1222 73.5 92.6055 73.5V74.5C97.2887 74.5 101.8 73.3793 106.135 71.1444L105.676 70.2556ZM92.6055 73.5C88.0341 73.5 84.4331 73.0021 81.7773 72.0304L81.4337 72.9696C84.2445 73.9979 87.9769 74.5 92.6055 74.5V73.5ZM81.781 72.0318C79.1771 71.0554 77.0088 69.6609 75.2654 67.8529L74.5455 68.5471C76.4021 70.4724 78.7005 71.9446 81.4299 72.9682L81.781 72.0318ZM75.259 67.8464C71.8448 64.4322 70.1055 59.5748 70.1055 53.2H69.1055C69.1055 59.7586 70.8995 64.9011 74.5519 68.5536L75.259 67.8464ZM70.1055 53.2C70.1055 43.2271 72.8111 35.2549 78.1787 29.2327L77.4322 28.5673C71.8665 34.8117 69.1055 43.0395 69.1055 53.2H70.1055ZM78.1792 29.2322C83.9358 22.7559 91.8238 19.5 101.905 19.5V18.5C91.5871 18.5 83.4084 21.8441 77.4318 28.5678L78.1792 29.2322ZM101.905 19.5C108.181 19.5 112.776 20.8231 115.781 23.3808L116.43 22.6192C113.168 19.8435 108.296 18.5 101.905 18.5V19.5ZM115.78 23.3796C117.995 25.278 119.105 27.7688 119.105 30.9H120.105C120.105 27.4978 118.883 24.722 116.431 22.6204L115.78 23.3796ZM119.105 30.9C119.105 36.5887 116.667 40.8236 111.755 43.6673C106.802 46.5351 99.3069 48 89.2055 48V49C99.3707 49 107.076 47.5316 112.256 44.5327C117.477 41.5098 120.105 36.9446 120.105 30.9H119.105ZM88.7113 48.424C88.4415 50.1778 88.3055 51.8035 88.3055 53.3H89.3055C89.3055 51.8631 89.4361 50.2889 89.6997 48.576L88.7113 48.424ZM88.3055 53.3C88.3055 56.4128 88.9777 58.7276 90.471 60.0716L91.14 59.3284C89.9666 58.2723 89.3055 56.3205 89.3055 53.3H88.3055ZM90.4909 60.0886C92.0099 61.3183 94.1034 61.9 96.7055 61.9V60.9C94.2409 60.9 92.401 60.3483 91.1201 59.3114L90.4909 60.0886ZM96.7055 61.9C99.315 61.9 101.981 61.316 104.701 60.1602L104.31 59.2398C101.696 60.3506 99.1626 60.9 96.7055 60.9V61.9ZM104.706 60.1578C107.5 58.9313 109.53 57.3409 110.733 55.3595L109.878 54.8405C108.814 56.5924 106.977 58.0687 104.304 59.2422L104.706 60.1578ZM89.9055 44.7C94.7503 44.7 98.6263 43.194 101.471 40.1409L100.74 39.4591C98.118 42.2726 94.5273 43.7 89.9055 43.7V44.7ZM101.463 40.1493C104.301 37.2425 105.705 33.4772 105.705 28.9H104.705C104.705 33.2561 103.377 36.7575 100.748 39.4507L101.463 40.1493ZM105.705 28.9C105.705 27.3128 105.397 26.0218 104.705 25.1L103.905 25.7C104.414 26.3782 104.705 27.4205 104.705 28.9H105.705ZM104.731 25.138C104.095 24.1044 103.089 23.6 101.805 23.6V24.6C102.789 24.6 103.449 24.9623 103.88 25.662L104.731 25.138ZM101.805 23.6C100.601 23.6 99.4621 23.8485 98.394 24.3469L98.8169 25.2531C99.7489 24.8182 100.743 24.6 101.805 24.6V23.6ZM98.4085 24.3404C97.344 24.7966 96.3108 25.8246 95.2924 27.3183L96.1186 27.8817C97.1001 26.4421 98.0003 25.6034 98.8024 25.2596L98.4085 24.3404ZM95.3036 27.3026C92.7665 30.731 90.817 36.3581 89.4135 44.1109L90.3975 44.2891C91.7939 36.5753 93.7111 31.1357 96.1074 27.8974L95.3036 27.3026ZM154.328 43.9L153.892 43.6549L153.706 43.9854L153.975 44.2536L154.328 43.9ZM149.928 30.8L150.35 31.0678L150.355 31.0603L149.928 30.8ZM146.528 40.2L147.022 40.2807L147.023 40.2746L146.528 40.2ZM141.328 72L141.376 72.4977L141.759 72.4607L141.822 72.0807L141.328 72ZM120.628 74L120.137 73.9055L120.011 74.562L120.676 74.4977L120.628 74ZM130.828 21L130.768 20.5036L130.406 20.5475L130.337 20.9055L130.828 21ZM147.328 19L147.82 19.0877L147.939 18.4223L147.268 18.5036L147.328 19ZM145.528 29.1L145.036 29.0123L145.978 29.3182L145.528 29.1ZM170.328 22L169.98 22.3593L169.986 22.3648L170.328 22ZM169.428 41.2L169.083 40.8377L169.079 40.842L169.428 41.2ZM154.764 44.1451C157.2 39.8135 158.428 35.4299 158.428 31H157.428C157.428 35.2368 156.256 39.4532 153.892 43.6549L154.764 44.1451ZM158.428 31C158.428 29.5216 158.164 28.3227 157.559 27.4826C156.931 26.6122 155.991 26.2 154.828 26.2V27.2C155.732 27.2 156.342 27.5044 156.748 28.0674C157.175 28.6606 157.428 29.6118 157.428 31H158.428ZM154.828 26.2C153.877 26.2 152.959 26.608 152.082 27.3415C151.208 28.0728 150.35 29.1475 149.501 30.5397L150.355 31.0603C151.173 29.7192 151.965 28.7439 152.724 28.1085C153.481 27.4753 154.179 27.2 154.828 27.2V26.2ZM149.506 30.5322C147.732 33.3301 146.576 36.5305 146.034 40.1254L147.023 40.2746C147.547 36.8028 148.658 33.7366 150.35 31.0678L149.506 30.5322ZM146.035 40.1193L140.835 71.9193L141.822 72.0807L147.022 40.2807L146.035 40.1193ZM141.28 71.5023L120.58 73.5023L120.676 74.4977L141.376 72.4977L141.28 71.5023ZM121.119 74.0945L131.319 21.0945L130.337 20.9055L120.137 73.9055L121.119 74.0945ZM130.888 21.4964L147.388 19.4964L147.268 18.5036L130.768 20.5036L130.888 21.4964ZM146.836 18.9123L145.036 29.0123L146.02 29.1877L147.82 19.0877L146.836 18.9123ZM145.978 29.3182C147.579 26.0189 149.663 23.5718 152.221 21.947C154.778 20.3227 157.84 19.5 161.428 19.5V18.5C157.683 18.5 154.428 19.3606 151.685 21.1029C148.943 22.8449 146.744 25.4478 145.078 28.8818L145.978 29.3182ZM161.428 19.5C165.211 19.5 168.035 20.477 169.98 22.3593L170.676 21.6407C168.488 19.5229 165.379 18.5 161.428 18.5V19.5ZM169.986 22.3648C171.983 24.2366 173.028 27.1465 173.028 31.2H174.028C174.028 26.9868 172.94 23.7634 170.67 21.6352L169.986 22.3648ZM173.028 31.2C173.028 35.1416 171.709 38.34 169.084 40.8377L169.773 41.5623C172.614 38.86 174.028 35.3917 174.028 31.2H173.028ZM169.079 40.842C166.527 43.3306 163.03 44.6 158.528 44.6V45.6C163.226 45.6 166.996 44.2694 169.777 41.558L169.079 40.842ZM158.528 44.6C156.567 44.6 155.338 44.2025 154.682 43.5464L153.975 44.2536C154.919 45.1975 156.489 45.6 158.528 45.6V44.6ZM205.077 36.9L204.609 36.7231L204.47 37.0898L204.793 37.312L205.077 36.9ZM197.077 26.4L196.707 26.0629L196.707 26.0637L197.077 26.4ZM196.677 35L196.323 35.3536L196.331 35.3613L196.677 35ZM204.877 40.8L204.616 41.2268L204.877 40.8ZM212.977 47.4L212.573 47.6957L212.579 47.7033L212.585 47.7107L212.977 47.4ZM213.277 62.1L212.837 61.8622L212.832 61.8716L213.277 62.1ZM207.877 68.4L207.578 67.9986L207.577 67.9994L207.877 68.4ZM176.877 70.6L177.158 70.1865L177.152 70.1827L176.877 70.6ZM174.677 57.2L174.366 56.8082L174.359 56.8136L174.677 57.2ZM188.577 56.5L189.042 56.6833L189.195 56.2936L188.839 56.0742L188.577 56.5ZM196.877 67.1L197.219 67.4648L196.877 67.1ZM189.877 52.5L189.602 52.9179L189.611 52.9234L189.877 52.5ZM181.277 46.1L180.894 46.4225L180.903 46.4322L181.277 46.1ZM180.477 31.1L180.924 31.3236L180.477 31.1ZM185.877 24.6L185.572 24.2033L185.571 24.2041L185.877 24.6ZM216.177 21.6L215.894 22.0127L215.899 22.016L216.177 21.6ZM217.377 35.5L217.037 35.1331L217.03 35.1396L217.377 35.5ZM205.544 37.0769C206.494 34.5666 206.977 32.2062 206.977 30H205.977C205.977 32.0605 205.526 34.3 204.609 36.7231L205.544 37.0769ZM206.977 30C206.977 27.9784 206.567 26.3694 205.664 25.2595C204.745 24.1297 203.384 23.6 201.677 23.6V24.6C203.169 24.6 204.208 25.0536 204.889 25.8905C205.586 26.7472 205.977 28.0882 205.977 30H206.977ZM201.677 23.6C199.836 23.6 198.177 24.4531 196.707 26.0629L197.446 26.7371C198.776 25.2802 200.184 24.6 201.677 24.6V23.6ZM196.707 26.0637C195.295 27.6161 194.577 29.4008 194.577 31.4H195.577C195.577 29.6659 196.191 28.1172 197.447 26.7363L196.707 26.0637ZM194.577 31.4C194.577 32.8838 195.176 34.2065 196.323 35.3536L197.03 34.6464C196.044 33.6601 195.577 32.5829 195.577 31.4H194.577ZM196.331 35.3613C197.906 36.8679 200.679 38.8246 204.616 41.2268L205.137 40.3732C201.207 37.9754 198.514 36.0654 197.022 34.6387L196.331 35.3613ZM204.616 41.2268C208.533 43.6169 211.165 45.7759 212.573 47.6957L213.38 47.1043C211.854 45.0241 209.087 42.7831 205.137 40.3732L204.616 41.2268ZM212.585 47.7107C214.04 49.546 214.777 51.7666 214.777 54.4H215.777C215.777 51.5667 214.979 49.1206 213.368 47.0893L212.585 47.7107ZM214.777 54.4C214.777 56.9793 214.133 59.4647 212.837 61.8622L213.716 62.3378C215.087 59.8019 215.777 57.154 215.777 54.4H214.777ZM212.832 61.8716C211.602 64.2668 209.853 66.3087 207.578 67.9986L208.175 68.8014C210.566 67.0246 212.418 64.8665 213.721 62.3284L212.832 61.8716ZM207.577 67.9994C202.685 71.652 196.299 73.5 188.377 73.5V74.5C196.454 74.5 203.068 72.6147 208.176 68.8006L207.577 67.9994ZM188.377 73.5C184.136 73.5 180.402 72.3925 177.158 70.1865L176.595 71.0135C180.018 73.3408 183.951 74.5 188.377 74.5V73.5ZM177.152 70.1827C173.88 68.0231 172.377 65.7554 172.377 63.4H171.377C171.377 66.2446 173.207 68.7769 176.601 71.0173L177.152 70.1827ZM172.377 63.4C172.377 60.9366 173.253 59.0167 174.994 57.5864L174.359 56.8136C172.367 58.4499 171.377 60.6634 171.377 63.4H172.377ZM174.987 57.5918C176.82 56.1379 179.073 55.4 181.777 55.4V54.4C178.88 54.4 176.399 55.1955 174.366 56.8083L174.987 57.5918ZM181.777 55.4C184.517 55.4 186.684 55.9226 188.315 56.9258L188.839 56.0742C187.002 54.9441 184.636 54.4 181.777 54.4V55.4ZM188.111 56.3167C187.234 58.5437 186.777 60.444 186.777 62H187.777C187.777 60.6227 188.186 58.8563 189.042 56.6833L188.111 56.3167ZM186.777 62C186.777 64.2588 187.254 66.0462 188.295 67.2735C189.35 68.5165 190.909 69.1 192.877 69.1V68.1C191.11 68.1 189.87 67.5835 189.058 66.6265C188.232 65.6538 187.777 64.1412 187.777 62H186.777ZM192.877 69.1C194.591 69.1 196.05 68.5602 197.219 67.4648L196.535 66.7352C195.57 67.6398 194.363 68.1 192.877 68.1V69.1ZM197.219 67.4648C198.405 66.3528 198.977 64.8437 198.977 63H197.977C197.977 64.623 197.482 65.8472 196.535 66.7352L197.219 67.4648ZM198.977 63C198.977 61.1512 198.196 59.3179 196.713 57.5082C195.233 55.701 193.035 53.8925 190.142 52.0766L189.611 52.9234C192.452 54.7075 194.553 56.449 195.94 58.1418C197.324 59.8321 197.977 61.4488 197.977 63H198.977ZM190.151 52.0821C187.822 50.5516 185.948 49.2575 184.525 48.1989C183.094 47.134 182.147 46.3265 181.65 45.7678L180.903 46.4322C181.473 47.0735 182.492 47.9326 183.928 49.0011C185.372 50.0759 187.264 51.3818 189.602 52.9179L190.151 52.0821ZM181.659 45.7776C179.931 43.7299 179.077 41.4428 179.077 38.9H178.077C178.077 41.6905 179.022 44.2035 180.894 46.4224L181.659 45.7776ZM179.077 38.9C179.077 36.3158 179.69 33.7919 180.924 31.3236L180.029 30.8764C178.73 33.4747 178.077 36.1509 178.077 38.9H179.077ZM180.924 31.3236C182.155 28.8604 183.906 26.7518 186.182 24.9959L185.571 24.2041C183.181 26.0482 181.331 28.2729 180.029 30.8764L180.924 31.3236ZM186.181 24.9967C190.932 21.3517 197.479 19.5 205.877 19.5V18.5C197.341 18.5 190.554 20.3816 185.572 24.2033L186.181 24.9967ZM205.877 19.5C210.149 19.5 213.472 20.3552 215.894 22.0127L216.459 21.1873C213.815 19.3781 210.271 18.5 205.877 18.5V19.5ZM215.899 22.016C218.371 23.6638 219.577 25.8464 219.577 28.6H220.577C220.577 25.4869 219.182 23.0028 216.454 21.184L215.899 22.016ZM219.577 28.6C219.577 31.4236 218.715 33.5795 217.037 35.1331L217.716 35.8669C219.638 34.0872 220.577 31.643 220.577 28.6H219.577ZM217.03 35.1396C215.417 36.6903 213.091 37.5 209.977 37.5V38.5C213.262 38.5 215.869 37.6431 217.723 35.8604L217.03 35.1396ZM209.977 37.5C207.814 37.5 206.303 37.1364 205.36 36.488L204.793 37.312C205.983 38.1303 207.739 38.5 209.977 38.5V37.5ZM231.709 29.1L232.09 29.4244L232.09 29.4241L231.709 29.1ZM271.509 24L271.846 23.63L271.509 24ZM268.409 64.8L268.042 64.4605L268.04 64.4629L268.409 64.8ZM246.009 37.3L245.524 37.1815L245.522 37.1902L246.009 37.3ZM243.909 47.7L243.418 47.6079L243.909 47.7ZM243.509 66.3L243.057 66.5129L243.062 66.5235L243.067 66.5339L243.509 66.3ZM250.409 66.9L250.114 66.4968L250.107 66.5017L250.1 66.5068L250.409 66.9ZM253.009 63.2L252.551 63.0006L252.549 63.0052L253.009 63.2ZM256.609 50.1L257.101 50.1925L257.101 50.1915L256.609 50.1ZM258.309 37.8L257.81 37.773L257.81 37.7865L258.309 37.8ZM257.709 26.8L257.252 27.0031L257.709 26.8ZM250.909 26.4L251.251 26.7655L250.909 26.4ZM245.609 73.5C238.346 73.5 232.991 71.7908 229.452 68.4609C225.919 65.1363 224.109 60.1149 224.109 53.3H223.109C223.109 60.2851 224.967 65.6137 228.767 69.1891C232.561 72.7592 238.206 74.5 245.609 74.5V73.5ZM224.109 53.3C224.109 43.5967 226.78 35.6517 232.09 29.4244L231.329 28.7756C225.838 35.215 223.109 43.4033 223.109 53.3H224.109ZM232.09 29.4241C237.716 22.8169 245.402 19.5 255.209 19.5V18.5C245.15 18.5 237.169 21.9164 231.329 28.7758L232.09 29.4241ZM255.209 19.5C262.341 19.5 267.633 21.1514 271.173 24.37L271.846 23.63C268.053 20.1819 262.478 18.5 255.209 18.5V19.5ZM271.173 24.37C274.698 27.5747 276.509 32.5812 276.509 39.5H277.509C277.509 32.4188 275.654 27.092 271.846 23.63L271.173 24.37ZM276.509 39.5C276.509 50.0753 273.669 58.3754 268.042 64.4605L268.776 65.1395C274.616 58.8246 277.509 50.2581 277.509 39.5H276.509ZM268.04 64.4629C262.55 70.4759 255.093 73.5 245.609 73.5V74.5C255.326 74.5 263.069 71.3908 268.779 65.1371L268.04 64.4629ZM247.752 30.2969C246.936 32.133 246.195 34.4304 245.524 37.1815L246.495 37.4185C247.157 34.7029 247.882 32.467 248.666 30.7031L247.752 30.2969ZM245.522 37.1902C244.92 39.8651 244.218 43.3383 243.418 47.6079L244.401 47.7921C245.2 43.5284 245.899 40.0682 246.497 37.4098L245.522 37.1902ZM243.418 47.6079C242.611 51.9105 242.209 56.7087 242.209 62H243.209C243.209 56.758 243.608 52.0228 244.401 47.7921L243.418 47.6079ZM242.209 62C242.209 63.7804 242.483 65.2925 243.057 66.5129L243.962 66.0871C243.469 65.0408 243.209 63.6863 243.209 62H242.209ZM243.067 66.5339C243.773 67.8662 245.034 68.5 246.709 68.5V67.5C245.318 67.5 244.446 67.0005 243.951 66.0661L243.067 66.5339ZM246.709 68.5C248.322 68.5 249.674 68.1137 250.718 67.2932L250.1 66.5068C249.278 67.153 248.164 67.5 246.709 67.5V68.5ZM250.705 67.3032C251.806 66.4958 252.718 65.1715 253.47 63.3948L252.549 63.0052C251.834 64.6952 251.013 65.8376 250.114 66.4968L250.705 67.3032ZM253.468 63.3994C254.823 60.2825 256.031 55.8736 257.101 50.1925L256.118 50.0075C255.054 55.6598 253.862 59.9842 252.551 63.0006L253.468 63.3994ZM257.101 50.1915C258.168 44.4576 258.741 40.3233 258.809 37.8135L257.81 37.7865C257.744 40.21 257.184 44.2758 256.118 50.0085L257.101 50.1915ZM258.809 37.827C258.942 35.3544 259.009 33.2116 259.009 31.4H258.009C258.009 33.1884 257.943 35.3123 257.81 37.773L258.809 37.827ZM259.009 31.4C259.009 29.4907 258.737 27.8818 258.166 26.5969L257.252 27.0031C257.748 28.1181 258.009 29.5759 258.009 31.4H259.009ZM258.166 26.5969C257.861 25.9107 257.402 25.3757 256.785 25.0176C256.174 24.6625 255.44 24.5 254.609 24.5V25.5C255.312 25.5 255.862 25.6375 256.283 25.8824C256.7 26.1243 257.024 26.4893 257.252 27.0031L258.166 26.5969ZM254.609 24.5C253.026 24.5 251.668 25.0081 250.568 26.0345L251.251 26.7655C252.151 25.9252 253.259 25.5 254.609 25.5V24.5ZM250.568 26.0345C249.503 27.0291 248.569 28.4604 247.752 30.2969L248.666 30.7031C249.45 28.9396 250.316 27.6375 251.251 26.7655L250.568 26.0345ZM313.091 64.6L312.592 64.5808L312.591 64.5904V64.6H313.091ZM313.991 57.6L313.501 57.504L313.499 57.5106L313.991 57.6ZM315.791 48.4L315.302 48.2983L315.301 48.304L315.791 48.4ZM306.391 41.6L305.901 41.5013L305.901 41.5047L306.391 41.6ZM300.491 72L300.541 72.4975L300.911 72.4607L300.982 72.0953L300.491 72ZM280.391 74L279.901 73.9039L279.771 74.5642L280.441 74.4975L280.391 74ZM290.791 20.9L290.734 20.4033L290.371 20.4454L290.301 20.8039L290.791 20.9ZM307.191 19L307.685 19.0806L307.792 18.4271L307.134 18.5033L307.191 19ZM305.591 28.8L305.098 28.7194L306.042 29.0162L305.591 28.8ZM334.591 22L334.232 22.3475L334.238 22.3536L334.244 22.3595L334.591 22ZM334.391 52.2L334.879 52.3124L334.88 52.3077L334.391 52.2ZM334.191 65L333.825 65.3402L333.831 65.347L333.838 65.3536L334.191 65ZM337.591 66.6L338.071 66.7411L338.241 66.1625L337.641 66.1025L337.591 66.6ZM333.091 72L332.843 71.5658L332.838 71.569L333.091 72ZM325.191 73.5C321.209 73.5 318.314 72.7242 316.423 71.2551C314.556 69.8047 313.591 67.6178 313.591 64.6H312.591C312.591 67.8489 313.643 70.3619 315.81 72.0449C317.952 73.7091 321.107 74.5 325.191 74.5V73.5ZM313.591 64.6192C313.656 62.9203 313.952 60.6135 314.483 57.6894L313.499 57.5106C312.964 60.4531 312.66 62.813 312.592 64.5808L313.591 64.6192ZM314.482 57.696L316.282 48.496L315.301 48.304L313.501 57.504L314.482 57.696ZM316.281 48.5017C317.182 44.1656 317.858 40.6673 318.309 38.0087C318.759 35.3634 318.991 33.515 318.991 32.5H317.991C317.991 33.4183 317.774 35.1866 317.323 37.8413C316.875 40.4827 316.201 43.9677 315.302 48.2983L316.281 48.5017ZM318.991 32.5C318.991 30.5342 318.706 28.9777 318.073 27.8971C317.415 26.7752 316.4 26.2 315.091 26.2V27.2C316.05 27.2 316.734 27.5914 317.21 28.4029C317.71 29.2556 317.991 30.5992 317.991 32.5H318.991ZM315.091 26.2C312.933 26.2 311.125 27.6212 309.635 30.1729C308.143 32.7269 306.905 36.5152 305.901 41.5013L306.882 41.6987C307.878 36.7515 309.089 33.0898 310.498 30.6771C311.908 28.2621 313.45 27.2 315.091 27.2V26.2ZM305.901 41.5047L300.001 71.9047L300.982 72.0953L306.882 41.6953L305.901 41.5047ZM300.442 71.5025L280.342 73.5025L280.441 74.4975L300.541 72.4975L300.442 71.5025ZM280.882 74.0961L291.282 20.9961L290.301 20.8039L279.901 73.9039L280.882 74.0961ZM290.849 21.3967L307.249 19.4967L307.134 18.5033L290.734 20.4033L290.849 21.3967ZM306.698 18.9194L305.098 28.7194L306.085 28.8806L307.685 19.0806L306.698 18.9194ZM306.042 29.0162C309.065 22.7142 315.21 19.5 324.691 19.5V18.5C314.973 18.5 308.385 21.8191 305.141 28.5838L306.042 29.0162ZM324.691 19.5C329.31 19.5 332.44 20.4935 334.232 22.3475L334.951 21.6525C332.876 19.5065 329.407 18.5 324.691 18.5V19.5ZM334.244 22.3595C336.102 24.1561 337.091 27.1589 337.091 31.5H338.091C338.091 27.0411 337.08 23.7106 334.939 21.6405L334.244 22.3595ZM337.091 31.5C337.091 35.5732 336.036 42.4256 333.903 52.0922L334.88 52.3077C337.013 42.641 338.091 35.6934 338.091 31.5H337.091ZM333.904 52.0876C332.905 56.4163 332.391 59.4687 332.391 61.2H333.391C333.391 59.598 333.878 56.6504 334.879 52.3124L333.904 52.0876ZM332.391 61.2C332.391 62.8925 332.852 64.2924 333.825 65.3402L334.558 64.6598C333.797 63.841 333.391 62.7075 333.391 61.2H332.391ZM333.838 65.3536C334.854 66.3698 336.095 66.9529 337.542 67.0975L337.641 66.1025C336.421 65.9804 335.395 65.4968 334.545 64.6464L333.838 65.3536ZM337.112 66.4589C336.487 68.5844 335.081 70.2871 332.843 71.5659L333.339 72.4341C335.768 71.0462 337.363 69.149 338.071 66.7411L337.112 66.4589ZM332.838 71.569C330.658 72.8511 328.115 73.5 325.191 73.5V74.5C328.268 74.5 330.991 73.8156 333.345 72.431L332.838 71.569ZM349.887 69L349.512 69.3314L349.519 69.3391L349.887 69ZM346.487 62.3L346.001 62.4185L346.004 62.4296L346.487 62.3ZM347.787 38.7L348.255 38.8764L347.787 38.7ZM354.287 28.2L354.648 28.5453L354.652 28.5414L354.287 28.2ZM385.887 20.7L385.678 21.1543L385.801 21.211L385.936 21.1975L385.887 20.7ZM402.987 19L403.478 19.0932L403.603 18.4363L402.937 18.5024L402.987 19ZM395.587 58L396.072 58.1213L396.075 58.1073L396.078 58.0932L395.587 58ZM396.587 65L396.22 65.3402L396.227 65.347L396.233 65.3536L396.587 65ZM399.987 66.6L400.466 66.7411L400.637 66.1625L400.036 66.1025L399.987 66.6ZM395.287 72L395.049 71.5601L395.044 71.5629L395.287 72ZM380.687 72.4L380.935 71.9658L380.93 71.9629L380.687 72.4ZM377.187 68.3L377.665 68.153L377.347 67.1216L376.766 68.0305L377.187 68.3ZM372.187 72.4L372.4 72.8524L372.187 72.4ZM355.987 72.8L356.141 72.3244L355.987 72.8ZM370.987 28.4L370.571 28.1226L370.565 28.1309L370.56 28.1393L370.987 28.4ZM368.887 33.3L369.361 33.4581L369.363 33.4535L368.887 33.3ZM366.187 44.5L365.697 44.3985L365.696 44.4031L366.187 44.5ZM365.487 65.9L365.045 66.1339L365.487 65.9ZM373.487 64.6L373.091 64.2939L373.09 64.2958L373.487 64.6ZM376.787 56.1L376.295 56.011L376.294 56.0178L376.787 56.1ZM382.087 26.8L382.579 26.889L382.63 26.6069L382.412 26.4204L382.087 26.8ZM373.587 25.8L373.351 25.3588L373.345 25.3623L373.339 25.3659L373.587 25.8ZM350.261 68.6687C348.789 67.0048 347.687 64.8454 346.97 62.1704L346.004 62.4296C346.753 65.2212 347.917 67.5285 349.512 69.3313L350.261 68.6687ZM346.972 62.1815C346.319 59.5027 345.987 55.9471 345.987 51.5H344.987C344.987 55.9862 345.321 59.6306 346.001 62.4185L346.972 62.1815ZM345.987 51.5C345.987 47.0919 346.743 42.8851 348.255 38.8764L347.319 38.5236C345.764 42.6482 344.987 46.9748 344.987 51.5H345.987ZM348.255 38.8764C349.766 34.868 351.898 31.4266 354.648 28.5452L353.925 27.8548C351.075 30.8401 348.874 34.3987 347.319 38.5236L348.255 38.8764ZM354.652 28.5414C360.278 22.5227 367.739 19.5 377.087 19.5V18.5C367.501 18.5 359.762 21.6107 353.921 27.8586L354.652 28.5414ZM377.087 19.5C380.432 19.5 383.291 20.0577 385.678 21.1543L386.095 20.2457C383.549 19.0756 380.541 18.5 377.087 18.5V19.5ZM385.936 21.1975L403.036 19.4975L402.937 18.5024L385.837 20.2024L385.936 21.1975ZM402.495 18.9068L395.095 57.9068L396.078 58.0932L403.478 19.0932L402.495 18.9068ZM395.102 57.8787C394.887 58.7377 394.787 59.9189 394.787 61.4H395.787C395.787 59.9478 395.887 58.8623 396.072 58.1213L395.102 57.8787ZM394.787 61.4C394.787 62.9724 395.255 64.3004 396.22 65.3402L396.953 64.6598C396.185 63.8329 395.787 62.761 395.787 61.4H394.787ZM396.233 65.3536C397.249 66.3698 398.491 66.9529 399.937 67.0975L400.036 66.1025C398.816 65.9804 397.791 65.4968 396.94 64.6464L396.233 65.3536ZM399.507 66.4589C398.885 68.5742 397.422 70.2775 395.049 71.5602L395.524 72.4398C398.085 71.0559 399.755 69.1592 400.466 66.7411L399.507 66.4589ZM395.044 71.5629C392.718 72.8552 390.235 73.5 387.587 73.5V74.5C390.405 74.5 393.056 73.8115 395.53 72.4371L395.044 71.5629ZM387.587 73.5C384.917 73.5 382.708 72.9792 380.935 71.9659L380.439 72.8341C382.399 73.9542 384.79 74.5 387.587 74.5V73.5ZM380.93 71.9629C379.226 71.0164 378.155 69.7459 377.665 68.153L376.709 68.447C377.285 70.3207 378.548 71.7836 380.444 72.8371L380.93 71.9629ZM376.766 68.0305C375.762 69.5992 374.178 70.9105 371.974 71.9476L372.4 72.8524C374.729 71.7562 376.478 70.3342 377.608 68.5695L376.766 68.0305ZM371.974 71.9476C369.787 72.9767 367.196 73.5 364.187 73.5V74.5C367.311 74.5 370.053 73.9566 372.4 72.8524L371.974 71.9476ZM364.187 73.5C361.231 73.5 358.551 73.1059 356.141 72.3244L355.832 73.2756C358.356 74.0941 361.142 74.5 364.187 74.5V73.5ZM356.141 72.3244C353.748 71.5482 351.79 70.3251 350.254 68.6609L349.519 69.3391C351.183 71.1416 353.293 72.4518 355.832 73.2756L356.141 72.3244ZM370.56 28.1393C369.798 29.3859 369.084 31.0602 368.411 33.1465L369.363 33.4535C370.023 31.4064 370.709 29.8141 371.413 28.6607L370.56 28.1393ZM368.412 33.1419C367.735 35.1735 366.83 38.9339 365.697 44.3985L366.676 44.6015C367.81 39.1327 368.705 35.4265 369.361 33.4581L368.412 33.1419ZM365.696 44.4031C364.626 49.8228 364.087 54.4904 364.087 58.4H365.087C365.087 54.5763 365.614 49.9772 366.677 44.5969L365.696 44.4031ZM364.087 58.4C364.087 60.3439 364.162 61.9573 364.315 63.2346C364.467 64.4984 364.7 65.4827 365.045 66.1339L365.929 65.6661C365.673 65.1839 365.457 64.3516 365.308 63.1154C365.161 61.8927 365.087 60.3227 365.087 58.4H364.087ZM365.045 66.1339C365.71 67.3913 366.694 68.1 367.987 68.1V67.1C367.146 67.1 366.463 66.6754 365.929 65.6661L365.045 66.1339ZM367.987 68.1C370.305 68.1 372.275 67.0025 373.884 64.9042L373.09 64.2958C371.632 66.1975 369.935 67.1 367.987 67.1V68.1ZM373.882 64.9061C375.549 62.7533 376.671 59.8332 377.28 56.1822L376.294 56.0178C375.702 59.5668 374.625 62.3134 373.091 64.2939L373.882 64.9061ZM377.279 56.189L382.579 26.889L381.595 26.711L376.295 56.011L377.279 56.189ZM382.412 26.4204C380.932 25.1516 379.286 24.5 377.487 24.5V25.5C379.021 25.5 380.442 26.0484 381.761 27.1796L382.412 26.4204ZM377.487 24.5C375.836 24.5 374.447 24.7743 373.351 25.3588L373.822 26.2412C374.726 25.7591 375.937 25.5 377.487 25.5V24.5ZM373.339 25.3659C372.319 25.9486 371.4 26.8791 370.571 28.1226L371.403 28.6773C372.174 27.5209 372.988 26.7181 373.835 26.2341L373.339 25.3659ZM465.88 37.8L465.538 37.4347L465.535 37.4375L465.88 37.8ZM440.68 40.7L440.976 40.2975L440.967 40.2905L440.957 40.284L440.68 40.7ZM437.68 37.9V37.4H436.68L437.28 38.2L437.68 37.9ZM448.78 33.5L448.402 33.1725L448.401 33.1732L448.78 33.5ZM440.58 11.7L440.482 11.2097L440.152 11.2757L440.089 11.6063L440.58 11.7ZM429.08 72V72.5H429.493L429.571 72.0937L429.08 72ZM407.38 72L406.888 71.9077L406.777 72.5H407.38V72ZM419.68 6.5L419.633 6.00217L419.258 6.03724L419.188 6.40772L419.68 6.5ZM436.58 5.4L436.588 5.89993L436.58 5.4ZM447.48 5.8C455.603 5.8 461.606 7.23672 465.566 10.0334C469.495 12.8076 471.48 16.967 471.48 22.6H472.48C472.48 16.6996 470.381 12.209 466.143 9.21656C461.937 6.24661 455.69 4.8 447.48 4.8V5.8ZM471.48 22.6C471.48 28.8158 469.489 33.7427 465.538 37.4347L466.221 38.1653C470.403 34.2573 472.48 29.0508 472.48 22.6H471.48ZM465.535 37.4375C461.651 41.1272 456.287 43 449.38 43V44C456.472 44 462.108 42.0728 466.224 38.1625L465.535 37.4375ZM449.38 43C446.215 43 443.42 42.0983 440.976 40.2975L440.383 41.1025C443.006 43.035 446.011 44 449.38 44V43ZM440.957 40.284C439.8 39.5128 438.843 38.6178 438.08 37.6L437.28 38.2C438.116 39.3156 439.159 40.2872 440.402 41.116L440.957 40.284ZM437.68 38.4C442.652 38.4 446.506 36.8972 449.158 33.8268L448.401 33.1732C445.986 35.9694 442.441 37.4 437.68 37.4V38.4ZM449.158 33.8275C451.866 30.7026 453.18 26.1661 453.18 20.3H452.18C452.18 26.0339 450.894 30.2974 448.402 33.1725L449.158 33.8275ZM453.18 20.3C453.18 17.3244 452.444 15.0005 450.885 13.4235C449.325 11.8454 447.025 11.1 444.08 11.1V12.1C446.868 12.1 448.867 12.8046 450.174 14.1265C451.482 15.4495 452.18 17.4756 452.18 20.3H453.18ZM444.08 11.1H441.68V12.1H444.08V11.1ZM441.68 11.1C441.252 11.1 440.852 11.1356 440.482 11.2097L440.678 12.1903C440.974 12.1311 441.307 12.1 441.68 12.1V11.1ZM440.089 11.6063L428.589 71.9063L429.571 72.0937L441.071 11.7937L440.089 11.6063ZM429.08 71.5H407.38V72.5H429.08V71.5ZM407.871 72.0923L420.171 6.59228L419.188 6.40772L406.888 71.9077L407.871 72.0923ZM419.726 6.99783C426.855 6.33163 432.473 5.9663 436.588 5.89993L436.572 4.90006C432.419 4.96703 426.771 5.33503 419.633 6.00217L419.726 6.99783ZM436.588 5.89993C440.719 5.8333 444.35 5.8 447.48 5.8V4.8C444.343 4.8 440.707 4.83336 436.572 4.90006L436.588 5.89993ZM476.742 69L476.368 69.3314L476.375 69.3391L476.742 69ZM473.342 62.3L472.856 62.4185L472.859 62.4296L473.342 62.3ZM474.642 38.7L475.11 38.8764L474.642 38.7ZM481.142 28.2L481.504 28.5453L481.507 28.5414L481.142 28.2ZM512.742 20.7L512.533 21.1543L512.657 21.211L512.792 21.1975L512.742 20.7ZM529.842 19L530.333 19.0932L530.458 18.4363L529.793 18.5024L529.842 19ZM522.442 58L522.927 58.1213L522.931 58.1073L522.933 58.0932L522.442 58ZM523.442 65L523.076 65.3402L523.082 65.347L523.089 65.3536L523.442 65ZM526.842 66.6L527.322 66.7411L527.492 66.1625L526.892 66.1025L526.842 66.6ZM522.142 72L521.904 71.5601L521.899 71.5629L522.142 72ZM507.542 72.4L507.79 71.9658L507.785 71.9629L507.542 72.4ZM504.042 68.3L504.52 68.153L504.203 67.1216L503.621 68.0305L504.042 68.3ZM499.042 72.4L499.255 72.8524L499.042 72.4ZM482.842 72.8L482.996 72.3244L482.842 72.8ZM497.842 28.4L497.426 28.1226L497.421 28.1309L497.416 28.1393L497.842 28.4ZM495.742 33.3L496.217 33.4581L496.218 33.4535L495.742 33.3ZM493.042 44.5L492.553 44.3985L492.552 44.4031L493.042 44.5ZM492.342 65.9L491.9 66.1339L492.342 65.9ZM500.342 64.6L499.947 64.2939L499.945 64.2958L500.342 64.6ZM503.642 56.1L503.15 56.011L503.149 56.0178L503.642 56.1ZM508.942 26.8L509.434 26.889L509.485 26.6069L509.268 26.4204L508.942 26.8ZM500.442 25.8L500.207 25.3588L500.2 25.3623L500.194 25.3659L500.442 25.8ZM477.117 68.6687C475.645 67.0048 474.543 64.8454 473.825 62.1704L472.859 62.4296C473.608 65.2212 474.773 67.5285 476.368 69.3313L477.117 68.6687ZM473.828 62.1815C473.175 59.5027 472.842 55.9471 472.842 51.5H471.842C471.842 55.9862 472.176 59.6306 472.856 62.4185L473.828 62.1815ZM472.842 51.5C472.842 47.0919 473.599 42.8851 475.11 38.8764L474.174 38.5236C472.619 42.6482 471.842 46.9748 471.842 51.5H472.842ZM475.11 38.8764C476.621 34.868 478.753 31.4266 481.504 28.5452L480.781 27.8548C477.931 30.8401 475.73 34.3987 474.174 38.5236L475.11 38.8764ZM481.507 28.5414C487.134 22.5227 494.595 19.5 503.942 19.5V18.5C494.357 18.5 486.617 21.6107 480.777 27.8586L481.507 28.5414ZM503.942 19.5C507.288 19.5 510.147 20.0577 512.533 21.1543L512.951 20.2457C510.404 19.0756 507.397 18.5 503.942 18.5V19.5ZM512.792 21.1975L529.892 19.4975L529.793 18.5024L512.693 20.2024L512.792 21.1975ZM529.351 18.9068L521.951 57.9068L522.933 58.0932L530.333 19.0932L529.351 18.9068ZM521.957 57.8787C521.742 58.7377 521.642 59.9189 521.642 61.4H522.642C522.642 59.9478 522.742 58.8623 522.927 58.1213L521.957 57.8787ZM521.642 61.4C521.642 62.9724 522.11 64.3004 523.076 65.3402L523.809 64.6598C523.041 63.8329 522.642 62.761 522.642 61.4H521.642ZM523.089 65.3536C524.105 66.3698 525.346 66.9529 526.792 67.0975L526.892 66.1025C525.672 65.9804 524.646 65.4968 523.796 64.6464L523.089 65.3536ZM526.362 66.4589C525.74 68.5742 524.277 70.2775 521.904 71.5602L522.38 72.4398C524.94 71.0559 526.611 69.1592 527.322 66.7411L526.362 66.4589ZM521.899 71.5629C519.573 72.8552 517.09 73.5 514.442 73.5V74.5C517.261 74.5 519.911 73.8115 522.385 72.4371L521.899 71.5629ZM514.442 73.5C511.773 73.5 509.564 72.9792 507.79 71.9659L507.294 72.8341C509.254 73.9542 511.645 74.5 514.442 74.5V73.5ZM507.785 71.9629C506.081 71.0164 505.01 69.7459 504.52 68.153L503.564 68.447C504.141 70.3207 505.403 71.7836 507.299 72.8371L507.785 71.9629ZM503.621 68.0305C502.617 69.5992 501.033 70.9105 498.829 71.9476L499.255 72.8524C501.585 71.7562 503.334 70.3342 504.463 68.5695L503.621 68.0305ZM498.829 71.9476C496.642 72.9767 494.051 73.5 491.042 73.5V74.5C494.166 74.5 496.909 73.9566 499.255 72.8524L498.829 71.9476ZM491.042 73.5C488.087 73.5 485.406 73.1059 482.996 72.3244L482.688 73.2756C485.212 74.0941 487.998 74.5 491.042 74.5V73.5ZM482.996 72.3244C480.603 71.5482 478.646 70.3251 477.11 68.6609L476.375 69.3391C478.039 71.1416 480.148 72.4518 482.688 73.2756L482.996 72.3244ZM497.416 28.1393C496.654 29.3859 495.939 31.0602 495.266 33.1465L496.218 33.4535C496.878 31.4064 497.564 29.8141 498.269 28.6607L497.416 28.1393ZM495.268 33.1419C494.591 35.1735 493.685 38.9339 492.553 44.3985L493.532 44.6015C494.666 39.1327 495.56 35.4265 496.217 33.4581L495.268 33.1419ZM492.552 44.4031C491.481 49.8228 490.942 54.4904 490.942 58.4H491.942C491.942 54.5763 492.47 49.9772 493.533 44.5969L492.552 44.4031ZM490.942 58.4C490.942 60.3439 491.017 61.9573 491.171 63.2346C491.322 64.4984 491.556 65.4827 491.9 66.1339L492.784 65.6661C492.529 65.1839 492.312 64.3516 492.164 63.1154C492.017 61.8927 491.942 60.3227 491.942 58.4H490.942ZM491.9 66.1339C492.566 67.3913 493.549 68.1 494.842 68.1V67.1C494.002 67.1 493.318 66.6754 492.784 65.6661L491.9 66.1339ZM494.842 68.1C497.16 68.1 499.13 67.0025 500.739 64.9042L499.945 64.2958C498.487 66.1975 496.791 67.1 494.842 67.1V68.1ZM500.738 64.9061C502.404 62.7533 503.527 59.8332 504.135 56.1822L503.149 56.0178C502.557 59.5668 501.48 62.3134 499.947 64.2939L500.738 64.9061ZM504.134 56.189L509.434 26.889L508.45 26.711L503.15 56.011L504.134 56.189ZM509.268 26.4204C507.787 25.1516 506.141 24.5 504.342 24.5V25.5C505.877 25.5 507.297 26.0484 508.617 27.1796L509.268 26.4204ZM504.342 24.5C502.692 24.5 501.303 24.7743 500.207 25.3588L500.677 26.2412C501.581 25.7591 502.792 25.5 504.342 25.5V24.5ZM500.194 25.3659C499.174 25.9486 498.255 26.8791 497.426 28.1226L498.258 28.6773C499.029 27.5209 499.843 26.7181 500.69 26.2341L500.194 25.3659ZM559.135 66.5L559.597 66.691L559.868 66.0352L559.16 66.0006L559.135 66.5ZM537.935 70.5L537.563 70.8338L537.566 70.8374L537.935 70.5ZM538.835 40.4L539.324 40.5044L539.326 40.4934L538.835 40.4ZM546.135 2L546.086 1.50241L545.714 1.53909L545.644 1.90662L546.135 2ZM566.435 -3.8147e-06L566.926 0.0941334L567.052 -0.563219L566.386 -0.497593L566.435 -3.8147e-06ZM556.735 50.6L557.222 50.7119L557.224 50.7031L557.226 50.6941L556.735 50.6ZM558.673 66.309C557.678 68.7159 556.148 70.5016 554.085 71.6919C552.015 72.8862 549.375 73.5 546.135 73.5V74.5C549.496 74.5 552.322 73.8638 554.585 72.5581C556.855 71.2484 558.525 69.2841 559.597 66.691L558.673 66.309ZM546.135 73.5C542.934 73.5 540.337 72.3862 538.304 70.1626L537.566 70.8374C539.8 73.2805 542.67 74.5 546.135 74.5V73.5ZM538.307 70.1662C536.641 68.3071 535.835 66.3552 535.835 64.3H534.835C534.835 66.6448 535.763 68.8262 537.563 70.8338L538.307 70.1662ZM535.835 64.3C535.835 59.3569 536.991 51.4348 539.324 40.5044L538.346 40.2956C536.012 51.2318 534.835 59.2431 534.835 64.3H535.835ZM539.326 40.4934L546.626 2.09337L545.644 1.90662L538.344 40.3066L539.326 40.4934ZM546.184 2.49759L566.484 0.497587L566.386 -0.497593L546.086 1.50241L546.184 2.49759ZM565.944 -0.0941391L556.244 50.5059L557.226 50.6941L566.926 0.0941334L565.944 -0.0941391ZM556.248 50.4881C555.116 55.413 554.535 58.8009 554.535 60.6H555.535C555.535 58.9324 556.087 55.6537 557.222 50.7119L556.248 50.4881ZM554.535 60.6C554.535 62.5469 554.883 64.1072 555.65 65.2103C556.435 66.3404 557.614 66.9264 559.111 66.9994L559.16 66.0006C557.923 65.9403 557.052 65.4763 556.471 64.6397C555.871 63.7762 555.535 62.4531 555.535 60.6H554.535Z" fill="white"/>
</g>
<defs>
<filter id="filter0_dii_20_13" x="0.742981" y="0" width="569.692" height="82" filterUnits="userSpaceOnUse" color-interpolation-filters="sRGB">
<feFlood flood-opacity="0" result="BackgroundImageFix"/>
<feColorMatrix in="SourceAlpha" type="matrix" values="0 0 0 0 0 0 0 0 0 0 0 0 0 0 0 0 0 0 127 0" result="hardAlpha"/>
<feOffset dy="4"/>
<feGaussianBlur stdDeviation="2"/>
<feComposite in2="hardAlpha" operator="out"/>
<feColorMatrix type="matrix" values="0 0 0 0 0 0 0 0 0 0 0 0 0 0 0 0 0 0 0.25 0"/>
<feBlend mode="normal" in2="BackgroundImageFix" result="effect1_dropShadow_20_13"/>
<feBlend mode="normal" in="SourceGraphic" in2="effect1_dropShadow_20_13" result="shape"/>
<feColorMatrix in="SourceAlpha" type="matrix" values="0 0 0 0 0 0 0 0 0 0 0 0 0 0 0 0 0 0 127 0" result="hardAlpha"/>
<feOffset dx="-3.8" dy="4"/>
<feGaussianBlur stdDeviation="2"/>
<feComposite in2="hardAlpha" operator="arithmetic" k2="-1" k3="1"/>
<feColorMatrix type="matrix" values="0 0 0 0 1 0 0 0 0 1 0 0 0 0 1 0 0 0 0.25 0"/>
<feBlend mode="normal" in2="shape" result="effect2_innerShadow_20_13"/>
<feColorMatrix in="SourceAlpha" type="matrix" values="0 0 0 0 0 0 0 0 0 0 0 0 0 0 0 0 0 0 127 0" result="hardAlpha"/>
<feOffset dx="3" dy="5"/>
<feGaussianBlur stdDeviation="1.5"/>
<feComposite in2="hardAlpha" operator="arithmetic" k2="-1" k3="1"/>
<feColorMatrix type="matrix" values="0 0 0 0 0 0 0 0 0 0 0 0 0 0 0 0 0 0 0.25 0"/>
<feBlend mode="normal" in2="effect2_innerShadow_20_13" result="effect3_innerShadow_20_13"/>
</filter>
</defs>
</svg>
