<svg width="272" height="45" viewBox="0 0 272 45" fill="none" xmlns="http://www.w3.org/2000/svg">
<g filter="url(#filter0_dii_20_14)">
<path d="M4.94923 6.17552C5.39501 5.27842 6.09731 4.58868 7.05613 4.10631C8.04686 3.59187 9.21422 3.33299 10.5582 3.32967C12.6702 3.32446 14.3521 4.08831 15.6039 5.62122C16.8876 7.12206 17.5336 9.53647 17.5418 12.8645L17.5841 30.0004L28.5125 4.24536L34.1765 4.23138L35.5325 28.5161L35.3919 29.9085L46.7525 4.20035L53.3285 4.18412L38.0466 35.8539L27.8226 35.8792L26.8266 21.2896L20.5266 35.8972L8.95866 35.9257L7.4618 12.8893C7.36154 11.1616 7.07003 9.7383 6.58726 8.61949C6.13642 7.4686 5.59041 6.65394 4.94923 6.17552ZM69.9768 27.6631C70.7782 28.2051 71.1803 29.0841 71.1833 30.3001C71.1863 31.4841 70.8847 32.4609 70.2786 33.2304C69.6725 33.9999 68.8741 34.6418 67.8833 35.1563C65.8379 36.2173 63.7112 36.7506 61.5032 36.756C59.2953 36.7615 57.5347 36.5258 56.2215 36.0491C54.9403 35.5722 53.8666 34.8869 53.0004 33.993C51.3002 32.3012 50.4463 29.9033 50.4386 26.7993C50.4267 21.9673 51.7291 18.0761 54.3458 15.1256C57.154 11.9507 61.0061 10.3572 65.9021 10.3451C68.9421 10.3376 71.2156 10.972 72.7228 12.2483C73.8452 13.2055 74.4083 14.4681 74.4122 16.0361C74.4261 21.6681 69.569 24.4961 59.841 24.5201C59.7151 25.3524 59.653 26.1206 59.6547 26.8246C59.6584 28.2966 59.9809 29.3198 60.6223 29.8942C61.2956 30.4365 62.2403 30.7062 63.4563 30.7032C64.6723 30.7002 65.9196 30.4251 67.1983 29.878C68.5089 29.2987 69.435 28.5604 69.9768 27.6631ZM60.1719 22.4553C62.4439 22.4497 64.2342 21.7413 65.5427 20.33C66.8514 18.9828 67.5031 17.2372 67.4978 15.0932C67.496 14.3572 67.3506 13.7975 67.0617 13.4143C66.8046 12.9989 66.4041 12.7919 65.8601 12.7932C65.3161 12.7946 64.8044 12.9078 64.325 13.133C63.8774 13.3261 63.4145 13.7753 62.9363 14.4804C61.7562 16.0834 60.8348 18.7416 60.1719 22.4553ZM87.5692 33.0917C86.5831 35.4941 84.5061 36.6993 81.3381 36.7071C79.7381 36.711 78.4247 36.1543 77.3979 35.0368C76.5636 34.1109 76.1452 33.1199 76.1426 32.0639C76.1367 29.6639 76.6872 25.8385 77.7943 20.5878L81.2528 2.14719L90.9944 1.16315L86.3983 25.4626C85.8602 27.8319 85.5921 29.4326 85.5942 30.2646C85.5987 32.0886 86.257 33.0309 87.5692 33.0917ZM115.185 15.6955C115.188 17.0395 114.631 18.1289 113.513 18.9636C112.395 19.7984 110.924 20.218 109.1 20.2225C108.332 20.2244 107.724 20.1139 107.275 19.891C107.625 19.0582 107.847 18.1296 107.94 17.1054C108.066 16.0491 108.128 15.3769 108.127 15.0889C108.124 13.7449 107.658 13.0741 106.73 13.0764C106.09 13.0779 105.403 13.4796 104.669 14.2814C103.967 15.0832 103.314 16.1088 102.709 17.3583C101.372 20.2416 100.707 23.1392 100.714 26.0512C100.718 27.6512 101.025 28.8185 101.635 29.553C102.245 30.2555 103.222 30.6051 104.566 30.6017C106.422 30.5972 108.084 29.8251 109.552 28.2854C109.967 27.8044 110.285 27.2916 110.508 26.7471C111.726 27.3841 112.337 28.5826 112.341 30.3426C112.345 32.1346 111.357 33.625 109.376 34.8139C107.331 36.0349 104.676 36.6495 101.412 36.6575C94.9165 36.6736 91.66 33.2416 91.6431 26.3616C91.6307 21.3376 93.0449 17.3821 95.8858 14.4951C98.6308 11.6723 102.531 10.2547 107.587 10.2422C112.643 10.2297 115.176 12.0475 115.185 15.6955ZM126.976 36.5945C119.936 36.6118 116.408 33.3085 116.392 26.6845C116.38 21.9806 117.667 18.1054 120.251 15.059C122.995 11.8202 126.751 10.1949 131.519 10.1832C134.975 10.1746 137.585 10.9682 139.349 12.5638C141.113 14.1595 141.999 16.6373 142.007 19.9973C142.02 25.1173 140.654 29.1687 137.909 32.1515C135.229 35.1021 131.584 36.5831 126.976 36.5945ZM128.173 15.7114C127.791 16.5764 127.441 17.6653 127.125 18.978C126.84 20.2587 126.508 21.9236 126.129 23.9725C125.75 26.0215 125.564 28.3099 125.57 30.8379C125.572 31.6699 125.702 32.3576 125.959 32.901C126.248 33.4442 126.761 33.715 127.497 33.7132C128.233 33.7113 128.825 33.5339 129.272 33.1808C129.751 32.8276 130.165 32.2346 130.515 31.4017C131.152 29.9281 131.723 27.8307 132.228 25.1095C132.733 22.3562 133 20.3875 133.029 19.2035C133.09 18.0193 133.12 16.9952 133.118 16.1312C133.115 15.2352 132.986 14.4996 132.728 13.9242C132.471 13.3488 131.974 13.062 131.238 13.0639C130.534 13.0656 129.943 13.2911 129.464 13.7402C128.985 14.1894 128.555 14.8465 128.173 15.7114ZM179.431 36.465C175.559 36.4746 173.62 34.9753 173.612 31.9673C173.609 30.6554 173.876 28.7347 174.414 26.2054C174.984 23.6439 175.363 21.851 175.553 20.8265C175.995 18.4894 176.215 16.9529 176.213 16.2169C176.209 14.5849 175.599 13.7704 174.383 13.7734C173.583 13.7754 172.801 14.3373 172.036 15.4592C171.27 16.5491 170.714 18.1985 170.368 20.4073L167.429 35.5346L158.071 36.5177L160.631 23.4554C160.916 22.0147 161.184 20.478 161.436 18.8454C161.688 17.2127 161.813 16.2684 161.813 16.0124C161.809 14.5404 161.263 13.8058 160.175 13.8085C159.439 13.8103 158.673 14.3562 157.875 15.4461C157.078 16.5361 156.458 18.2016 156.016 20.4427L153.125 35.5699L143.671 36.5533L148.649 11.1009L156.47 10.1216L155.666 14.9716C156.494 13.2415 157.675 12.0066 159.209 11.2668C160.743 10.495 162.71 10.1062 165.11 10.1003C166.486 10.0969 167.623 10.4301 168.521 11.0998C169.418 11.7696 170.013 12.6482 170.303 13.7355C170.844 12.6141 171.802 11.7318 173.177 11.0884C174.583 10.4129 176.134 10.0731 177.83 10.0689C179.558 10.0646 180.839 10.2534 181.672 10.6354C182.537 10.9853 183.226 11.4636 183.739 12.0703C184.606 13.1882 185.042 14.7711 185.047 16.8191C185.052 18.8351 184.628 21.9401 183.774 26.1343C183.331 28.1833 183.11 29.5919 183.112 30.3599C183.114 31.0959 183.324 31.6874 183.741 32.1344C184.19 32.5812 184.734 32.8359 185.375 32.8983C185.057 33.9871 184.339 34.8529 183.221 35.4956C182.135 36.1383 180.871 36.4614 179.431 36.465ZM208.492 27.3213C209.293 27.8633 209.696 28.7423 209.699 29.9583C209.701 31.1423 209.4 32.119 208.794 32.8885C208.188 33.658 207.389 34.3 206.399 34.8144C204.353 35.8755 202.226 36.4087 200.018 36.4142C197.81 36.4196 196.05 36.184 194.737 35.7072C193.456 35.2304 192.382 34.545 191.516 33.6512C189.815 31.9594 188.962 29.5615 188.954 26.4575C188.942 21.6255 190.244 17.7343 192.861 14.7838C195.669 11.6088 199.521 10.0153 204.417 10.0033C207.457 9.99575 209.731 10.6301 211.238 11.9064C212.36 12.8637 212.923 14.1263 212.927 15.6943C212.941 21.3263 208.084 24.1542 198.356 24.1783C198.23 25.0106 198.168 25.7787 198.17 26.4827C198.174 27.9547 198.496 28.9779 199.138 29.5523C199.811 30.0947 200.756 30.3644 201.972 30.3614C203.188 30.3584 204.435 30.0833 205.713 29.5361C207.024 28.9569 207.95 28.2186 208.492 27.3213ZM198.687 22.1134C200.959 22.1078 202.749 21.3994 204.058 19.9882C205.367 18.6409 206.018 16.8953 206.013 14.7513C206.011 14.0153 205.866 13.4557 205.577 13.0724C205.32 12.657 204.919 12.45 204.375 12.4514C203.831 12.4527 203.32 12.566 202.84 12.7912C202.393 12.9843 201.93 13.4334 201.451 14.1386C200.271 15.7415 199.35 18.3998 198.687 22.1134ZM225.266 30.5919C225.264 29.7279 225.484 28.2073 225.926 26.0302L228.438 13.064L225.606 13.071L225.795 11.6305C229.632 10.469 233.403 8.47571 237.108 5.65056L239.412 5.64487L238.273 10.8797L242.017 10.8705L241.59 13.0315L237.894 13.0406L235.478 26.0066C235.067 27.9917 234.863 29.3202 234.864 29.9922C234.868 31.5282 235.542 32.4545 236.887 32.7712C236.57 33.86 235.836 34.7258 234.685 35.3686C233.535 36.0115 232.144 36.3349 230.512 36.3389C228.88 36.343 227.599 35.8341 226.668 34.8124C225.738 33.7907 225.27 32.3839 225.266 30.5919ZM252.132 36.2856C245.092 36.303 241.564 32.9996 241.548 26.3757C241.536 21.6717 242.822 17.7965 245.407 14.7501C248.151 11.5113 251.907 9.88605 256.675 9.87428C260.131 9.86575 262.741 10.6593 264.505 12.255C266.269 13.8506 267.155 16.3284 267.163 19.6884C267.176 24.8084 265.81 28.8598 263.065 31.8426C260.384 34.7932 256.74 36.2742 252.132 36.2856ZM253.329 15.4026C252.947 16.2675 252.597 17.3564 252.281 18.6692C251.996 19.9499 251.664 21.6147 251.285 23.6636C250.906 25.7126 250.72 28.001 250.726 30.529C250.728 31.361 250.858 32.0487 251.115 32.5921C251.404 33.1354 251.917 33.4061 252.653 33.4043C253.389 33.4025 253.98 33.225 254.428 32.8719C254.907 32.5187 255.321 31.9257 255.671 31.0928C256.308 29.6193 256.878 27.5218 257.384 24.8006C257.889 22.0473 258.156 20.0787 258.185 18.8946C258.246 17.7104 258.276 16.6864 258.274 15.8224C258.271 14.9264 258.142 14.1907 257.884 13.6153C257.627 13.0399 257.13 12.7532 256.394 12.755C255.69 12.7567 255.099 12.9822 254.62 13.4314C254.141 13.8805 253.71 14.5376 253.329 15.4026Z" fill="#D8572A" fill-opacity="0.69" shape-rendering="crispEdges"/>
<path d="M4.94922 6.17552L4.0537 5.73052L3.68231 6.4779L4.3512 6.977L4.94922 6.17552ZM7.05612 4.10631L7.50558 4.99971L7.51696 4.9938L7.05612 4.10631ZM15.6039 5.62122L14.8293 6.25373L14.8365 6.26256L14.844 6.27122L15.6039 5.62122ZM17.5841 30.0004L16.5841 30.0029L18.5046 30.391L17.5841 30.0004ZM28.5125 4.24536L28.5101 3.24536L27.8499 3.24699L27.592 3.85475L28.5125 4.24536ZM34.1765 4.23138L35.175 4.17563L35.1221 3.22905L34.1741 3.23139L34.1765 4.23138ZM35.5325 28.5161L36.5274 28.6166L36.5353 28.5386L36.5309 28.4604L35.5325 28.5161ZM35.3919 29.9085L34.3969 29.808L36.3066 30.3127L35.3919 29.9085ZM46.7525 4.20035L46.75 3.20035L46.1004 3.20195L45.8378 3.79615L46.7525 4.20035ZM53.3285 4.18412L54.2291 4.6187L54.9232 3.18018L53.326 3.18412L53.3285 4.18412ZM38.0466 35.8539L38.049 36.8539L38.6751 36.8524L38.9472 36.2885L38.0466 35.8539ZM27.8226 35.8792L26.8249 35.9473L26.8887 36.8815L27.8251 36.8792L27.8226 35.8792ZM26.8266 21.2896L27.8243 21.2215L25.9083 20.8936L26.8266 21.2896ZM20.5266 35.8972L20.5291 36.8972L21.1851 36.8955L21.4449 36.2932L20.5266 35.8972ZM8.95866 35.9257L7.96077 35.9906L8.02168 36.928L8.96113 36.9257L8.95866 35.9257ZM7.4618 12.8893L6.46346 12.9473L6.46391 12.9542L7.4618 12.8893ZM6.58727 8.61949L5.65616 8.98423L5.66236 9.00006L5.6691 9.01567L6.58727 8.61949ZM5.84476 6.62053C6.18719 5.93141 6.72534 5.39215 7.50555 4.99963L6.60671 3.21299C5.46928 3.78522 4.60284 4.62543 4.0537 5.73052L5.84476 6.62053ZM7.51696 4.9938C8.33998 4.56644 9.34402 4.33267 10.5607 4.32967L10.5558 2.32967C9.08443 2.3333 7.75374 2.6173 6.59529 3.21883L7.51696 4.9938ZM10.5607 4.32967C12.3948 4.32514 13.7822 4.97145 14.8293 6.25373L16.3785 4.98872C14.922 3.20516 12.9457 2.32377 10.5558 2.32967L10.5607 4.32967ZM14.844 6.27122C15.898 7.5035 16.5338 9.62675 16.5418 12.8669L18.5418 12.862C18.5333 9.44619 17.8772 6.74062 16.3638 4.97123L14.844 6.27122ZM16.5418 12.8669L16.5841 30.0029L18.5841 29.9979L18.5418 12.862L16.5418 12.8669ZM18.5046 30.391L29.4331 4.63597L27.592 3.85475L16.6635 29.6098L18.5046 30.391ZM28.515 5.24536L34.179 5.23138L34.1741 3.23139L28.5101 3.24536L28.515 5.24536ZM33.1781 4.28713L34.534 28.5719L36.5309 28.4604L35.175 4.17563L33.1781 4.28713ZM34.5375 28.4157L34.3969 29.808L36.3868 30.0089L36.5274 28.6166L34.5375 28.4157ZM36.3066 30.3127L47.6671 4.60454L45.8378 3.79615L34.4772 29.5043L36.3066 30.3127ZM46.755 5.20034L53.3309 5.18411L53.326 3.18412L46.75 3.20035L46.755 5.20034ZM52.4278 3.74953L37.1459 35.4193L38.9472 36.2885L54.2291 4.6187L52.4278 3.74953ZM38.0441 34.8539L27.8201 34.8792L27.8251 36.8792L38.049 36.8539L38.0441 34.8539ZM28.8203 35.8111L27.8243 21.2215L25.8289 21.3577L26.8249 35.9473L28.8203 35.8111ZM25.9083 20.8936L19.6084 35.5011L21.4449 36.2932L27.7448 21.6856L25.9083 20.8936ZM20.5242 34.8972L8.9562 34.9257L8.96113 36.9257L20.5291 36.8972L20.5242 34.8972ZM9.95655 35.8609L8.4597 12.8245L6.46391 12.9542L7.96077 35.9906L9.95655 35.8609ZM8.46012 12.8314C8.35571 11.0321 8.04946 9.4841 7.50543 8.2233L5.6691 9.01567C6.09059 9.9925 6.36737 11.2911 6.46349 12.9473L8.46012 12.8314ZM7.51837 8.25474C7.03362 7.0173 6.39864 6.00931 5.54725 5.37404L4.3512 6.977C4.78218 7.29857 5.23922 7.91989 5.65616 8.98423L7.51837 8.25474ZM69.9768 27.6631L70.5371 26.8348L69.665 26.2449L69.1208 27.1462L69.9768 27.6631ZM70.2786 33.2304L71.0641 33.8491L70.2786 33.2304ZM67.8833 35.1563L68.3438 36.044L68.3442 36.0438L67.8833 35.1563ZM56.2215 36.0491L55.8727 36.9863L55.8802 36.989L56.2215 36.0491ZM53.0004 33.993L53.7185 33.2971L53.7122 33.2906L53.7058 33.2842L53.0004 33.993ZM54.3458 15.1256L55.094 15.7892L55.0949 15.7882L54.3458 15.1256ZM72.7228 12.2483L73.3717 11.4874L73.369 11.4851L72.7228 12.2483ZM59.841 24.5201L59.8386 23.5201L58.9807 23.5222L58.8523 24.3705L59.841 24.5201ZM60.6223 29.8942L59.9552 30.6391L59.9747 30.6566L59.995 30.673L60.6223 29.8942ZM67.1983 29.878L67.5917 30.7974L67.6025 30.7926L67.1983 29.878ZM60.172 22.4553L59.1875 22.2796L58.9771 23.4582L60.1744 23.4553L60.172 22.4553ZM65.5427 20.33L64.8254 19.6333L64.8173 19.6416L64.8094 19.6501L65.5427 20.33ZM67.0617 13.4143L66.2113 13.9405L66.2355 13.9795L66.2631 14.0162L67.0617 13.4143ZM64.325 13.133L64.7211 14.0512L64.7357 14.0449L64.7501 14.0381L64.325 13.133ZM62.9363 14.4804L63.7416 15.0733L63.753 15.0577L63.7639 15.0417L62.9363 14.4804ZM69.4166 28.4914C69.8728 28.8 70.1809 29.3218 70.1833 30.3026L72.1833 30.2977C72.1798 28.8465 71.6836 27.6103 70.5371 26.8348L69.4166 28.4914ZM70.1833 30.3026C70.1858 31.3099 69.9323 32.0538 69.493 32.6116L71.0641 33.8491C71.837 32.8679 72.1867 31.6584 72.1833 30.2977L70.1833 30.3026ZM69.493 32.6116C68.9863 33.2549 68.3047 33.8107 67.4225 34.2688L68.3442 36.0438C69.4434 35.473 70.3586 34.7449 71.0641 33.8491L69.493 32.6116ZM67.4228 34.2686C65.5126 35.2596 63.5423 35.751 61.5008 35.756L61.5057 37.756C63.8802 37.7502 66.1632 37.1751 68.3438 36.044L67.4228 34.2686ZM61.5008 35.756C59.35 35.7614 57.7208 35.5295 56.5627 35.1091L55.8802 36.989C57.3486 37.5221 59.2405 37.7616 61.5057 37.756L61.5008 35.756ZM56.5703 35.1119C55.4148 34.6818 54.4713 34.0739 53.7185 33.2971L52.2823 34.6889C53.2619 35.6999 54.4658 36.4627 55.8727 36.9863L56.5703 35.1119ZM53.7058 33.2842C52.2443 31.83 51.4458 29.7171 51.4386 26.7968L49.4386 26.8018C49.4468 30.0896 50.3561 32.7725 52.295 34.7019L53.7058 33.2842ZM51.4386 26.7968C51.4272 22.1525 52.6747 18.517 55.094 15.7892L53.5977 14.4621C50.7835 17.6352 49.4263 21.7822 49.4386 26.8018L51.4386 26.7968ZM55.0949 15.7882C57.6837 12.8613 61.2453 11.3566 65.9045 11.3451L65.8996 9.34511C60.7669 9.35777 56.6244 11.0401 53.5968 14.4631L55.0949 15.7882ZM65.9045 11.3451C68.8294 11.3379 70.8262 11.9526 72.0766 13.0114L73.369 11.4851C71.6051 9.99143 69.0547 9.33732 65.8996 9.34511L65.9045 11.3451ZM72.0739 13.0091C72.9587 13.7638 73.409 14.7416 73.4122 16.0386L75.4121 16.0337C75.4076 14.1946 74.7316 12.6472 73.3717 11.4874L72.0739 13.0091ZM73.4122 16.0386C73.4182 18.4987 72.396 20.2829 70.2766 21.5169C68.0743 22.7992 64.6388 23.5083 59.8386 23.5201L59.8435 25.5201C64.7712 25.5079 68.6283 24.791 71.283 23.2453C74.0207 21.6513 75.42 19.2056 75.4121 16.0337L73.4122 16.0386ZM58.8523 24.3705C58.7202 25.2437 58.6529 26.0634 58.6547 26.827L60.6547 26.8221C60.6531 26.1777 60.71 25.4611 60.8298 24.6697L58.8523 24.3705ZM58.6547 26.827C58.6586 28.3914 58.9931 29.7775 59.9552 30.6391L61.2894 29.1493C60.9687 28.862 60.6581 28.2018 60.6547 26.8221L58.6547 26.827ZM59.995 30.673C60.907 31.4075 62.1053 31.7065 63.4588 31.7032L63.4538 29.7032C62.3754 29.7059 61.6843 29.4656 61.2496 29.1154L59.995 30.673ZM63.4588 31.7032C64.8272 31.6998 66.2071 31.3898 67.5917 30.7973L66.8049 28.9586C65.6321 29.4604 64.5175 29.7006 63.4538 29.7032L63.4588 31.7032ZM67.6025 30.7926C69.0337 30.1601 70.1523 29.3071 70.8329 28.18L69.1208 27.1462C68.7177 27.8138 67.9841 28.4374 66.794 28.9633L67.6025 30.7926ZM60.1744 23.4553C62.6694 23.4491 64.7447 22.6614 66.276 21.0099L64.8094 19.6501C63.7237 20.8211 62.2185 21.4502 60.1695 21.4553L60.1744 23.4553ZM66.26 21.0268C67.7767 19.4655 68.5036 17.4558 68.4978 15.0907L66.4978 15.0956C66.5025 17.0186 65.9261 18.5001 64.8254 19.6333L66.26 21.0268ZM68.4978 15.0907C68.4957 14.2471 68.3324 13.4386 67.8602 12.8123L66.2631 14.0162C66.3688 14.1564 66.4963 14.4673 66.4978 15.0956L68.4978 15.0907ZM67.912 12.8881C67.4488 12.1394 66.7018 11.7911 65.8576 11.7932L65.8626 13.7932C66.1064 13.7926 66.1605 13.8584 66.2113 13.9405L67.912 12.8881ZM65.8576 11.7932C65.1716 11.7949 64.5152 11.9389 63.8998 12.2279L64.7501 14.0381C65.0936 13.8768 65.4607 13.7942 65.8626 13.7932L65.8576 11.7932ZM63.9288 12.2148C63.2192 12.521 62.6237 13.1597 62.1087 13.9191L63.7639 15.0417C64.2053 14.3908 64.5357 14.1312 64.7211 14.0512L63.9288 12.2148ZM62.131 13.8876C60.8107 15.681 59.8573 18.5268 59.1875 22.2796L61.1564 22.631C61.8122 18.9564 62.7018 16.4857 63.7416 15.0733L62.131 13.8876ZM87.5692 33.0917L88.4943 33.4714L89.0332 32.1584L87.6154 32.0928L87.5692 33.0917ZM77.3979 35.0368L76.655 35.7062L76.6616 35.7134L77.3979 35.0368ZM77.7943 20.5878L78.7728 20.7941L78.7751 20.7831L78.7771 20.7721L77.7943 20.5878ZM81.2528 2.14719L81.1523 1.15226L80.4078 1.22746L80.2699 1.96286L81.2528 2.14719ZM90.9944 1.16315L91.977 1.349L92.2257 0.0336747L90.8939 0.168212L90.9944 1.16315ZM86.3983 25.4626L87.3735 25.6841L87.3775 25.6663L87.3809 25.6484L86.3983 25.4626ZM86.644 32.712C86.2275 33.7269 85.6019 34.4497 84.77 34.9324C83.9241 35.4232 82.7985 35.7035 81.3356 35.7071L81.3405 37.7071C83.0456 37.7029 84.5425 37.3767 85.7737 36.6623C87.0188 35.9399 87.9248 34.8589 88.4943 33.4714L86.644 32.712ZM81.3356 35.7071C79.9991 35.7104 78.9598 35.2586 78.1343 34.3602L76.6616 35.7134C77.8896 37.0499 79.477 37.7117 81.3405 37.7071L81.3356 35.7071ZM78.1408 34.3674C77.44 33.5896 77.1445 32.8278 77.1426 32.0614L75.1426 32.0664C75.1459 33.412 75.6873 34.6321 76.655 35.7062L78.1408 34.3674ZM77.1426 32.0614C77.1369 29.7753 77.6669 26.0391 78.7728 20.7941L76.8158 20.3815C75.7075 25.638 75.1364 29.5525 75.1426 32.0664L77.1426 32.0614ZM78.7771 20.7721L82.2356 2.33153L80.2699 1.96286L76.8114 20.4035L78.7771 20.7721ZM81.3533 3.14213L91.0949 2.15809L90.8939 0.168212L81.1523 1.15226L81.3533 3.14213ZM90.0118 0.977302L85.4157 25.2767L87.3809 25.6484L91.977 1.349L90.0118 0.977302ZM85.4232 25.2411C84.8888 27.5936 84.5918 29.3035 84.5942 30.267L86.5942 30.2621C86.5924 29.5617 86.8315 28.0702 87.3735 25.6841L85.4232 25.2411ZM84.5942 30.267C84.5967 31.2728 84.7752 32.2016 85.2715 32.912C85.8054 33.6762 86.607 34.0482 87.5229 34.0906L87.6154 32.0928C87.2191 32.0744 87.0356 31.9449 86.9111 31.7667C86.749 31.5347 86.5962 31.0804 86.5942 30.2621L84.5942 30.267ZM107.275 19.891L106.353 19.5037L105.99 20.3689L106.83 20.7866L107.275 19.891ZM107.94 17.1054L106.947 16.9875L106.946 17.001L106.944 17.0145L107.94 17.1054ZM104.669 14.2814L103.932 13.6062L103.924 13.6144L103.917 13.6227L104.669 14.2814ZM102.709 17.3583L101.809 16.9225L101.805 16.9301L101.802 16.9376L102.709 17.3583ZM101.635 29.553L100.866 30.1918L100.873 30.2002L100.88 30.2085L101.635 29.553ZM109.552 28.2854L110.276 28.9756L110.293 28.9574L110.309 28.9385L109.552 28.2854ZM110.508 26.7471L110.972 25.861L109.998 25.3518L109.582 26.3686L110.508 26.7471ZM109.376 34.8139L109.889 35.6725L109.891 35.6713L109.376 34.8139ZM95.8858 14.4951L96.5986 15.1965L96.6027 15.1923L95.8858 14.4951ZM114.185 15.698C114.187 16.7117 113.79 17.5084 112.915 18.1624L114.111 19.7649C115.471 18.7493 116.189 17.3673 116.185 15.693L114.185 15.698ZM112.915 18.1624C112.015 18.8341 110.773 19.2184 109.097 19.2225L109.102 21.2225C111.075 21.2177 112.775 20.7627 114.111 19.7649L112.915 18.1624ZM109.097 19.2225C108.41 19.2242 107.975 19.1222 107.72 18.9955L106.83 20.7866C107.472 21.1056 108.254 21.2246 109.102 21.2225L109.097 19.2225ZM108.197 20.2784C108.592 19.339 108.835 18.3086 108.936 17.1963L106.944 17.0145C106.859 17.9506 106.658 18.7773 106.353 19.5037L108.197 20.2784ZM108.933 17.2233C109.056 16.1861 109.128 15.4477 109.127 15.0864L107.127 15.0914C107.128 15.3062 107.075 15.912 106.947 16.9875L108.933 17.2233ZM109.127 15.0864C109.125 14.3303 108.999 13.5862 108.597 13.0076C108.149 12.3621 107.468 12.0745 106.728 12.0764L106.733 14.0763C106.844 14.0761 106.893 14.0958 106.907 14.1025C106.916 14.1068 106.931 14.1142 106.954 14.148C107.018 14.2402 107.126 14.5035 107.127 15.0914L109.127 15.0864ZM106.728 12.0764C105.665 12.079 104.729 12.735 103.932 13.6062L105.407 14.9567C106.077 14.2243 106.516 14.0769 106.733 14.0763L106.728 12.0764ZM103.917 13.6227C103.141 14.5086 102.442 15.6153 101.809 16.9225L103.609 17.794C104.186 16.6023 104.793 15.6578 105.422 14.9402L103.917 13.6227ZM101.802 16.9376C100.409 19.9412 99.7067 22.9826 99.7143 26.0537L101.714 26.0488C101.708 23.2959 102.335 20.542 103.616 17.7789L101.802 16.9376ZM99.7143 26.0537C99.7185 27.7418 100.036 29.1922 100.866 30.1918L102.404 28.9142C102.015 28.4448 101.718 27.5607 101.714 26.0488L99.7143 26.0537ZM100.88 30.2085C101.753 31.214 103.066 31.6054 104.568 31.6017L104.563 29.6017C103.377 29.6047 102.737 29.297 102.39 28.8975L100.88 30.2085ZM104.568 31.6017C106.737 31.5964 108.649 30.6809 110.276 28.9756L108.828 27.5953C107.518 28.9692 106.106 29.5979 104.563 29.6017L104.568 31.6017ZM110.309 28.9385C110.789 28.3822 111.167 27.7778 111.434 27.1255L109.582 26.3686C109.404 26.8055 109.144 27.2267 108.795 27.6324L110.309 28.9385ZM110.045 27.6331C110.837 28.0478 111.337 28.8338 111.341 30.345L113.341 30.3401C113.336 28.3314 112.614 26.7203 110.972 25.861L110.045 27.6331ZM111.341 30.345C111.344 31.6821 110.641 32.8887 108.861 33.9564L109.891 35.6713C112.074 34.3613 113.346 32.587 113.341 30.3401L111.341 30.345ZM108.863 33.9553C107.019 35.0562 104.558 35.6498 101.41 35.6575L101.415 37.6575C104.795 37.6492 107.642 37.0137 109.889 35.6725L108.863 33.9553ZM101.41 35.6575C98.3313 35.6651 96.2001 34.858 94.8236 33.4073C93.4368 31.9458 92.6512 29.6589 92.6431 26.3592L90.6431 26.3641C90.6519 29.9444 91.503 32.8134 93.3727 34.7839C95.2527 36.7651 97.9977 37.666 101.415 37.6575L101.41 35.6575ZM92.6431 26.3592C92.6311 21.5316 93.9845 17.853 96.5986 15.1965L95.173 13.7937C92.1053 16.9112 90.6302 21.1437 90.6431 26.3641L92.6431 26.3592ZM96.6027 15.1923C99.1106 12.6134 102.723 11.2542 107.59 11.2422L107.585 9.24223C102.34 9.25517 98.1511 10.7313 95.1689 13.798L96.6027 15.1923ZM107.59 11.2422C110.027 11.2362 111.677 11.6772 112.696 12.4086C113.654 13.0965 114.181 14.1328 114.185 15.698L116.185 15.693C116.18 13.6102 115.436 11.9137 113.862 10.7838C112.348 9.69739 110.203 9.23577 107.585 9.24223L107.59 11.2422ZM120.251 15.059L121.014 15.7059L121.014 15.7054L120.251 15.059ZM137.909 32.1515L137.173 31.4743L137.169 31.479L137.909 32.1515ZM127.125 18.978L126.153 18.7435L126.15 18.7522L126.149 18.7609L127.125 18.978ZM126.129 23.9725L125.146 23.7906L126.129 23.9725ZM125.959 32.901L125.055 33.329L125.065 33.3503L125.076 33.371L125.959 32.901ZM129.272 33.1808L128.678 32.3758L128.665 32.3857L128.652 32.396L129.272 33.1808ZM130.515 31.4017L129.597 31.0052L129.593 31.0143L130.515 31.4017ZM132.228 25.1095L133.211 25.292L133.211 25.2899L132.228 25.1095ZM133.029 19.2035L132.031 19.152L132.03 19.1654L132.03 19.1789L133.029 19.2035ZM132.728 13.9242L131.815 14.3326L131.815 14.3326L132.728 13.9242ZM129.464 13.7402L130.148 14.4696L129.464 13.7402ZM126.974 35.5945C123.593 35.6028 121.242 34.8122 119.734 33.4C118.237 31.9985 117.399 29.8238 117.392 26.6821L115.392 26.687C115.4 30.1693 116.335 32.9582 118.367 34.86C120.386 36.7511 123.319 37.6035 126.979 37.5945L126.974 35.5945ZM117.392 26.6821C117.381 22.1715 118.609 18.5398 121.014 15.7059L119.488 14.4121C116.724 17.671 115.38 21.7896 115.392 26.687L117.392 26.6821ZM121.014 15.7054C123.544 12.7194 127.006 11.1943 131.521 11.1832L131.517 9.18317C126.496 9.19556 122.446 10.921 119.488 14.4126L121.014 15.7054ZM131.521 11.1832C134.84 11.175 137.167 11.9387 138.678 13.3054L140.02 11.8222C138.003 9.99772 135.11 9.1743 131.517 9.18317L131.521 11.1832ZM138.678 13.3054C140.158 14.6446 140.999 16.8022 141.007 19.9998L143.007 19.9948C142.999 16.4725 142.067 13.6744 140.02 11.8222L138.678 13.3054ZM141.007 19.9998C141.019 24.937 139.706 28.7219 137.173 31.4743L138.645 32.8286C141.602 29.6155 143.02 25.2976 143.007 19.9948L141.007 19.9998ZM137.169 31.479C134.707 34.1885 131.349 35.5837 126.974 35.5945L126.979 37.5945C131.819 37.5825 135.75 36.0156 138.649 32.8239L137.169 31.479ZM127.258 15.3076C126.844 16.2448 126.478 17.3951 126.153 18.7435L128.097 19.2126C128.405 17.9354 128.737 16.908 129.087 16.1153L127.258 15.3076ZM126.149 18.7609C125.86 20.0581 125.526 21.7359 125.146 23.7906L127.112 24.1544C127.49 22.1112 127.82 20.4594 128.101 19.1951L126.149 18.7609ZM125.146 23.7906C124.753 25.9116 124.564 28.2631 124.57 30.8404L126.57 30.8354C126.564 28.3567 126.747 26.1313 127.112 24.1544L125.146 23.7906ZM124.57 30.8404C124.572 31.7665 124.716 32.6117 125.055 33.329L126.863 32.4729C126.688 32.1034 126.572 31.5733 126.57 30.8354L124.57 30.8404ZM125.076 33.371C125.577 34.3116 126.48 34.7157 127.5 34.7132L127.495 32.7132C127.042 32.7143 126.919 32.5769 126.842 32.4309L125.076 33.371ZM127.5 34.7132C128.394 34.711 129.223 34.4936 129.892 33.9656L128.652 32.396C128.426 32.5742 128.073 32.7117 127.495 32.7132L127.5 34.7132ZM129.865 33.9857C130.546 33.4839 131.051 32.7087 131.437 31.7891L129.593 31.0143C129.28 31.7605 128.956 32.1713 128.678 32.3758L129.865 33.9857ZM131.433 31.7982C132.113 30.224 132.7 28.0421 133.211 25.292L131.245 24.9269C130.745 27.6193 130.19 29.6322 129.597 31.0052L131.433 31.7982ZM133.211 25.2899C133.717 22.5356 133.998 20.4984 134.029 19.228L132.03 19.1789C132.003 20.2767 131.749 22.1768 131.244 24.929L133.211 25.2899ZM134.028 19.255C134.09 18.0589 134.12 17.016 134.118 16.1288L132.118 16.1337C132.12 16.9745 132.091 17.9797 132.031 19.152L134.028 19.255ZM134.118 16.1288C134.115 15.1475 133.974 14.2608 133.641 13.5158L131.815 14.3326C131.997 14.7383 132.116 15.3229 132.118 16.1337L134.118 16.1288ZM133.641 13.5158C133.435 13.0559 133.111 12.6707 132.663 12.4116C132.224 12.1584 131.731 12.0626 131.236 12.0639L131.241 14.0639C131.481 14.0633 131.604 14.11 131.663 14.1436C131.711 14.1713 131.764 14.2171 131.815 14.3326L133.641 13.5158ZM131.236 12.0639C130.298 12.0662 129.457 12.3752 128.78 13.0109L130.148 14.4696C130.428 14.2069 130.77 14.065 131.241 14.0639L131.236 12.0639ZM128.78 13.0109C128.17 13.583 127.672 14.3695 127.258 15.3076L129.087 16.1153C129.437 15.3235 129.8 14.7958 130.148 14.4696L128.78 13.0109ZM174.414 26.2054L173.438 25.9882L173.436 25.9974L174.414 26.2054ZM175.553 20.8265L174.57 20.6406L174.569 20.6447L175.553 20.8265ZM172.036 15.4592L172.854 16.0339L172.862 16.0227L172.036 15.4592ZM170.368 20.4073L171.349 20.598L171.353 20.5802L171.356 20.5623L170.368 20.4073ZM167.429 35.5346L167.534 36.5291L168.27 36.4518L168.411 35.7253L167.429 35.5346ZM158.071 36.5177L157.09 36.3254L156.83 37.6537L158.176 37.5122L158.071 36.5177ZM160.631 23.4554L159.65 23.2617L159.65 23.263L160.631 23.4554ZM161.436 18.8454L160.448 18.6928L161.436 18.8454ZM157.875 15.4461L157.068 14.8557L157.875 15.4461ZM156.016 20.4427L155.035 20.249L155.034 20.255L156.016 20.4427ZM153.125 35.5699L153.229 36.5646L153.968 36.4877L154.107 35.7576L153.125 35.5699ZM143.671 36.5533L142.69 36.3613L142.431 37.6877L143.775 37.5479L143.671 36.5533ZM148.649 11.1009L148.524 10.1086L147.806 10.1986L147.667 10.909L148.649 11.1009ZM156.47 10.1216L157.457 10.2851L157.676 8.96281L156.346 9.12933L156.47 10.1216ZM155.666 14.9716L154.68 14.808L156.568 15.4032L155.666 14.9716ZM159.209 11.2668L159.643 12.1676L159.651 12.1639L159.659 12.1602L159.209 11.2668ZM168.521 11.0998L167.923 11.9013L168.521 11.0998ZM170.303 13.7355L169.337 13.9937L170.033 16.5961L171.204 14.1701L170.303 13.7355ZM173.177 11.0884L173.601 11.9941L173.61 11.9898L173.177 11.0884ZM181.672 10.6354L181.255 11.5444L181.276 11.5539L181.297 11.5624L181.672 10.6354ZM183.739 12.0703L184.529 11.4575L184.516 11.4406L184.503 11.4243L183.739 12.0703ZM183.774 26.1343L184.751 26.3456L184.754 26.3337L183.774 26.1343ZM183.741 32.1344L183.01 32.8166L183.022 32.8301L183.035 32.8432L183.741 32.1344ZM185.375 32.8983L186.335 33.1781L186.672 32.0201L185.472 31.903L185.375 32.8983ZM183.221 35.4956L182.723 34.6286L182.712 34.635L183.221 35.4956ZM179.429 35.465C177.595 35.4695 176.402 35.1115 175.684 34.5565C175.014 34.0387 174.615 33.2378 174.612 31.9649L172.612 31.9698C172.617 33.7049 173.191 35.1576 174.461 36.139C175.683 37.0832 177.396 37.47 179.434 37.465L179.429 35.465ZM174.612 31.9649C174.609 30.7626 174.858 28.9265 175.392 26.4133L173.436 25.9974C172.895 28.5429 172.609 30.5481 172.612 31.9698L174.612 31.9649ZM175.39 26.4225C175.96 23.8616 176.343 22.0526 176.536 21.0084L174.569 20.6447C174.384 21.6494 174.008 23.4263 173.438 25.9882L175.39 26.4225ZM176.535 21.0124C176.974 18.6965 177.216 17.063 177.213 16.2144L175.213 16.2193C175.215 16.8428 175.016 18.2824 174.57 20.6406L176.535 21.0124ZM177.213 16.2144C177.211 15.3033 177.044 14.4383 176.553 13.7826C176.021 13.0717 175.235 12.7713 174.381 12.7734L174.386 14.7734C174.747 14.7725 174.875 14.8779 174.952 14.9815C175.071 15.1402 175.212 15.4985 175.213 16.2193L177.213 16.2144ZM174.381 12.7734C173.074 12.7766 172.031 13.6911 171.209 14.8957L172.862 16.0227C173.57 14.9835 174.093 14.7741 174.386 14.7734L174.381 12.7734ZM171.217 14.8845C170.324 16.157 169.736 17.982 169.38 20.2523L171.356 20.5623C171.693 18.4149 172.217 16.9411 172.854 16.0339L171.217 14.8845ZM169.386 20.2166L166.447 35.3439L168.411 35.7253L171.349 20.598L169.386 20.2166ZM167.325 34.5401L157.967 35.5232L158.176 37.5122L167.534 36.5291L167.325 34.5401ZM159.053 36.71L161.613 23.6477L159.65 23.263L157.09 36.3254L159.053 36.71ZM161.612 23.6491C161.9 22.1931 162.17 20.6426 162.424 18.9979L160.448 18.6928C160.197 20.3134 159.932 21.8362 159.65 23.2617L161.612 23.6491ZM162.424 18.9979C162.551 18.1789 162.646 17.5268 162.71 17.0446C162.77 16.5942 162.813 16.2199 162.813 16.01L160.813 16.0149C160.813 16.011 160.813 16.0257 160.81 16.0686C160.807 16.1083 160.802 16.1615 160.795 16.2299C160.781 16.3667 160.759 16.5494 160.728 16.7807C160.666 17.2428 160.573 17.8792 160.448 18.6928L162.424 18.9979ZM162.813 16.01C162.811 15.18 162.661 14.3764 162.203 13.7611C161.704 13.0892 160.966 12.8065 160.173 12.8085L160.178 14.8085C160.472 14.8077 160.551 14.891 160.598 14.9538C160.687 15.0731 160.811 15.3728 160.813 16.0149L162.813 16.01ZM160.173 12.8085C158.931 12.8115 157.904 13.7128 157.068 14.8557L158.683 16.0365C159.441 14.9995 159.948 14.809 160.178 14.8085L160.173 12.8085ZM157.068 14.8557C156.145 16.1183 155.489 17.9506 155.035 20.249L156.997 20.6364C157.428 18.4527 158.012 16.9539 158.683 16.0365L157.068 14.8557ZM155.034 20.255L152.143 35.3822L154.107 35.7576L156.998 20.6304L155.034 20.255ZM153.022 34.5753L143.568 35.5586L143.775 37.5479L153.229 36.5646L153.022 34.5753ZM144.653 36.7452L149.63 11.2928L147.667 10.909L142.69 36.3613L144.653 36.7452ZM148.773 12.0931L156.595 11.1138L156.346 9.12933L148.524 10.1086L148.773 12.0931ZM155.484 9.95804L154.68 14.808L156.653 15.1351L157.457 10.2851L155.484 9.95804ZM156.568 15.4032C157.311 13.8508 158.34 12.7963 159.643 12.1676L158.775 10.3661C157.01 11.217 155.677 12.6323 154.764 14.54L156.568 15.4032ZM159.659 12.1602C161.01 11.4802 162.81 11.1059 165.113 11.1003L165.108 9.10026C162.611 9.10643 160.476 9.50986 158.76 10.3735L159.659 12.1602ZM165.113 11.1003C166.323 11.0973 167.235 11.3882 167.923 11.9013L169.119 10.2984C168.011 9.47194 166.65 9.09646 165.108 9.10026L165.113 11.1003ZM167.923 11.9013C168.639 12.4359 169.104 13.1226 169.337 13.9937L171.269 13.4772C170.921 12.1737 170.198 11.1034 169.119 10.2984L167.923 11.9013ZM171.204 14.1701C171.625 13.2984 172.387 12.562 173.601 11.994L172.753 10.1827C171.217 10.9015 170.064 11.9298 169.403 13.3008L171.204 14.1701ZM173.61 11.9898C174.87 11.3843 176.273 11.0727 177.833 11.0689L177.828 9.06887C175.996 9.07339 174.296 9.44146 172.744 10.1869L173.61 11.9898ZM177.833 11.0689C179.522 11.0647 180.624 11.2552 181.255 11.5444L182.088 9.7264C181.053 9.25174 179.595 9.06451 177.828 9.06887L177.833 11.0689ZM181.297 11.5624C182.037 11.862 182.584 12.2532 182.976 12.7163L184.503 11.4243C183.867 10.6739 183.036 10.1085 182.047 9.70837L181.297 11.5624ZM182.949 12.683C183.631 13.5633 184.042 14.8989 184.047 16.8215L186.047 16.8166C186.042 14.6433 185.58 12.813 184.529 11.4575L182.949 12.683ZM184.047 16.8215C184.052 18.7294 183.646 21.7504 182.794 25.9348L184.754 26.3337C185.609 22.1299 186.052 18.9407 186.047 16.8166L184.047 16.8215ZM182.796 25.923C182.356 27.9615 182.11 29.4709 182.112 30.3624L184.112 30.3574C184.111 29.7129 184.306 28.4052 184.751 26.3455L182.796 25.923ZM182.112 30.3624C182.115 31.2964 182.386 32.1488 183.01 32.8166L184.472 31.4521C184.261 31.2259 184.114 30.8954 184.112 30.3574L182.112 30.3624ZM183.035 32.8432C183.651 33.4556 184.411 33.8091 185.278 33.8936L185.472 31.903C185.057 31.8627 184.729 31.7069 184.446 31.4255L183.035 32.8432ZM184.415 32.6185C184.18 33.4247 183.65 34.0955 182.723 34.6286L183.719 36.3627C185.028 35.6103 185.935 34.5495 186.335 33.1781L184.415 32.6185ZM182.712 34.635C181.799 35.1747 180.716 35.4618 179.429 35.465L179.434 37.465C181.027 37.4611 182.47 37.102 183.73 36.3563L182.712 34.635ZM208.492 27.3213L209.052 26.4929L208.18 25.903L207.636 26.8044L208.492 27.3213ZM208.794 32.8885L209.579 33.5073L208.794 32.8885ZM206.399 34.8144L206.859 35.7021L206.859 35.7019L206.399 34.8144ZM194.737 35.7072L194.388 36.6444L194.395 36.6472L194.737 35.7072ZM191.516 33.6512L192.234 32.9553L192.227 32.9487L192.221 32.9423L191.516 33.6512ZM192.861 14.7838L193.609 15.4473L193.61 15.4463L192.861 14.7838ZM211.238 11.9064L211.887 11.1456L211.884 11.1433L211.238 11.9064ZM198.356 24.1783L198.354 23.1783L197.496 23.1804L197.367 24.0286L198.356 24.1783ZM199.138 29.5523L198.47 30.2973L198.49 30.3147L198.51 30.3311L199.138 29.5523ZM205.714 29.5361L206.107 30.4555L206.118 30.4508L205.714 29.5361ZM198.687 22.1134L197.703 21.9377L197.492 23.1164L198.69 23.1134L198.687 22.1134ZM204.058 19.9882L203.341 19.2914L203.333 19.2997L203.325 19.3083L204.058 19.9882ZM205.577 13.0724L204.727 13.5986L204.751 13.6377L204.778 13.6744L205.577 13.0724ZM202.84 12.7912L203.236 13.7093L203.251 13.703L203.265 13.6963L202.84 12.7912ZM201.451 14.1386L202.257 14.7314L202.268 14.7159L202.279 14.6999L201.451 14.1386ZM207.932 28.1496C208.388 28.4581 208.696 28.98 208.699 29.9607L210.699 29.9558C210.695 28.5046 210.199 27.2684 209.052 26.4929L207.932 28.1496ZM208.699 29.9607C208.701 30.968 208.448 31.712 208.008 32.2698L209.579 33.5073C210.352 32.5261 210.702 31.3165 210.699 29.9558L208.699 29.9607ZM208.008 32.2698C207.502 32.913 206.82 33.4689 205.938 33.927L206.859 35.7019C207.959 35.1311 208.874 34.403 209.579 33.5073L208.008 32.2698ZM205.938 33.9268C204.028 34.9177 202.058 35.4092 200.016 35.4142L200.021 37.4142C202.395 37.4083 204.678 36.8333 206.859 35.7021L205.938 33.9268ZM200.016 35.4142C197.865 35.4195 196.236 35.1877 195.078 34.7673L194.395 36.6472C195.864 37.1803 197.756 37.4198 200.021 37.4142L200.016 35.4142ZM195.085 34.77C193.93 34.34 192.986 33.7321 192.234 32.9553L190.797 34.3471C191.777 35.358 192.981 36.1208 194.388 36.6444L195.085 34.77ZM192.221 32.9423C190.76 31.4881 189.961 29.3752 189.954 26.455L187.954 26.4599C187.962 29.7477 188.871 32.4306 190.81 34.36L192.221 32.9423ZM189.954 26.455C189.942 21.8106 191.19 18.1751 193.609 15.4473L192.113 14.1203C189.299 17.2934 187.941 21.4403 187.954 26.4599L189.954 26.455ZM193.61 15.4463C196.199 12.5194 199.76 11.0147 204.42 11.0032L204.415 9.00326C199.282 9.01592 195.14 10.6983 192.112 14.1213L193.61 15.4463ZM204.42 11.0032C207.345 10.996 209.341 11.6107 210.592 12.6696L211.884 11.1433C210.12 9.64958 207.57 8.99547 204.415 9.00326L204.42 11.0032ZM210.589 12.6673C211.474 13.4219 211.924 14.3998 211.927 15.6967L213.927 15.6918C213.923 13.8528 213.247 12.3054 211.887 11.1456L210.589 12.6673ZM211.927 15.6967C211.933 18.1568 210.911 19.9411 208.792 21.1751C206.589 22.4574 203.154 23.1664 198.354 23.1783L198.359 25.1783C203.286 25.1661 207.143 24.4491 209.798 22.9034C212.536 21.3094 213.935 18.8637 213.927 15.6918L211.927 15.6967ZM197.367 24.0286C197.235 24.9019 197.168 25.7216 197.17 26.4852L199.17 26.4803C199.168 25.8359 199.225 25.1193 199.345 24.3279L197.367 24.0286ZM197.17 26.4852C197.174 28.0495 197.508 29.4357 198.47 30.2973L199.805 28.8074C199.484 28.5202 199.173 27.8599 199.17 26.4803L197.17 26.4852ZM198.51 30.3311C199.422 31.0657 200.62 31.3647 201.974 31.3613L201.969 29.3614C200.891 29.364 200.2 29.1237 199.765 28.7736L198.51 30.3311ZM201.974 31.3613C203.342 31.358 204.722 31.048 206.107 30.4555L205.32 28.6168C204.147 29.1186 203.033 29.3587 201.969 29.3614L201.974 31.3613ZM206.118 30.4508C207.549 29.8183 208.668 28.9653 209.348 27.8381L207.636 26.8044C207.233 27.4719 206.499 28.0955 205.309 28.6215L206.118 30.4508ZM198.69 23.1134C201.185 23.1073 203.26 22.3196 204.791 20.6681L203.325 19.3083C202.239 20.4792 200.734 21.1084 198.685 21.1134L198.69 23.1134ZM204.775 20.6849C206.292 19.1236 207.019 17.1139 207.013 14.7489L205.013 14.7538C205.018 16.6767 204.441 18.1583 203.341 19.2914L204.775 20.6849ZM207.013 14.7489C207.011 13.9052 206.848 13.0968 206.375 12.4704L204.778 13.6744C204.884 13.8146 205.011 14.1254 205.013 14.7538L207.013 14.7489ZM206.427 12.5462C205.964 11.7976 205.217 11.4493 204.373 11.4514L204.378 13.4514C204.622 13.4508 204.676 13.5165 204.727 13.5986L206.427 12.5462ZM204.373 11.4514C203.687 11.4531 203.03 11.597 202.415 11.886L203.265 13.6963C203.609 13.5349 203.976 13.4524 204.378 13.4514L204.373 11.4514ZM202.444 11.873C201.734 12.1792 201.139 12.8178 200.624 13.5773L202.279 14.6999C202.721 14.049 203.051 13.7894 203.236 13.7093L202.444 11.873ZM200.646 13.5457C199.326 15.3391 198.373 18.185 197.703 21.9377L199.672 22.2891C200.327 18.6146 201.217 16.1439 202.257 14.7314L200.646 13.5457ZM225.926 26.0302L226.906 26.2295L226.908 26.2204L225.926 26.0302ZM228.438 13.064L229.42 13.2542L229.651 12.061L228.436 12.064L228.438 13.064ZM225.606 13.071L224.615 12.9413L224.467 14.0738L225.609 14.071L225.606 13.071ZM225.795 11.6305L225.505 10.6734L224.887 10.8605L224.803 11.5008L225.795 11.6305ZM237.108 5.65056L237.106 4.65056L236.769 4.65139L236.502 4.85536L237.108 5.65056ZM239.412 5.64487L240.389 5.8575L240.654 4.64181L239.41 4.64488L239.412 5.64487ZM238.273 10.8797L237.296 10.6671L237.031 11.8828L238.276 11.8797L238.273 10.8797ZM242.017 10.8705L242.998 11.0642L243.234 9.86745L242.015 9.87046L242.017 10.8705ZM241.59 13.0315L241.593 14.0315L242.413 14.0295L242.571 13.2252L241.59 13.0315ZM237.894 13.0406L237.892 12.0406L237.063 12.0427L236.911 12.8575L237.894 13.0406ZM235.478 26.0066L236.458 26.2094L236.46 26.1997L236.461 26.1898L235.478 26.0066ZM236.887 32.7712L237.847 33.051L238.142 32.0393L237.116 31.7978L236.887 32.7712ZM234.685 35.3686L235.173 36.2416L234.685 35.3686ZM226.668 34.8124L225.929 35.4858L226.668 34.8124ZM226.266 30.5894C226.264 29.84 226.463 28.4119 226.906 26.2295L224.946 25.831C224.505 28.0027 224.263 29.6158 224.266 30.5943L226.266 30.5894ZM226.908 26.2204L229.42 13.2542L227.457 12.8738L224.945 25.84L226.908 26.2204ZM228.436 12.064L225.604 12.071L225.609 14.071L228.441 14.064L228.436 12.064ZM226.598 13.2007L226.786 11.7602L224.803 11.5008L224.615 12.9413L226.598 13.2007ZM226.085 12.5876C230.053 11.3864 233.93 9.33182 237.714 6.44576L236.502 4.85536C232.877 7.61961 229.211 9.55165 225.505 10.6734L226.085 12.5876ZM237.111 6.65056L239.415 6.64487L239.41 4.64488L237.106 4.65056L237.111 6.65056ZM238.435 5.43225L237.296 10.6671L239.25 11.0923L240.389 5.8575L238.435 5.43225ZM238.276 11.8797L242.02 11.8705L242.015 9.87046L238.271 9.8797L238.276 11.8797ZM241.036 10.6768L240.609 12.8378L242.571 13.2252L242.998 11.0642L241.036 10.6768ZM241.588 12.0315L237.892 12.0406L237.897 14.0406L241.593 14.0315L241.588 12.0315ZM236.911 12.8575L234.495 25.8235L236.461 26.1898L238.877 13.2238L236.911 12.8575ZM234.499 25.8038C234.092 27.771 233.862 29.2015 233.864 29.9946L235.864 29.9897C235.863 29.4389 236.043 28.2123 236.458 26.2094L234.499 25.8038ZM233.864 29.9946C233.866 30.9025 234.067 31.7445 234.564 32.4274C235.07 33.122 235.803 33.5432 236.658 33.7446L237.116 31.7978C236.627 31.6825 236.35 31.4822 236.181 31.2504C236.004 31.007 235.866 30.6179 235.864 29.9897L233.864 29.9946ZM235.927 32.4914C235.695 33.2873 235.159 33.9585 234.198 34.4957L235.173 36.2416C236.513 35.4931 237.444 34.4327 237.847 33.051L235.927 32.4914ZM234.198 34.4957C233.227 35.0381 232.011 35.3352 230.509 35.3389L230.514 37.3389C232.276 37.3346 233.843 36.9849 235.173 36.2416L234.198 34.4957ZM230.509 35.3389C229.104 35.3424 228.113 34.9141 227.407 34.1391L225.929 35.4858C227.084 36.7542 228.656 37.3435 230.514 37.3389L230.509 35.3389ZM227.407 34.1391C226.689 33.3501 226.27 32.2089 226.266 30.5894L224.266 30.5943C224.271 32.5588 224.786 34.2313 225.929 35.4858L227.407 34.1391ZM245.407 14.7501L246.169 15.397L246.17 15.3965L245.407 14.7501ZM263.065 31.8426L262.329 31.1654L262.325 31.1701L263.065 31.8426ZM252.281 18.6692L251.308 18.4346L251.306 18.4433L251.304 18.4521L252.281 18.6692ZM251.285 23.6636L250.302 23.4818L251.285 23.6636ZM251.115 32.5921L250.211 33.0201L250.221 33.0414L250.232 33.0621L251.115 32.5921ZM254.428 32.8719L253.834 32.067L253.821 32.0768L253.808 32.0871L254.428 32.8719ZM255.671 31.0928L254.753 30.6963L254.749 30.7055L255.671 31.0928ZM257.384 24.8006L258.367 24.9831L258.367 24.9811L257.384 24.8006ZM258.185 18.8946L257.186 18.8431L257.186 18.8565L257.185 18.87L258.185 18.8946ZM257.884 13.6153L256.971 14.0237L256.971 14.0237L257.884 13.6153ZM254.62 13.4314L255.304 14.1607L254.62 13.4314ZM252.13 35.2856C248.749 35.2939 246.398 34.5034 244.889 33.0911C243.393 31.6897 242.555 29.5149 242.548 26.3732L240.548 26.3781C240.556 29.8604 241.491 32.6493 243.522 34.5511C245.542 36.4422 248.475 37.2946 252.135 37.2856L252.13 35.2856ZM242.548 26.3732C242.536 21.8626 243.765 18.2309 246.169 15.397L244.644 14.1032C241.88 17.3621 240.535 21.4807 240.548 26.3781L242.548 26.3732ZM246.17 15.3965C248.7 12.4105 252.162 10.8854 256.677 10.8743L256.672 8.87428C251.652 8.88668 247.602 10.6121 244.644 14.1037L246.17 15.3965ZM256.677 10.8743C259.996 10.8661 262.323 11.6298 263.834 12.9966L265.176 11.5134C263.159 9.68884 260.266 8.86542 256.672 8.87428L256.677 10.8743ZM263.834 12.9966C265.314 14.3357 266.155 16.4933 266.163 19.6909L268.163 19.686C268.154 16.1636 267.223 13.3655 265.176 11.5134L263.834 12.9966ZM266.163 19.6909C266.175 24.6281 264.862 28.413 262.329 31.1655L263.801 32.5197C266.758 29.3066 268.176 24.9888 268.163 19.686L266.163 19.6909ZM262.325 31.1701C259.863 33.8796 256.505 35.2748 252.13 35.2856L252.135 37.2856C256.975 37.2736 260.905 35.7068 263.805 32.515L262.325 31.1701ZM252.414 14.9987C252 15.9359 251.634 17.0862 251.308 18.4346L253.253 18.9037C253.561 17.6266 253.893 16.5991 254.243 15.8064L252.414 14.9987ZM251.304 18.4521C251.016 19.7492 250.682 21.427 250.302 23.4818L252.268 23.8455C252.646 21.8024 252.976 20.1505 253.257 18.8863L251.304 18.4521ZM250.302 23.4818C249.909 25.6027 249.719 27.9542 249.726 30.5315L251.726 30.5266C251.72 28.0478 251.903 25.8224 252.268 23.8455L250.302 23.4818ZM249.726 30.5315C249.728 31.4576 249.871 32.3029 250.211 33.0201L252.019 32.164C251.844 31.7946 251.728 31.2644 251.726 30.5266L249.726 30.5315ZM250.232 33.0621C250.733 34.0027 251.636 34.4068 252.655 34.4043L252.65 32.4043C252.198 32.4054 252.075 32.268 251.998 32.122L250.232 33.0621ZM252.655 34.4043C253.549 34.4021 254.379 34.1847 255.047 33.6567L253.808 32.0871C253.582 32.2653 253.228 32.4029 252.65 32.4043L252.655 34.4043ZM255.021 33.6768C255.702 33.175 256.207 32.3998 256.593 31.4802L254.749 30.7055C254.436 31.4516 254.112 31.8624 253.834 32.067L255.021 33.6768ZM256.589 31.4893C257.269 29.9151 257.856 27.7332 258.367 24.9831L256.401 24.618C255.901 27.3105 255.346 29.3234 254.753 30.6964L256.589 31.4893ZM258.367 24.9811C258.873 22.2267 259.154 20.1895 259.185 18.9191L257.185 18.87C257.158 19.9678 256.905 21.8679 256.4 24.6201L258.367 24.9811ZM259.184 18.9461C259.245 17.7501 259.276 16.7071 259.274 15.8199L257.274 15.8248C257.276 16.6656 257.247 17.6708 257.186 18.8431L259.184 18.9461ZM259.274 15.8199C259.271 14.8387 259.13 13.9519 258.797 13.2069L256.971 14.0237C257.153 14.4294 257.272 15.0141 257.274 15.8248L259.274 15.8199ZM258.797 13.2069C258.591 12.747 258.267 12.3618 257.818 12.1027C257.38 11.8495 256.887 11.7538 256.392 11.755L256.396 13.755C256.637 13.7544 256.76 13.8011 256.818 13.8347C256.866 13.8624 256.92 13.9082 256.971 14.0237L258.797 13.2069ZM256.392 11.755C255.454 11.7573 254.613 12.0663 253.936 12.702L255.304 14.1607C255.584 13.8981 255.926 13.7561 256.396 13.755L256.392 11.755ZM253.936 12.702C253.326 13.2742 252.828 14.0606 252.414 14.9987L254.243 15.8064C254.593 15.0146 254.956 14.4869 255.304 14.1607L253.936 12.702Z" fill="white"/>
</g>
<defs>
<filter id="filter0_dii_20_14" x="0.937378" y="0.728485" width="270.267" height="44.1669" filterUnits="userSpaceOnUse" color-interpolation-filters="sRGB">
<feFlood flood-opacity="0" result="BackgroundImageFix"/>
<feColorMatrix in="SourceAlpha" type="matrix" values="0 0 0 0 0 0 0 0 0 0 0 0 0 0 0 0 0 0 127 0" result="hardAlpha"/>
<feOffset dy="4"/>
<feGaussianBlur stdDeviation="2"/>
<feComposite in2="hardAlpha" operator="out"/>
<feColorMatrix type="matrix" values="0 0 0 0 0 0 0 0 0 0 0 0 0 0 0 0 0 0 0.25 0"/>
<feBlend mode="normal" in2="BackgroundImageFix" result="effect1_dropShadow_20_14"/>
<feBlend mode="normal" in="SourceGraphic" in2="effect1_dropShadow_20_14" result="shape"/>
<feColorMatrix in="SourceAlpha" type="matrix" values="0 0 0 0 0 0 0 0 0 0 0 0 0 0 0 0 0 0 127 0" result="hardAlpha"/>
<feOffset dy="4"/>
<feGaussianBlur stdDeviation="2"/>
<feComposite in2="hardAlpha" operator="arithmetic" k2="-1" k3="1"/>
<feColorMatrix type="matrix" values="0 0 0 0 0 0 0 0 0 0 0 0 0 0 0 0 0 0 0.25 0"/>
<feBlend mode="normal" in2="shape" result="effect2_innerShadow_20_14"/>
<feColorMatrix in="SourceAlpha" type="matrix" values="0 0 0 0 0 0 0 0 0 0 0 0 0 0 0 0 0 0 127 0" result="hardAlpha"/>
<feOffset dx="-3.8" dy="4"/>
<feGaussianBlur stdDeviation="2"/>
<feComposite in2="hardAlpha" operator="arithmetic" k2="-1" k3="1"/>
<feColorMatrix type="matrix" values="0 0 0 0 1 0 0 0 0 1 0 0 0 0 1 0 0 0 0.25 0"/>
<feBlend mode="normal" in2="effect2_innerShadow_20_14" result="effect3_innerShadow_20_14"/>
</filter>
</defs>
</svg>
