<svg width="368" height="57" viewBox="0 0 368 57" fill="none" xmlns="http://www.w3.org/2000/svg">
<g filter="url(#filter0_dii_62_79)">
<path d="M29.7995 4.312C40.2528 4.312 45.4795 8.00266 45.4795 15.384C45.4795 19.4373 44.1782 22.68 41.5755 25.112C39.0155 27.544 35.4955 28.76 31.0155 28.76C28.9248 28.76 27.0688 28.1627 25.4475 26.968C24.6795 26.456 24.0395 25.8587 23.5275 25.176C26.6422 25.176 29.0102 24.2373 30.6315 22.36C32.2955 20.44 33.1275 17.624 33.1275 13.912C33.1275 10.2 31.2928 8.344 27.6235 8.344H26.0875C25.8315 8.344 25.5968 8.36533 25.3835 8.408L18.0235 47H4.1355L12.0075 5.08C16.5728 4.65333 20.1782 4.41867 22.8235 4.376C25.4688 4.33333 27.7942 4.312 29.7995 4.312ZM71.6955 36.184C72.7622 36.9093 73.2955 38.0827 73.2955 39.704C73.2955 41.2827 72.8902 42.584 72.0795 43.608C71.2688 44.632 70.2022 45.4853 68.8795 46.168C66.1488 47.576 63.3115 48.28 60.3675 48.28C57.4235 48.28 55.0768 47.96 53.3275 47.32C51.6208 46.68 50.1915 45.7627 49.0395 44.568C46.7782 42.3067 45.6475 39.1067 45.6475 34.968C45.6475 28.5253 47.3968 23.3413 50.8955 19.416C54.6502 15.192 59.7915 13.08 66.3195 13.08C70.3728 13.08 73.4022 13.9333 75.4075 15.64C76.9008 16.92 77.6475 18.6053 77.6475 20.696C77.6475 28.2053 71.1622 31.96 58.1915 31.96C58.0208 33.0693 57.9355 34.0933 57.9355 35.032C57.9355 36.9947 58.3622 38.36 59.2155 39.128C60.1115 39.8533 61.3702 40.216 62.9915 40.216C64.6128 40.216 66.2768 39.8533 67.9835 39.128C69.7328 38.36 70.9702 37.3787 71.6955 36.184ZM58.6395 29.208C61.6688 29.208 64.0582 28.2693 65.8075 26.392C67.5568 24.6 68.4315 22.2747 68.4315 19.416C68.4315 18.4347 68.2395 17.688 67.8555 17.176C67.5142 16.6213 66.9808 16.344 66.2555 16.344C65.5302 16.344 64.8475 16.4933 64.2075 16.792C63.6102 17.048 62.9915 17.6453 62.3515 18.584C60.7728 20.7173 59.5355 24.2587 58.6395 29.208ZM99.87 29.016C101.406 26.2853 102.174 23.5333 102.174 20.76C102.174 18.9253 101.513 18.008 100.19 18.008C99.166 18.008 98.1207 18.8827 97.054 20.632C95.9447 22.3813 95.2193 24.3867 94.878 26.648L91.55 47L78.302 48.28L84.83 14.36L95.39 13.08L94.238 19.544C96.3287 15.2347 99.7207 13.08 104.414 13.08C106.889 13.08 108.787 13.72 110.11 15C111.475 16.28 112.158 18.2427 112.158 20.888C112.158 23.4907 111.283 25.624 109.534 27.288C107.827 28.952 105.502 29.784 102.558 29.784C101.278 29.784 100.382 29.528 99.87 29.016ZM132.349 24.536C132.946 22.9573 133.245 21.4853 133.245 20.12C133.245 17.6027 132.221 16.344 130.173 16.344C129.106 16.344 128.125 16.8347 127.229 17.816C126.376 18.7547 125.949 19.8213 125.949 21.016C125.949 21.8693 126.29 22.6373 126.973 23.32C127.954 24.2587 129.704 25.496 132.221 27.032C134.738 28.568 136.466 29.976 137.405 31.256C138.386 32.4933 138.877 33.9867 138.877 35.736C138.877 37.4427 138.45 39.0853 137.597 40.664C136.786 42.2427 135.634 43.5867 134.141 44.696C130.941 47.0853 126.781 48.28 121.661 48.28C118.888 48.28 116.434 47.5547 114.301 46.104C112.168 44.696 111.101 43.16 111.101 41.496C111.101 39.832 111.698 38.5093 112.893 37.528C114.13 36.5467 115.645 36.056 117.437 36.056C119.229 36.056 120.68 36.3973 121.789 37.08C121.234 38.488 120.957 39.6613 120.957 40.6C120.957 43.416 122.152 44.824 124.541 44.824C125.565 44.824 126.418 44.504 127.101 43.864C127.784 43.224 128.125 42.3493 128.125 41.24C128.125 39.064 126.29 36.824 122.621 34.52C119.634 32.5573 117.8 31.192 117.117 30.424C115.965 29.0587 115.389 27.5227 115.389 25.816C115.389 24.1093 115.794 22.4453 116.605 20.824C117.416 19.2027 118.568 17.816 120.061 16.664C123.176 14.2747 127.442 13.08 132.861 13.08C135.634 13.08 137.832 13.6347 139.453 14.744C141.117 15.8533 141.949 17.3467 141.949 19.224C141.949 21.1013 141.373 22.5733 140.221 23.64C139.112 24.7067 137.533 25.24 135.485 25.24C134.077 25.24 133.032 25.0053 132.349 24.536ZM158.29 48.28C148.903 48.28 144.21 43.864 144.21 35.032C144.21 28.76 145.938 23.5973 149.394 19.544C153.063 15.2347 158.077 13.08 164.434 13.08C169.042 13.08 172.519 14.1467 174.866 16.28C177.213 18.4133 178.386 21.72 178.386 26.2C178.386 33.0267 176.551 38.424 172.882 42.392C169.298 46.3173 164.434 48.28 158.29 48.28ZM159.954 20.44C159.442 21.592 158.973 23.0427 158.546 24.792C158.162 26.4987 157.714 28.7173 157.202 31.448C156.69 34.1787 156.434 37.2293 156.434 40.6C156.434 41.7093 156.605 42.6267 156.946 43.352C157.33 44.0773 158.013 44.44 158.994 44.44C159.975 44.44 160.765 44.2053 161.362 43.736C162.002 43.2667 162.557 42.4773 163.026 41.368C163.879 39.4053 164.647 36.6107 165.33 32.984C166.013 29.3147 166.375 26.6907 166.418 25.112C166.503 23.5333 166.546 22.168 166.546 21.016C166.546 19.8213 166.375 18.84 166.034 18.072C165.693 17.304 165.031 16.92 164.05 16.92C163.111 16.92 162.322 17.2187 161.682 17.816C161.042 18.4133 160.466 19.288 159.954 20.44ZM209.223 48.28C204.06 48.28 201.479 46.2747 201.479 42.264C201.521 41.1547 201.713 39.6613 202.055 37.784L203.207 31.896C204.359 26.3493 204.935 22.9573 204.935 21.72C204.935 19.2453 204.209 18.008 202.759 18.008C200.327 18.008 198.471 21.1867 197.191 27.544L193.415 47L180.55 48.28L187.207 14.296L197.703 13.08L196.679 19.352C198.684 15.1707 202.759 13.08 208.903 13.08C211.889 13.08 214.001 13.72 215.239 15C216.519 16.2373 217.159 18.264 217.159 21.08C217.159 23.7253 216.476 28.1413 215.111 34.328C214.471 37.1013 214.151 39.0213 214.151 40.088C214.151 41.112 214.428 41.9227 214.983 42.52C215.58 43.1173 216.305 43.4587 217.159 43.544C216.732 44.9947 215.772 46.1467 214.279 47C212.828 47.8533 211.143 48.28 209.223 48.28ZM225.028 45.08C224.046 43.9707 223.321 42.5413 222.852 40.792C222.425 39.0427 222.212 36.7387 222.212 33.88C222.212 31.0213 222.702 28.2907 223.684 25.688C224.665 23.0853 226.052 20.8453 227.844 18.968C231.513 15.0427 236.377 13.08 242.436 13.08C244.612 13.08 246.489 13.4427 248.068 14.168L259.012 13.08L254.276 38.04C254.148 38.552 254.083 39.2773 254.083 40.216C254.083 41.1547 254.361 41.9227 254.916 42.52C255.513 43.1173 256.238 43.4587 257.092 43.544C256.665 44.9947 255.662 46.1467 254.083 47C252.548 47.8533 250.905 48.28 249.156 48.28C247.406 48.28 245.934 47.9387 244.74 47.256C243.588 46.616 242.841 45.7413 242.5 44.632C241.817 45.6987 240.75 46.5733 239.3 47.256C237.849 47.9387 236.142 48.28 234.18 48.28C232.26 48.28 230.51 48.024 228.932 47.512C227.353 47 226.052 46.1893 225.028 45.08ZM238.532 19.096C238.062 19.864 237.614 20.9093 237.188 22.232C236.761 23.512 236.185 25.9013 235.46 29.4C234.777 32.856 234.436 35.8213 234.436 38.296C234.436 40.7707 234.628 42.3707 235.012 43.096C235.396 43.8213 235.929 44.184 236.612 44.184C237.977 44.184 239.15 43.544 240.132 42.264C241.156 40.9413 241.86 39.128 242.244 36.824L245.636 18.072C244.74 17.304 243.758 16.92 242.692 16.92C241.668 16.92 240.836 17.0907 240.196 17.432C239.598 17.7733 239.044 18.328 238.532 19.096ZM287.487 4.312C297.94 4.312 303.167 8.00266 303.167 15.384C303.167 19.4373 301.866 22.68 299.263 25.112C296.703 27.544 293.183 28.76 288.703 28.76C286.612 28.76 284.756 28.1627 283.135 26.968C282.367 26.456 281.727 25.8587 281.215 25.176C284.33 25.176 286.698 24.2373 288.319 22.36C289.983 20.44 290.815 17.624 290.815 13.912C290.815 10.2 288.98 8.344 285.311 8.344H283.775C283.519 8.344 283.284 8.36533 283.071 8.408L275.711 47H261.823L269.695 5.08C274.26 4.65333 277.866 4.41867 280.511 4.376C283.156 4.33333 285.482 4.312 287.487 4.312ZM306.215 45.08C305.234 43.9707 304.508 42.5413 304.039 40.792C303.612 39.0427 303.399 36.7387 303.399 33.88C303.399 31.0213 303.89 28.2907 304.871 25.688C305.852 23.0853 307.239 20.8453 309.031 18.968C312.7 15.0427 317.564 13.08 323.623 13.08C325.799 13.08 327.676 13.4427 329.255 14.168L340.199 13.08L335.463 38.04C335.335 38.552 335.271 39.2773 335.271 40.216C335.271 41.1547 335.548 41.9227 336.103 42.52C336.7 43.1173 337.426 43.4587 338.279 43.544C337.852 44.9947 336.85 46.1467 335.271 47C333.735 47.8533 332.092 48.28 330.343 48.28C328.594 48.28 327.122 47.9387 325.927 47.256C324.775 46.616 324.028 45.7413 323.687 44.632C323.004 45.6987 321.938 46.5733 320.487 47.256C319.036 47.9387 317.33 48.28 315.367 48.28C313.447 48.28 311.698 48.024 310.119 47.512C308.54 47 307.239 46.1893 306.215 45.08ZM319.719 19.096C319.25 19.864 318.802 20.9093 318.375 22.232C317.948 23.512 317.372 25.9013 316.647 29.4C315.964 32.856 315.623 35.8213 315.623 38.296C315.623 40.7707 315.815 42.3707 316.199 43.096C316.583 43.8213 317.116 44.184 317.799 44.184C319.164 44.184 320.338 43.544 321.319 42.264C322.343 40.9413 323.047 39.128 323.431 36.824L326.823 18.072C325.927 17.304 324.946 16.92 323.879 16.92C322.855 16.92 322.023 17.0907 321.383 17.432C320.786 17.7733 320.231 18.328 319.719 19.096ZM358.947 43.48C357.624 46.68 354.851 48.28 350.627 48.28C348.493 48.28 346.744 47.5333 345.379 46.04C344.269 44.8027 343.715 43.48 343.715 42.072C343.715 38.872 344.461 33.7733 345.955 26.776L350.627 2.2L363.619 0.919998L357.411 33.304C356.685 36.4613 356.323 38.5947 356.323 39.704C356.323 42.136 357.197 43.3947 358.947 43.48Z" fill="#DD9176"/>
<path d="M41.5755 25.112L41.2341 24.7467L41.2311 24.7495L41.5755 25.112ZM25.4475 26.968L25.7441 26.5655L25.7346 26.5585L25.7249 26.552L25.4475 26.968ZM23.5275 25.176V24.676H22.5275L23.1275 25.476L23.5275 25.176ZM30.6315 22.36L30.2537 22.0325L30.2531 22.0332L30.6315 22.36ZM25.3835 8.408L25.2854 7.91771L24.9554 7.98371L24.8924 8.31433L25.3835 8.408ZM18.0235 47V47.5H18.4372L18.5146 47.0937L18.0235 47ZM4.1355 47L3.64409 46.9077L3.53287 47.5H4.1355V47ZM12.0075 5.08L11.961 4.58217L11.5857 4.61724L11.5161 4.98772L12.0075 5.08ZM22.8235 4.376L22.8316 4.87593L22.8316 4.87593L22.8235 4.376ZM29.7995 4.812C34.9826 4.812 38.7804 5.72972 41.2711 7.48843C43.7299 9.22465 44.9795 11.827 44.9795 15.384H45.9795C45.9795 11.5596 44.6158 8.62601 41.8479 6.67156C39.1119 4.73961 35.0698 3.812 29.7995 3.812V4.812ZM44.9795 15.384C44.9795 19.3198 43.7212 22.4227 41.2341 24.7467L41.9169 25.4773C44.6351 22.9373 45.9795 19.5548 45.9795 15.384H44.9795ZM41.2311 24.7495C38.7872 27.0712 35.4032 28.26 31.0155 28.26V29.26C35.5878 29.26 39.2438 28.0168 41.9199 25.4745L41.2311 24.7495ZM31.0155 28.26C29.0272 28.26 27.2761 27.6943 25.7441 26.5655L25.1509 27.3705C26.8616 28.631 28.8224 29.26 31.0155 29.26V28.26ZM25.7249 26.552C25.0002 26.0688 24.4028 25.5098 23.9275 24.876L23.1275 25.476C23.6762 26.2076 24.3588 26.8432 25.1701 27.384L25.7249 26.552ZM23.5275 25.676C26.7473 25.676 29.2702 24.7012 31.0099 22.6868L30.2531 22.0332C28.7502 23.7734 26.537 24.676 23.5275 24.676V25.676ZM31.0093 22.6875C32.7816 20.6426 33.6275 17.6901 33.6275 13.912H32.6275C32.6275 17.5579 31.8094 20.2374 30.2537 22.0325L31.0093 22.6875ZM33.6275 13.912C33.6275 11.9804 33.15 10.4395 32.1071 9.38449C31.0631 8.3284 29.5367 7.844 27.6235 7.844V8.844C29.3796 8.844 30.6052 9.2876 31.3959 10.0875C32.1877 10.8885 32.6275 12.1316 32.6275 13.912H33.6275ZM27.6235 7.844H26.0875V8.844H27.6235V7.844ZM26.0875 7.844C25.8042 7.844 25.5361 7.86757 25.2854 7.91771L25.4816 8.89829C25.6575 8.86309 25.8588 8.844 26.0875 8.844V7.844ZM24.8924 8.31433L17.5324 46.9063L18.5146 47.0937L25.8746 8.50167L24.8924 8.31433ZM18.0235 46.5H4.1355V47.5H18.0235V46.5ZM4.62691 47.0923L12.4989 5.17228L11.5161 4.98772L3.64409 46.9077L4.62691 47.0923ZM12.054 5.57783C16.6144 5.15163 20.205 4.9183 22.8316 4.87593L22.8154 3.87606C20.1513 3.91903 16.5313 4.15503 11.961 4.58217L12.054 5.57783ZM22.8316 4.87593C25.475 4.8333 27.7975 4.812 29.7995 4.812V3.812C27.7908 3.812 25.4627 3.83337 22.8154 3.87606L22.8316 4.87593ZM71.6955 36.184L71.9767 35.7705L71.5413 35.4745L71.2681 35.9245L71.6955 36.184ZM72.0795 43.608L72.4715 43.9184L72.4715 43.9184L72.0795 43.608ZM68.8795 46.168L69.1086 46.6124L69.1088 46.6123L68.8795 46.168ZM53.3275 47.32L53.1519 47.7882L53.1557 47.7896L53.3275 47.32ZM49.0395 44.568L49.3995 44.2209L49.3931 44.2144L49.0395 44.568ZM50.8955 19.416L51.2688 19.7487L51.2692 19.7482L50.8955 19.416ZM75.4075 15.64L75.7329 15.2604L75.7316 15.2592L75.4075 15.64ZM58.1915 31.96V31.46H57.7625L57.6973 31.884L58.1915 31.96ZM59.2155 39.128L58.881 39.4996L58.8907 39.5084L58.9009 39.5166L59.2155 39.128ZM67.9835 39.128L68.1791 39.5882L68.1845 39.5858L67.9835 39.128ZM58.6395 29.208L58.1475 29.1189L58.0409 29.708H58.6395V29.208ZM65.8075 26.392L65.4496 26.0426L65.4417 26.0511L65.8075 26.392ZM67.8555 17.176L67.4297 17.438L67.4417 17.4576L67.4555 17.476L67.8555 17.176ZM64.2075 16.792L64.4045 17.2516L64.4118 17.2484L64.4189 17.2451L64.2075 16.792ZM62.3515 18.584L62.7534 18.8814L62.7592 18.8737L62.7646 18.8657L62.3515 18.584ZM71.4143 36.5975C72.3087 37.2056 72.7955 38.2003 72.7955 39.704H73.7955C73.7955 37.9651 73.2156 36.613 71.9767 35.7705L71.4143 36.5975ZM72.7955 39.704C72.7955 41.1943 72.4145 42.3793 71.6875 43.2976L72.4715 43.9184C73.3658 42.7887 73.7955 41.371 73.7955 39.704H72.7955ZM71.6875 43.2976C70.9267 44.2587 69.9185 45.0691 68.6502 45.7237L69.1088 46.6123C70.4858 45.9016 71.611 45.0053 72.4715 43.9184L71.6875 43.2976ZM68.6504 45.7236C65.9874 47.0967 63.2283 47.78 60.3675 47.78V48.78C63.3947 48.78 66.3103 48.0553 69.1086 46.6124L68.6504 45.7236ZM60.3675 47.78C57.4521 47.78 55.1711 47.4621 53.4993 46.8504L53.1557 47.7896C54.9826 48.4579 57.3949 48.78 60.3675 48.78V47.78ZM53.5031 46.8518C51.8592 46.2354 50.4948 45.3569 49.3994 44.2209L48.6796 44.9151C49.8882 46.1684 51.3825 47.1246 53.1519 47.7882L53.5031 46.8518ZM49.3931 44.2144C47.2508 42.0722 46.1475 39.0148 46.1475 34.968H45.1475C45.1475 39.1986 46.3055 42.5411 48.6859 44.9216L49.3931 44.2144ZM46.1475 34.968C46.1475 28.6191 47.8691 23.5629 51.2688 19.7487L50.5222 19.0833C46.9246 23.1197 45.1475 28.4315 45.1475 34.968H46.1475ZM51.2692 19.7482C54.9139 15.6479 59.9099 13.58 66.3195 13.58V12.58C59.6731 12.58 54.3865 14.7361 50.5218 19.0838L51.2692 19.7482ZM66.3195 13.58C70.3153 13.58 73.2062 14.4231 75.0834 16.0208L75.7316 15.2592C73.5981 13.4435 70.4304 12.58 66.3195 12.58V13.58ZM75.0821 16.0196C76.4569 17.198 77.1475 18.7408 77.1475 20.696H78.1475C78.1475 18.4698 77.3448 16.642 75.7329 15.2604L75.0821 16.0196ZM77.1475 20.696C77.1475 24.2727 75.6208 26.9236 72.533 28.7113C69.4036 30.5231 64.645 31.46 58.1915 31.46V32.46C64.7087 32.46 69.6781 31.5196 73.034 29.5767C76.4315 27.6098 78.1475 24.6286 78.1475 20.696H77.1475ZM57.6973 31.884C57.5235 33.0138 57.4355 34.0635 57.4355 35.032H58.4355C58.4355 34.1231 58.5182 33.1249 58.6857 32.036L57.6973 31.884ZM57.4355 35.032C57.4355 37.0408 57.8677 38.5876 58.881 39.4996L59.55 38.7564C58.8566 38.1323 58.4355 36.9485 58.4355 35.032H57.4355ZM58.9009 39.5166C59.916 40.3383 61.3014 40.716 62.9915 40.716V39.716C61.4389 39.716 60.307 39.3683 59.5301 38.7394L58.9009 39.5166ZM62.9915 40.716C64.689 40.716 66.4194 40.336 68.1791 39.5882L67.7879 38.6678C66.1343 39.3706 64.5366 39.716 62.9915 39.716V40.716ZM68.1845 39.5858C69.9942 38.7913 71.3279 37.7529 72.1229 36.4435L71.2681 35.9245C70.6124 37.0044 69.4715 37.9287 67.7825 38.6702L68.1845 39.5858ZM58.6395 29.708C61.7803 29.708 64.3123 28.73 66.1733 26.7329L65.4417 26.0511C63.804 27.8086 61.5574 28.708 58.6395 28.708V29.708ZM66.1653 26.7413C68.0189 24.8425 68.9315 22.3852 68.9315 19.416H67.9315C67.9315 22.1641 67.0948 24.3575 65.4497 26.0427L66.1653 26.7413ZM68.9315 19.416C68.9315 18.3808 68.7308 17.5098 68.2555 16.876L67.4555 17.476C67.7482 17.8662 67.9315 18.4885 67.9315 19.416H68.9315ZM68.2813 16.9139C67.8373 16.1924 67.1309 15.844 66.2555 15.844V16.844C66.8308 16.844 67.191 17.0503 67.4297 17.438L68.2813 16.9139ZM66.2555 15.844C65.4591 15.844 64.7041 16.0085 63.9961 16.3389L64.4189 17.2451C64.9909 16.9782 65.6012 16.844 66.2555 16.844V15.844ZM64.0105 16.3324C63.282 16.6446 62.5969 17.3366 61.9384 18.3023L62.7646 18.8657C63.3861 17.9541 63.9383 17.4514 64.4045 17.2516L64.0105 16.3324ZM61.9496 18.2866C60.3006 20.515 59.047 24.1501 58.1475 29.1189L59.1315 29.2971C60.024 24.3673 61.2451 20.9197 62.7534 18.8814L61.9496 18.2866ZM99.87 29.016L99.4342 28.7709L99.2483 29.1014L99.5164 29.3696L99.87 29.016ZM97.054 20.632L97.4763 20.8998L97.4809 20.8923L97.054 20.632ZM94.878 26.648L95.3715 26.7287L95.3724 26.7226L94.878 26.648ZM91.55 47L91.5981 47.4977L91.9813 47.4607L92.0434 47.0807L91.55 47ZM78.302 48.28L77.811 48.1855L77.6847 48.842L78.3501 48.7777L78.302 48.28ZM84.83 14.36L84.7698 13.8636L84.4079 13.9075L84.339 14.2655L84.83 14.36ZM95.39 13.08L95.8822 13.1677L96.0008 12.5023L95.3298 12.5836L95.39 13.08ZM94.238 19.544L93.7458 19.4563L94.6879 19.7622L94.238 19.544ZM110.11 15L109.762 15.3593L109.768 15.3648L110.11 15ZM109.534 27.288L109.189 26.9257L109.185 26.93L109.534 27.288ZM100.306 29.2611C101.878 26.4655 102.674 23.6299 102.674 20.76H101.674C101.674 23.4368 100.934 26.1052 99.4342 28.7709L100.306 29.2611ZM102.674 20.76C102.674 19.7976 102.503 18.9857 102.084 18.4036C101.642 17.7912 100.981 17.508 100.19 17.508V18.508C100.722 18.508 101.053 18.6834 101.272 18.9884C101.514 19.3237 101.674 19.8878 101.674 20.76H102.674ZM100.19 17.508C99.5267 17.508 98.8998 17.793 98.3171 18.2805C97.7372 18.7658 97.176 19.4715 96.6271 20.3717L97.4809 20.8923C97.9987 20.0432 98.4934 19.4369 98.9589 19.0475C99.4216 18.6603 99.8293 18.508 100.19 18.508V17.508ZM96.6317 20.3642C95.4815 22.1781 94.7342 24.2505 94.3836 26.5734L95.3724 26.7226C95.7045 24.5228 96.4078 22.5846 97.4763 20.8998L96.6317 20.3642ZM94.3846 26.5673L91.0566 46.9193L92.0434 47.0807L95.3714 26.7287L94.3846 26.5673ZM91.5019 46.5023L78.2539 47.7823L78.3501 48.7777L91.5981 47.4977L91.5019 46.5023ZM78.793 48.3745L85.321 14.4545L84.339 14.2655L77.811 48.1855L78.793 48.3745ZM84.8902 14.8564L95.4502 13.5764L95.3298 12.5836L84.7698 13.8636L84.8902 14.8564ZM94.8978 12.9923L93.7458 19.4563L94.7302 19.6317L95.8822 13.1677L94.8978 12.9923ZM94.6879 19.7622C95.7005 17.6749 97.0143 16.1368 98.6181 15.118C100.221 14.0997 102.146 13.58 104.414 13.58V12.58C101.989 12.58 99.8707 13.1376 98.0819 14.2739C96.2937 15.4099 94.8661 17.1038 93.7881 19.3258L94.6879 19.7622ZM104.414 13.58C106.805 13.58 108.561 14.197 109.762 15.3593L110.458 14.6407C109.013 13.2429 106.973 12.58 104.414 12.58V13.58ZM109.768 15.3648C110.997 16.5166 111.658 18.3225 111.658 20.888H112.658C112.658 18.1628 111.954 16.0434 110.452 14.6352L109.768 15.3648ZM111.658 20.888C111.658 23.3656 110.831 25.364 109.189 26.9257L109.879 27.6503C111.735 25.884 112.658 23.6157 112.658 20.888H111.658ZM109.185 26.93C107.593 28.4826 105.404 29.284 102.558 29.284V30.284C105.6 30.284 108.062 29.4214 109.883 27.646L109.185 26.93ZM102.558 29.284C101.317 29.284 100.592 29.0305 100.224 28.6624L99.5164 29.3696C100.172 30.0255 101.239 30.284 102.558 30.284V29.284ZM132.349 24.536L131.881 24.3591L131.743 24.7258L132.066 24.948L132.349 24.536ZM127.229 17.816L126.86 17.4789L126.859 17.4797L127.229 17.816ZM126.973 23.32L126.619 23.6736L126.627 23.6813L126.973 23.32ZM132.221 27.032L131.961 27.4588L131.961 27.4588L132.221 27.032ZM137.405 31.256L137.002 31.5517L137.007 31.5593L137.013 31.5667L137.405 31.256ZM137.597 40.664L137.157 40.4262L137.152 40.4356L137.597 40.664ZM134.141 44.696L133.843 44.2946L133.842 44.2954L134.141 44.696ZM114.301 46.104L114.582 45.6905L114.576 45.6867L114.301 46.104ZM112.893 37.528L112.582 37.1362L112.576 37.1416L112.893 37.528ZM121.789 37.08L122.254 37.2633L122.408 36.8736L122.051 36.6542L121.789 37.08ZM127.101 43.864L127.443 44.2288L127.443 44.2288L127.101 43.864ZM122.621 34.52L122.346 34.9379L122.355 34.9434L122.621 34.52ZM117.117 30.424L116.735 30.7465L116.743 30.7562L117.117 30.424ZM116.605 20.824L117.052 21.0476L117.052 21.0476L116.605 20.824ZM120.061 16.664L119.757 16.2673L119.756 16.2681L120.061 16.664ZM139.453 14.744L139.171 15.1567L139.176 15.16L139.453 14.744ZM140.221 23.64L139.881 23.2731L139.874 23.2796L140.221 23.64ZM132.817 24.7129C133.43 23.0906 133.745 21.5582 133.745 20.12H132.745C132.745 21.4125 132.462 22.824 131.881 24.3591L132.817 24.7129ZM133.745 20.12C133.745 18.8064 133.48 17.7284 132.865 16.9725C132.234 16.1967 131.304 15.844 130.173 15.844V16.844C131.09 16.844 131.696 17.1206 132.089 17.6035C132.498 18.1062 132.745 18.9162 132.745 20.12H133.745ZM130.173 15.844C128.933 15.844 127.826 16.4211 126.86 17.4789L127.598 18.1531C128.424 17.2482 129.28 16.844 130.173 16.844V15.844ZM126.859 17.4797C125.928 18.5041 125.449 19.6888 125.449 21.016H126.449C126.449 19.9539 126.824 19.0052 127.599 18.1523L126.859 17.4797ZM125.449 21.016C125.449 22.0198 125.856 22.9105 126.619 23.6736L127.327 22.9664C126.724 22.3641 126.449 21.7189 126.449 21.016H125.449ZM126.627 23.6813C127.65 24.6599 129.44 25.9206 131.961 27.4588L132.481 26.6052C129.968 25.0714 128.258 23.8574 127.319 22.9587L126.627 23.6813ZM131.961 27.4588C134.462 28.9849 136.122 30.3519 137.002 31.5517L137.808 30.9603C136.811 29.6001 135.015 28.1511 132.481 26.6052L131.961 27.4588ZM137.013 31.5667C137.917 32.706 138.377 34.0866 138.377 35.736H139.377C139.377 33.8867 138.856 32.2806 137.797 30.9453L137.013 31.5667ZM138.377 35.736C138.377 37.3553 137.973 38.9167 137.157 40.4262L138.037 40.9018C138.928 39.2539 139.377 37.53 139.377 35.736H138.377ZM137.152 40.4356C136.378 41.9428 135.278 43.2287 133.843 44.2946L134.439 45.0974C135.991 43.9446 137.194 42.5425 138.042 40.8924L137.152 40.4356ZM133.842 44.2954C130.75 46.604 126.704 47.78 121.661 47.78V48.78C126.858 48.78 131.132 47.5667 134.44 45.0966L133.842 44.2954ZM121.661 47.78C118.98 47.78 116.626 47.0805 114.582 45.6905L114.02 46.5175C116.242 48.0288 118.795 48.78 121.661 48.78V47.78ZM114.576 45.6867C112.504 44.3191 111.601 42.9154 111.601 41.496H110.601C110.601 43.4046 111.831 45.0729 114.026 46.5213L114.576 45.6867ZM111.601 41.496C111.601 39.9686 112.141 38.7927 113.21 37.9144L112.576 37.1416C111.256 38.2259 110.601 39.6954 110.601 41.496H111.601ZM113.204 37.9197C114.341 37.0179 115.742 36.556 117.437 36.556V35.556C115.548 35.556 113.92 36.0755 112.582 37.1363L113.204 37.9197ZM117.437 36.556C119.17 36.556 120.521 36.8866 121.527 37.5058L122.051 36.6542C120.839 35.9081 119.288 35.556 117.437 35.556V36.556ZM121.324 36.8967C120.758 38.3317 120.457 39.572 120.457 40.6H121.457C121.457 39.7507 121.71 38.6443 122.254 37.2633L121.324 36.8967ZM120.457 40.6C120.457 42.0668 120.766 43.2602 121.472 44.0915C122.19 44.9385 123.246 45.324 124.541 45.324V44.324C123.447 44.324 122.71 44.0055 122.234 43.4445C121.745 42.8678 121.457 41.9492 121.457 40.6H120.457ZM124.541 45.324C125.679 45.324 126.659 44.9642 127.443 44.2288L126.759 43.4992C126.178 44.0438 125.451 44.324 124.541 44.324V45.324ZM127.443 44.2288C128.245 43.4768 128.625 42.4597 128.625 41.24H127.625C127.625 42.239 127.322 42.9712 126.759 43.4992L127.443 44.2288ZM128.625 41.24C128.625 40.0032 128.102 38.7909 127.136 37.6112C126.172 36.4341 124.747 35.2645 122.887 34.0966L122.355 34.9434C124.164 36.0795 125.492 37.1819 126.362 38.2448C127.231 39.3051 127.625 40.3008 127.625 41.24H128.625ZM122.896 34.1021C121.406 33.1236 120.21 32.2975 119.304 31.6229C118.389 30.942 117.795 30.4345 117.491 30.0918L116.743 30.7562C117.121 31.1815 117.787 31.7406 118.706 32.4251C119.635 33.1159 120.849 33.9538 122.346 34.9379L122.896 34.1021ZM117.499 30.1016C116.419 28.8219 115.889 27.3988 115.889 25.816H114.889C114.889 27.6465 115.511 29.2955 116.735 30.7464L117.499 30.1016ZM115.889 25.816C115.889 24.1918 116.274 22.6039 117.052 21.0476L116.158 20.6004C115.315 22.2867 114.889 24.0269 114.889 25.816H115.889ZM117.052 21.0476C117.828 19.4964 118.93 18.1678 120.366 17.0599L119.756 16.2681C118.205 17.4642 117.004 18.9089 116.158 20.6004L117.052 21.0476ZM120.365 17.0607C123.365 14.7597 127.511 13.58 132.861 13.58V12.58C127.373 12.58 122.986 13.7896 119.757 16.2673L120.365 17.0607ZM132.861 13.58C135.574 13.58 137.66 14.1232 139.171 15.1567L139.735 14.3313C138.003 13.1461 135.695 12.58 132.861 12.58V13.58ZM139.176 15.16C140.711 16.1838 141.449 17.5264 141.449 19.224H142.449C142.449 17.1669 141.523 15.5228 139.73 14.328L139.176 15.16ZM141.449 19.224C141.449 20.9916 140.911 22.3195 139.881 23.2731L140.561 24.0069C141.835 22.8272 142.449 21.211 142.449 19.224H141.449ZM139.874 23.2796C138.886 24.2303 137.448 24.74 135.485 24.74V25.74C137.618 25.74 139.338 25.1831 140.568 24.0004L139.874 23.2796ZM135.485 24.74C134.115 24.74 133.191 24.5084 132.632 24.124L132.066 24.948C132.872 25.5023 134.039 25.74 135.485 25.74V24.74ZM149.394 19.544L149.774 19.8684L149.775 19.8682L149.394 19.544ZM174.866 16.28L175.202 15.91L174.866 16.28ZM172.882 42.392L172.515 42.0525L172.513 42.0549L172.882 42.392ZM158.546 24.792L158.06 24.6735L158.058 24.6822L158.546 24.792ZM157.202 31.448L156.711 31.3559L156.711 31.3559L157.202 31.448ZM156.946 43.352L156.494 43.5649L156.499 43.5755L156.504 43.5859L156.946 43.352ZM161.362 43.736L161.066 43.3328L161.06 43.3377L161.053 43.3428L161.362 43.736ZM163.026 41.368L162.567 41.1686L162.566 41.1732L163.026 41.368ZM165.33 32.984L165.821 33.0765L165.822 33.0755L165.33 32.984ZM166.418 25.112L165.919 25.085L165.918 25.0985L166.418 25.112ZM166.034 18.072L165.577 18.2751L165.577 18.2751L166.034 18.072ZM161.682 17.816L162.023 18.1815L162.023 18.1815L161.682 17.816ZM158.29 47.78C153.666 47.78 150.292 46.6918 148.073 44.6039C145.859 42.5213 144.71 39.3629 144.71 35.032H143.71C143.71 39.5331 144.907 42.9987 147.387 45.3321C149.862 47.6602 153.527 48.78 158.29 48.78V47.78ZM144.71 35.032C144.71 28.8567 146.409 23.8157 149.774 19.8684L149.014 19.2196C145.467 23.379 143.71 28.6633 143.71 35.032H144.71ZM149.775 19.8682C153.337 15.6849 158.203 13.58 164.434 13.58V12.58C157.95 12.58 152.79 14.7844 149.013 19.2198L149.775 19.8682ZM164.434 13.58C168.973 13.58 172.309 14.6314 174.53 16.65L175.202 15.91C172.729 13.6619 169.111 12.58 164.434 12.58V13.58ZM174.53 16.65C176.735 18.6547 177.886 21.8012 177.886 26.2H178.886C178.886 21.6388 177.69 18.172 175.202 15.91L174.53 16.65ZM177.886 26.2C177.886 32.9353 176.078 38.1994 172.515 42.0525L173.249 42.7315C177.025 38.6486 178.886 33.1181 178.886 26.2H177.886ZM172.513 42.0549C169.039 45.8599 164.318 47.78 158.29 47.78V48.78C164.55 48.78 169.557 46.7748 173.251 42.7291L172.513 42.0549ZM159.497 20.2369C158.969 21.425 158.491 22.9064 158.06 24.6735L159.032 24.9105C159.454 23.1789 159.915 21.759 160.411 20.6431L159.497 20.2369ZM158.058 24.6822C157.672 26.3971 157.223 28.6223 156.711 31.3559L157.693 31.5401C158.205 28.8124 158.652 26.6002 159.034 24.9018L158.058 24.6822ZM156.711 31.3559C156.192 34.1225 155.934 37.2047 155.934 40.6H156.934C156.934 37.254 157.188 34.2348 157.693 31.5401L156.711 31.3559ZM155.934 40.6C155.934 41.7564 156.111 42.7525 156.494 43.5649L157.398 43.1391C157.098 42.5008 156.934 41.6623 156.934 40.6H155.934ZM156.504 43.5859C156.993 44.5102 157.871 44.94 158.994 44.94V43.94C158.154 43.94 157.667 43.6445 157.388 43.1181L156.504 43.5859ZM158.994 44.94C160.054 44.94 160.963 44.6857 161.671 44.1292L161.053 43.3428C160.567 43.725 159.896 43.94 158.994 43.94V44.94ZM161.658 44.1392C162.399 43.5958 162.999 42.7155 163.486 41.5628L162.566 41.1732C162.115 42.2392 161.605 42.9376 161.066 43.3328L161.658 44.1392ZM163.485 41.5674C164.36 39.5545 165.136 36.7176 165.821 33.0765L164.839 32.8915C164.159 36.5038 163.399 39.2562 162.567 41.1686L163.485 41.5674ZM165.822 33.0755C166.504 29.4056 166.874 26.7473 166.918 25.1255L165.918 25.0985C165.877 26.634 165.521 29.2238 164.838 32.8925L165.822 33.0755ZM166.917 25.139C167.003 23.5544 167.046 22.1796 167.046 21.016H166.046C166.046 22.1564 166.004 23.5123 165.919 25.085L166.917 25.139ZM167.046 21.016C167.046 19.7787 166.87 18.7218 166.491 17.8689L165.577 18.2751C165.881 18.9582 166.046 19.8639 166.046 21.016H167.046ZM166.491 17.8689C166.282 17.3987 165.964 17.0257 165.533 16.7756C165.107 16.5285 164.604 16.42 164.05 16.42V17.42C164.477 17.42 164.795 17.5035 165.031 17.6404C165.262 17.7743 165.445 17.9773 165.577 18.2751L166.491 17.8689ZM164.05 16.42C162.995 16.42 162.08 16.7601 161.341 17.4505L162.023 18.1815C162.564 17.6772 163.228 17.42 164.05 17.42V16.42ZM161.341 17.4505C160.635 18.1091 160.025 19.0484 159.497 20.2369L160.411 20.6431C160.907 19.5276 161.449 18.7175 162.023 18.1815L161.341 17.4505ZM201.479 42.264L200.979 42.2448L200.979 42.2544V42.264H201.479ZM202.055 37.784L201.564 37.688L201.563 37.6946L202.055 37.784ZM203.207 31.896L202.717 31.7943L202.716 31.8L203.207 31.896ZM197.191 27.544L196.7 27.4453L196.7 27.4487L197.191 27.544ZM193.415 47L193.464 47.4975L193.834 47.4607L193.905 47.0953L193.415 47ZM180.55 48.28L180.06 48.1839L179.931 48.8442L180.6 48.7775L180.55 48.28ZM187.207 14.296L187.149 13.7993L186.786 13.8414L186.716 14.1999L187.207 14.296ZM197.703 13.08L198.196 13.1606L198.303 12.5071L197.645 12.5833L197.703 13.08ZM196.679 19.352L196.185 19.2714L197.129 19.5682L196.679 19.352ZM215.239 15L214.879 15.3475L214.885 15.3536L214.891 15.3595L215.239 15ZM215.111 34.328L215.598 34.4404L215.599 34.4358L215.111 34.328ZM214.983 42.52L214.616 42.8602L214.622 42.867L214.629 42.8736L214.983 42.52ZM217.159 43.544L217.638 43.6851L217.808 43.1065L217.208 43.0465L217.159 43.544ZM214.279 47L214.03 46.5658L214.025 46.569L214.279 47ZM209.223 47.78C206.692 47.78 204.886 47.2862 203.721 46.3811C202.58 45.4947 201.979 44.1538 201.979 42.264H200.979C200.979 44.3849 201.667 46.0519 203.108 47.1709C204.524 48.2711 206.59 48.78 209.223 48.78V47.78ZM201.978 42.2832C202.019 41.2083 202.207 39.7415 202.546 37.8734L201.563 37.6946C201.22 39.5812 201.023 41.101 200.979 42.2448L201.978 42.2832ZM202.545 37.88L203.697 31.992L202.716 31.8L201.564 37.688L202.545 37.88ZM203.696 31.9977C204.273 29.2216 204.706 26.9803 204.995 25.2757C205.283 23.5844 205.435 22.387 205.435 21.72H204.435C204.435 22.2903 204.298 23.4076 204.01 25.1083C203.723 26.7957 203.292 29.0237 202.717 31.7943L203.696 31.9977ZM205.435 21.72C205.435 20.4502 205.251 19.4157 204.822 18.6831C204.368 17.9092 203.659 17.508 202.759 17.508V18.508C203.309 18.508 203.687 18.7254 203.959 19.1889C204.255 19.6936 204.435 20.5152 204.435 21.72H205.435ZM202.759 17.508C201.284 17.508 200.079 18.4822 199.111 20.1399C198.141 21.7999 197.344 24.2472 196.7 27.4453L197.681 27.6427C198.317 24.4835 199.088 22.1628 199.974 20.6441C200.862 19.1231 201.801 18.508 202.759 18.508V17.508ZM196.7 27.4487L192.924 46.9047L193.905 47.0953L197.681 27.6393L196.7 27.4487ZM193.365 46.5025L180.501 47.7825L180.6 48.7775L193.464 47.4975L193.365 46.5025ZM181.041 48.3761L187.697 14.3921L186.716 14.1999L180.06 48.1839L181.041 48.3761ZM187.264 14.7927L197.76 13.5767L197.645 12.5833L187.149 13.7993L187.264 14.7927ZM197.209 12.9994L196.185 19.2714L197.172 19.4326L198.196 13.1606L197.209 12.9994ZM197.129 19.5682C199.024 15.6182 202.877 13.58 208.903 13.58V12.58C202.64 12.58 198.344 14.7231 196.228 19.1358L197.129 19.5682ZM208.903 13.58C211.841 13.58 213.783 14.2135 214.879 15.3475L215.598 14.6525C214.22 13.2265 211.938 12.58 208.903 12.58V13.58ZM214.891 15.3595C216.03 16.4601 216.659 18.3229 216.659 21.08H217.659C217.659 18.2051 217.007 16.0146 215.586 14.6405L214.891 15.3595ZM216.659 21.08C216.659 23.6652 215.988 28.0336 214.622 34.2202L215.599 34.4358C216.964 28.249 217.659 23.7854 217.659 21.08H216.659ZM214.623 34.2156C213.984 36.9843 213.651 38.9567 213.651 40.088H214.651C214.651 39.086 214.957 37.2184 215.598 34.4404L214.623 34.2156ZM213.651 40.088C213.651 41.2045 213.955 42.1484 214.616 42.8602L215.349 42.1798C214.901 41.697 214.651 41.0195 214.651 40.088H213.651ZM214.629 42.8736C215.309 43.5538 216.142 43.9449 217.109 44.0415L217.208 43.0465C216.468 42.9724 215.85 42.6808 215.336 42.1664L214.629 42.8736ZM216.679 43.4029C216.294 44.7124 215.428 45.7671 214.03 46.5659L214.527 47.4341C216.115 46.5262 217.17 45.277 217.638 43.6851L216.679 43.4029ZM214.025 46.569C212.661 47.3711 211.066 47.78 209.223 47.78V48.78C211.219 48.78 212.994 48.3356 214.532 47.431L214.025 46.569ZM225.028 45.08L224.653 45.4114L224.66 45.4191L225.028 45.08ZM222.852 40.792L222.366 40.9105L222.369 40.9216L222.852 40.792ZM223.684 25.688L224.151 25.8644L224.151 25.8644L223.684 25.688ZM227.844 18.968L228.205 19.3133L228.209 19.3094L227.844 18.968ZM248.068 14.168L247.859 14.6223L247.982 14.679L248.117 14.6655L248.068 14.168ZM259.012 13.08L259.503 13.1732L259.627 12.5163L258.962 12.5825L259.012 13.08ZM254.276 38.04L254.761 38.1613L254.764 38.1473L254.767 38.1332L254.276 38.04ZM254.916 42.52L254.549 42.8602L254.555 42.867L254.562 42.8736L254.916 42.52ZM257.092 43.544L257.571 43.6851L257.741 43.1065L257.141 43.0465L257.092 43.544ZM254.083 47L253.846 46.5601L253.841 46.5629L254.083 47ZM244.74 47.256L244.988 46.8218L244.982 46.8189L244.74 47.256ZM242.5 44.632L242.977 44.485L242.66 43.4536L242.078 44.3625L242.5 44.632ZM239.3 47.256L239.512 47.7084L239.512 47.7084L239.3 47.256ZM228.932 47.512L229.086 47.0364L228.932 47.512ZM238.532 19.096L238.115 18.8186L238.11 18.8269L238.105 18.8353L238.532 19.096ZM237.188 22.232L237.662 22.3901L237.663 22.3855L237.188 22.232ZM235.46 29.4L234.97 29.2985L234.969 29.3031L235.46 29.4ZM235.012 43.096L234.57 43.3299L234.57 43.3299L235.012 43.096ZM240.132 42.264L239.736 41.9579L239.735 41.9598L240.132 42.264ZM242.244 36.824L241.751 36.735L241.75 36.7418L242.244 36.824ZM245.636 18.072L246.128 18.161L246.179 17.8789L245.961 17.6924L245.636 18.072ZM240.196 17.432L239.96 16.9908L239.954 16.9943L239.947 16.9979L240.196 17.432ZM225.402 44.7487C224.482 43.7088 223.788 42.3534 223.334 40.6624L222.369 40.9216C222.854 42.7292 223.61 44.2325 224.653 45.4113L225.402 44.7487ZM223.337 40.6735C222.924 38.9787 222.712 36.7191 222.712 33.88H221.712C221.712 36.7582 221.926 39.1066 222.366 40.9105L223.337 40.6735ZM222.712 33.88C222.712 31.0799 223.192 28.4091 224.151 25.8644L223.216 25.5116C222.212 28.1722 221.712 30.9628 221.712 33.88H222.712ZM224.151 25.8644C225.111 23.32 226.463 21.1386 228.205 19.3132L227.482 18.6228C225.64 20.5521 224.219 22.8507 223.216 25.5116L224.151 25.8644ZM228.209 19.3094C231.771 15.4987 236.496 13.58 242.436 13.58V12.58C236.258 12.58 231.255 14.5867 227.478 18.6266L228.209 19.3094ZM242.436 13.58C244.557 13.58 246.36 13.9337 247.859 14.6223L248.276 13.7137C246.618 12.9516 244.666 12.58 242.436 12.58V13.58ZM248.117 14.6655L259.061 13.5775L258.962 12.5825L248.018 13.6705L248.117 14.6655ZM258.52 12.9868L253.784 37.9468L254.767 38.1332L259.503 13.1732L258.52 12.9868ZM253.79 37.9187C253.648 38.4897 253.583 39.2629 253.583 40.216H254.583C254.583 39.2918 254.647 38.6143 254.761 38.1613L253.79 37.9187ZM253.583 40.216C253.583 41.2604 253.896 42.1564 254.549 42.8602L255.282 42.1798C254.826 41.6889 254.583 41.049 254.583 40.216H253.583ZM254.562 42.8736C255.242 43.5538 256.075 43.9449 257.042 44.0415L257.141 43.0465C256.401 42.9724 255.783 42.6808 255.269 42.1664L254.562 42.8736ZM256.612 43.4029C256.23 44.7022 255.331 45.7575 253.846 46.5601L254.321 47.4399C255.994 46.5359 257.1 45.2872 257.571 43.6851L256.612 43.4029ZM253.841 46.5629C252.379 47.3752 250.819 47.78 249.156 47.78V48.78C250.99 48.78 252.716 48.3315 254.326 47.4371L253.841 46.5629ZM249.156 47.78C247.47 47.78 246.089 47.4512 244.988 46.8219L244.491 47.6901C245.78 48.4262 247.342 48.78 249.156 48.78V47.78ZM244.982 46.8189C243.927 46.2324 243.276 45.4539 242.977 44.485L242.022 44.779C242.406 46.0287 243.248 46.9996 244.497 47.6931L244.982 46.8189ZM242.078 44.3625C241.458 45.3312 240.475 46.1505 239.087 46.8036L239.512 47.7084C241.026 46.9962 242.175 46.0662 242.921 44.9015L242.078 44.3625ZM239.087 46.8036C237.716 47.4487 236.085 47.78 234.18 47.78V48.78C236.2 48.78 237.982 48.4286 239.512 47.7084L239.087 46.8036ZM234.18 47.78C232.304 47.78 230.607 47.5299 229.086 47.0364L228.777 47.9876C230.413 48.5181 232.215 48.78 234.18 48.78V47.78ZM229.086 47.0364C227.58 46.5482 226.355 45.7811 225.395 44.7409L224.66 45.4191C225.748 46.5976 227.125 47.4518 228.777 47.9876L229.086 47.0364ZM238.105 18.8353C237.607 19.6499 237.145 20.7362 236.712 22.0785L237.663 22.3855C238.084 21.0824 238.517 20.0781 238.958 19.3567L238.105 18.8353ZM236.713 22.0739C236.276 23.3855 235.695 25.8019 234.97 29.2985L235.949 29.5015C236.675 26.0007 237.246 23.6385 237.662 22.3901L236.713 22.0739ZM234.969 29.3031C234.282 32.7788 233.936 35.7784 233.936 38.296H234.936C234.936 35.8643 235.271 32.9332 235.95 29.4969L234.969 29.3031ZM233.936 38.296C233.936 39.5439 233.984 40.5843 234.083 41.4116C234.181 42.2254 234.333 42.8827 234.57 43.3299L235.453 42.8621C235.306 42.5839 235.17 42.0786 235.076 41.2924C234.983 40.5197 234.936 39.5227 234.936 38.296H233.936ZM234.57 43.3299C235.019 44.1793 235.703 44.684 236.612 44.684V43.684C236.155 43.684 235.772 43.4634 235.453 42.8621L234.57 43.3299ZM236.612 44.684C238.162 44.684 239.472 43.9465 240.528 42.5682L239.735 41.9598C238.829 43.1415 237.792 43.684 236.612 43.684V44.684ZM240.527 42.5701C241.618 41.1613 242.344 39.2612 242.737 36.9062L241.75 36.7418C241.375 38.9948 240.693 40.7214 239.736 41.9579L240.527 42.5701ZM242.736 36.913L246.128 18.161L245.143 17.983L241.751 36.735L242.736 36.913ZM245.961 17.6924C244.985 16.8556 243.89 16.42 242.692 16.42V17.42C243.626 17.42 244.494 17.7524 245.31 18.4516L245.961 17.6924ZM242.692 16.42C241.617 16.42 240.696 16.5983 239.96 16.9908L240.431 17.8732C240.975 17.5831 241.718 17.42 242.692 17.42V16.42ZM239.947 16.9979C239.264 17.3886 238.657 18.0071 238.115 18.8186L238.948 19.3733C239.431 18.6489 239.933 18.1581 240.444 17.8661L239.947 16.9979ZM299.263 25.112L298.922 24.7467L298.919 24.7495L299.263 25.112ZM283.135 26.968L283.432 26.5655L283.422 26.5585L283.412 26.552L283.135 26.968ZM281.215 25.176V24.676H280.215L280.815 25.476L281.215 25.176ZM288.319 22.36L287.941 22.0325L287.941 22.0332L288.319 22.36ZM283.071 8.408L282.973 7.91771L282.643 7.98371L282.58 8.31433L283.071 8.408ZM275.711 47V47.5H276.125L276.202 47.0937L275.711 47ZM261.823 47L261.332 46.9077L261.22 47.5H261.823V47ZM269.695 5.08L269.648 4.58217L269.273 4.61724L269.204 4.98772L269.695 5.08ZM280.511 4.376L280.519 4.87593L280.519 4.87593L280.511 4.376ZM287.487 4.812C292.67 4.812 296.468 5.72972 298.959 7.48843C301.417 9.22465 302.667 11.827 302.667 15.384H303.667C303.667 11.5596 302.303 8.62601 299.535 6.67156C296.799 4.73961 292.757 3.812 287.487 3.812V4.812ZM302.667 15.384C302.667 19.3198 301.409 22.4227 298.922 24.7467L299.604 25.4773C302.323 22.9373 303.667 19.5548 303.667 15.384H302.667ZM298.919 24.7495C296.475 27.0712 293.091 28.26 288.703 28.26V29.26C293.275 29.26 296.931 28.0168 299.607 25.4745L298.919 24.7495ZM288.703 28.26C286.715 28.26 284.964 27.6943 283.432 26.5655L282.838 27.3705C284.549 28.631 286.51 29.26 288.703 29.26V28.26ZM283.412 26.552C282.688 26.0688 282.09 25.5098 281.615 24.876L280.815 25.476C281.364 26.2076 282.046 26.8432 282.858 27.384L283.412 26.552ZM281.215 25.676C284.435 25.676 286.958 24.7012 288.697 22.6868L287.941 22.0332C286.438 23.7734 284.224 24.676 281.215 24.676V25.676ZM288.697 22.6875C290.469 20.6426 291.315 17.6901 291.315 13.912H290.315C290.315 17.5579 289.497 20.2374 287.941 22.0325L288.697 22.6875ZM291.315 13.912C291.315 11.9804 290.837 10.4395 289.795 9.38449C288.751 8.3284 287.224 7.844 285.311 7.844V8.844C287.067 8.844 288.293 9.2876 289.083 10.0875C289.875 10.8885 290.315 12.1316 290.315 13.912H291.315ZM285.311 7.844H283.775V8.844H285.311V7.844ZM283.775 7.844C283.492 7.844 283.224 7.86757 282.973 7.91771L283.169 8.89829C283.345 8.86309 283.546 8.844 283.775 8.844V7.844ZM282.58 8.31433L275.22 46.9063L276.202 47.0937L283.562 8.50167L282.58 8.31433ZM275.711 46.5H261.823V47.5H275.711V46.5ZM262.314 47.0923L270.186 5.17228L269.204 4.98772L261.332 46.9077L262.314 47.0923ZM269.742 5.57783C274.302 5.15163 277.893 4.9183 280.519 4.87593L280.503 3.87606C277.839 3.91903 274.219 4.15503 269.648 4.58217L269.742 5.57783ZM280.519 4.87593C283.163 4.8333 285.485 4.812 287.487 4.812V3.812C285.478 3.812 283.15 3.83337 280.503 3.87606L280.519 4.87593ZM306.215 45.08L305.84 45.4114L305.848 45.4191L306.215 45.08ZM304.039 40.792L303.553 40.9105L303.556 40.9216L304.039 40.792ZM304.871 25.688L305.339 25.8644L305.339 25.8644L304.871 25.688ZM309.031 18.968L309.393 19.3133L309.396 19.3094L309.031 18.968ZM329.255 14.168L329.046 14.6223L329.169 14.679L329.304 14.6655L329.255 14.168ZM340.199 13.08L340.69 13.1732L340.815 12.5163L340.15 12.5825L340.199 13.08ZM335.463 38.04L335.948 38.1613L335.952 38.1473L335.954 38.1332L335.463 38.04ZM336.103 42.52L335.737 42.8602L335.743 42.867L335.749 42.8736L336.103 42.52ZM338.279 43.544L338.759 43.6851L338.929 43.1065L338.329 43.0465L338.279 43.544ZM335.271 47L335.033 46.5601L335.028 46.5629L335.271 47ZM325.927 47.256L326.175 46.8218L326.17 46.8189L325.927 47.256ZM323.687 44.632L324.165 44.485L323.848 43.4536L323.266 44.3625L323.687 44.632ZM320.487 47.256L320.7 47.7084L320.7 47.7084L320.487 47.256ZM310.119 47.512L310.273 47.0364L310.119 47.512ZM319.719 19.096L319.303 18.8186L319.298 18.8269L319.292 18.8353L319.719 19.096ZM318.375 22.232L318.849 22.3901L318.851 22.3855L318.375 22.232ZM316.647 29.4L316.157 29.2985L316.156 29.3031L316.647 29.4ZM316.199 43.096L315.757 43.3299L315.757 43.3299L316.199 43.096ZM321.319 42.264L320.924 41.9579L320.922 41.9598L321.319 42.264ZM323.431 36.824L322.939 36.735L322.938 36.7418L323.431 36.824ZM326.823 18.072L327.315 18.161L327.366 17.8789L327.148 17.6924L326.823 18.072ZM321.383 17.432L321.148 16.9908L321.141 16.9943L321.135 16.9979L321.383 17.432ZM306.589 44.7487C305.67 43.7088 304.976 42.3534 304.522 40.6624L303.556 40.9216C304.041 42.7292 304.798 44.2325 305.841 45.4113L306.589 44.7487ZM304.525 40.6735C304.111 38.9787 303.899 36.7191 303.899 33.88H302.899C302.899 36.7582 303.113 39.1066 303.553 40.9105L304.525 40.6735ZM303.899 33.88C303.899 31.0799 304.379 28.4091 305.339 25.8644L304.403 25.5116C303.4 28.1722 302.899 30.9628 302.899 33.88H303.899ZM305.339 25.8644C306.298 23.32 307.65 21.1386 309.393 19.3132L308.669 18.6228C306.828 20.5521 305.406 22.8507 304.403 25.5116L305.339 25.8644ZM309.396 19.3094C312.959 15.4987 317.683 13.58 323.623 13.58V12.58C317.445 12.58 312.442 14.5867 308.666 18.6266L309.396 19.3094ZM323.623 13.58C325.745 13.58 327.547 13.9337 329.046 14.6223L329.464 13.7137C327.805 12.9516 325.853 12.58 323.623 12.58V13.58ZM329.304 14.6655L340.248 13.5775L340.15 12.5825L329.206 13.6705L329.304 14.6655ZM339.708 12.9868L334.972 37.9468L335.954 38.1332L340.69 13.1732L339.708 12.9868ZM334.978 37.9187C334.835 38.4897 334.771 39.2629 334.771 40.216H335.771C335.771 39.2918 335.835 38.6143 335.948 38.1613L334.978 37.9187ZM334.771 40.216C334.771 41.2604 335.083 42.1564 335.737 42.8602L336.469 42.1798C336.014 41.6889 335.771 41.049 335.771 40.216H334.771ZM335.749 42.8736C336.43 43.5538 337.263 43.9449 338.229 44.0415L338.329 43.0465C337.588 42.9724 336.971 42.6808 336.457 42.1664L335.749 42.8736ZM337.799 43.4029C337.417 44.7022 336.518 45.7575 335.033 46.5601L335.509 47.4399C337.181 46.5359 338.287 45.2872 338.759 43.6851L337.799 43.4029ZM335.028 46.5629C333.566 47.3752 332.007 47.78 330.343 47.78V48.78C332.178 48.78 333.904 48.3315 335.514 47.4371L335.028 46.5629ZM330.343 47.78C328.658 47.78 327.276 47.4512 326.175 46.8219L325.679 47.6901C326.967 48.4262 328.53 48.78 330.343 48.78V47.78ZM326.17 46.8189C325.114 46.2324 324.463 45.4539 324.165 44.485L323.209 44.779C323.594 46.0287 324.436 46.9996 325.684 47.6931L326.17 46.8189ZM323.266 44.3625C322.646 45.3312 321.662 46.1505 320.274 46.8036L320.7 47.7084C322.213 46.9962 323.363 46.0662 324.108 44.9015L323.266 44.3625ZM320.274 46.8036C318.903 47.4487 317.272 47.78 315.367 47.78V48.78C317.387 48.78 319.169 48.4286 320.7 47.7084L320.274 46.8036ZM315.367 47.78C313.491 47.78 311.795 47.5299 310.273 47.0364L309.965 47.9876C311.6 48.5181 313.403 48.78 315.367 48.78V47.78ZM310.273 47.0364C308.768 46.5482 307.543 45.7811 306.582 44.7409L305.848 45.4191C306.935 46.5976 308.313 47.4518 309.965 47.9876L310.273 47.0364ZM319.292 18.8353C318.795 19.6499 318.332 20.7362 317.899 22.0785L318.851 22.3855C319.271 21.0824 319.705 20.0781 320.146 19.3567L319.292 18.8353ZM317.901 22.0739C317.463 23.3855 316.882 25.8019 316.157 29.2985L317.137 29.5015C317.862 26.0007 318.433 23.6385 318.849 22.3901L317.901 22.0739ZM316.156 29.3031C315.47 32.7788 315.123 35.7784 315.123 38.296H316.123C316.123 35.8643 316.459 32.9332 317.138 29.4969L316.156 29.3031ZM315.123 38.296C315.123 39.5439 315.171 40.5843 315.271 41.4116C315.368 42.2254 315.52 42.8827 315.757 43.3299L316.641 42.8621C316.494 42.5839 316.358 42.0786 316.263 41.2924C316.171 40.5197 316.123 39.5227 316.123 38.296H315.123ZM315.757 43.3299C316.207 44.1793 316.89 44.684 317.799 44.684V43.684C317.343 43.684 316.959 43.4634 316.641 42.8621L315.757 43.3299ZM317.799 44.684C319.349 44.684 320.659 43.9465 321.716 42.5682L320.922 41.9598C320.016 43.1415 318.98 43.684 317.799 43.684V44.684ZM321.714 42.5701C322.805 41.1613 323.532 39.2612 323.924 36.9062L322.938 36.7418C322.562 38.9948 321.881 40.7214 320.924 41.9579L321.714 42.5701ZM323.923 36.913L327.315 18.161L326.331 17.983L322.939 36.735L323.923 36.913ZM327.148 17.6924C326.172 16.8556 325.078 16.42 323.879 16.42V17.42C324.813 17.42 325.682 17.7524 326.498 18.4516L327.148 17.6924ZM323.879 16.42C322.805 16.42 321.884 16.5983 321.148 16.9908L321.618 17.8732C322.162 17.5831 322.905 17.42 323.879 17.42V16.42ZM321.135 16.9979C320.451 17.3886 319.844 18.0071 319.303 18.8186L320.135 19.3733C320.618 18.6489 321.12 18.1581 321.631 17.8661L321.135 16.9979ZM358.947 43.48L359.409 43.671L359.68 43.0152L358.971 42.9806L358.947 43.48ZM345.379 46.04L345.006 46.3738L345.009 46.3774L345.379 46.04ZM345.955 26.776L346.444 26.8804L346.446 26.8694L345.955 26.776ZM350.627 2.2L350.577 1.70241L350.205 1.73909L350.135 2.10662L350.627 2.2ZM363.619 0.919998L364.11 1.01413L364.236 0.356782L363.569 0.422407L363.619 0.919998ZM357.411 33.304L357.898 33.4159L357.9 33.4071L357.902 33.3981L357.411 33.304ZM358.484 43.289C357.862 44.7959 356.908 45.9066 355.625 46.6469C354.334 47.3912 352.678 47.78 350.627 47.78V48.78C352.799 48.78 354.641 48.3688 356.124 47.5131C357.614 46.6534 358.709 45.3641 359.409 43.671L358.484 43.289ZM350.627 47.78C348.625 47.78 347.012 47.0862 345.748 45.7026L345.009 46.3774C346.475 47.9805 348.361 48.78 350.627 48.78V47.78ZM345.751 45.7062C344.708 44.5431 344.215 43.3352 344.215 42.072H343.215C343.215 43.6248 343.83 45.0622 345.006 46.3738L345.751 45.7062ZM344.215 42.072C344.215 38.9289 344.951 33.8748 346.443 26.8804L345.466 26.6716C343.972 33.6718 343.215 38.8151 343.215 42.072H344.215ZM346.446 26.8694L351.118 2.29338L350.135 2.10662L345.463 26.6826L346.446 26.8694ZM350.676 2.69759L363.668 1.41759L363.569 0.422407L350.577 1.70241L350.676 2.69759ZM363.127 0.825862L356.919 33.2099L357.902 33.3981L364.11 1.01413L363.127 0.825862ZM356.923 33.1921C356.2 36.341 355.823 38.5289 355.823 39.704H356.823C356.823 38.6604 357.171 36.5817 357.898 33.4159L356.923 33.1921ZM355.823 39.704C355.823 40.9669 356.047 42.0082 356.568 42.7573C357.107 43.5334 357.918 43.9304 358.922 43.9794L358.971 42.9806C358.226 42.9443 357.724 42.6693 357.389 42.1867C357.035 41.6772 356.823 40.8731 356.823 39.704H355.823Z" fill="#933A1B"/>
</g>
<defs>
<filter id="filter0_dii_62_79" x="0.135498" y="0.919998" width="367.483" height="55.36" filterUnits="userSpaceOnUse" color-interpolation-filters="sRGB">
<feFlood flood-opacity="0" result="BackgroundImageFix"/>
<feColorMatrix in="SourceAlpha" type="matrix" values="0 0 0 0 0 0 0 0 0 0 0 0 0 0 0 0 0 0 127 0" result="hardAlpha"/>
<feOffset dy="4"/>
<feGaussianBlur stdDeviation="2"/>
<feComposite in2="hardAlpha" operator="out"/>
<feColorMatrix type="matrix" values="0 0 0 0 0 0 0 0 0 0 0 0 0 0 0 0 0 0 0.25 0"/>
<feBlend mode="normal" in2="BackgroundImageFix" result="effect1_dropShadow_62_79"/>
<feBlend mode="normal" in="SourceGraphic" in2="effect1_dropShadow_62_79" result="shape"/>
<feColorMatrix in="SourceAlpha" type="matrix" values="0 0 0 0 0 0 0 0 0 0 0 0 0 0 0 0 0 0 127 0" result="hardAlpha"/>
<feOffset dx="-3.8" dy="4"/>
<feGaussianBlur stdDeviation="2"/>
<feComposite in2="hardAlpha" operator="arithmetic" k2="-1" k3="1"/>
<feColorMatrix type="matrix" values="0 0 0 0 1 0 0 0 0 1 0 0 0 0 1 0 0 0 0.25 0"/>
<feBlend mode="normal" in2="shape" result="effect2_innerShadow_62_79"/>
<feColorMatrix in="SourceAlpha" type="matrix" values="0 0 0 0 0 0 0 0 0 0 0 0 0 0 0 0 0 0 127 0" result="hardAlpha"/>
<feOffset dx="3" dy="5"/>
<feGaussianBlur stdDeviation="1.5"/>
<feComposite in2="hardAlpha" operator="arithmetic" k2="-1" k3="1"/>
<feColorMatrix type="matrix" values="0 0 0 0 0 0 0 0 0 0 0 0 0 0 0 0 0 0 0.25 0"/>
<feBlend mode="normal" in2="effect2_innerShadow_62_79" result="effect3_innerShadow_62_79"/>
</filter>
</defs>
</svg>
