<svg width="305" height="49" viewBox="0 0 305 49" fill="none" xmlns="http://www.w3.org/2000/svg">
<path d="M14.616 3.48C18.2853 3.48 21.2293 4.184 23.448 5.592C25.7093 7 26.84 9.26133 26.84 12.376C26.84 13.912 26.392 15.1707 25.496 16.152C24.6 17.0907 23.384 17.56 21.848 17.56C20.3547 17.56 19.2453 17.2187 18.52 16.536C18.8613 15.5973 19.032 14.5307 19.032 13.336C19.032 9.58133 17.368 7.704 14.04 7.704C12.4187 7.704 11.1387 8.10933 10.2 8.92C9.304 9.688 8.856 10.84 8.856 12.376C8.856 13.784 9.21867 15.064 9.944 16.216C10.6693 17.368 11.5653 18.392 12.632 19.288C13.7413 20.184 15.2347 21.272 17.112 22.552C19.3307 24.0453 21.1013 25.3893 22.424 26.584C23.7893 27.736 24.9413 29.144 25.88 30.808C26.8187 32.4293 27.288 34.3067 27.288 36.44C27.288 40.2373 25.9867 43.1813 23.384 45.272C20.7813 47.3627 17.4107 48.408 13.272 48.408C9.51733 48.408 6.40267 47.6613 3.928 46.168C1.496 44.632 0.28 42.264 0.28 39.064C0.28 37.528 0.728 36.2907 1.624 35.352C2.52 34.3707 3.71467 33.88 5.208 33.88C6.70133 33.88 7.81067 34.2213 8.536 34.904C8.23733 35.7573 8.088 36.824 8.088 38.104C8.088 42.1573 10.008 44.184 13.848 44.184C15.7253 44.184 17.2613 43.672 18.456 42.648C19.6507 41.5813 20.248 40.152 20.248 38.36C20.248 36.952 19.8853 35.672 19.16 34.52C18.4347 33.368 17.5173 32.344 16.408 31.448C15.3413 30.552 13.8693 29.464 11.992 28.184C9.77333 26.6907 7.98133 25.368 6.616 24.216C5.29333 23.0213 4.16267 21.6133 3.224 19.992C2.28533 18.328 1.816 16.4293 1.816 14.296C1.816 10.8827 3.01067 8.23733 5.4 6.36C7.832 4.44 10.904 3.48 14.616 3.48ZM54.0195 37.976C55.0008 38.4453 55.4915 39.3627 55.4915 40.728C55.4915 42.264 54.9795 43.6293 53.9555 44.824C52.9315 45.976 51.6088 46.8507 49.9875 47.448C48.3662 48.088 46.7235 48.408 45.0595 48.408C40.3662 48.408 36.8888 46.8933 34.6275 43.864C32.3662 40.792 31.2355 36.6747 31.2355 31.512C31.2355 26.008 32.4515 21.5707 34.8835 18.2C37.3582 14.7867 41.0915 13.08 46.0835 13.08C49.2408 13.08 51.7795 13.912 53.6995 15.576C55.6195 17.1973 56.5795 19.5013 56.5795 22.488C56.5795 26.2 55.2782 28.8027 52.6755 30.296C50.1155 31.7893 46.6168 32.536 42.1795 32.536C40.9422 32.536 39.7688 32.4933 38.6595 32.408C38.7875 35.7787 39.3422 38.4667 40.3235 40.472C41.3475 42.4773 43.1395 43.48 45.6995 43.48C47.5768 43.48 49.2195 43.0107 50.6275 42.072C52.0782 41.0907 53.2088 39.7253 54.0195 37.976ZM45.0595 16.728C42.7555 16.728 41.1342 17.944 40.1955 20.376C39.2568 22.7653 38.7448 25.7093 38.6595 29.208C39.9395 29.2933 40.8782 29.336 41.4755 29.336C46.8515 29.336 49.5395 27.1813 49.5395 22.872C49.5395 21.1227 49.1555 19.672 48.3875 18.52C47.6622 17.3253 46.5528 16.728 45.0595 16.728ZM69.892 1.432V41.752C69.892 43.8427 70.5533 45.2507 71.876 45.976C71.5347 46.616 70.9587 47.1067 70.148 47.448C69.38 47.7893 68.5693 47.96 67.716 47.96C66.0947 47.96 64.8787 47.4907 64.068 46.552C63.2573 45.6133 62.852 44.2907 62.852 42.584V2.2L69.892 1.432ZM99.457 37.976C100.438 38.4453 100.929 39.3627 100.929 40.728C100.929 42.264 100.417 43.6293 99.393 44.824C98.369 45.976 97.0463 46.8507 95.425 47.448C93.8037 48.088 92.161 48.408 90.497 48.408C85.8037 48.408 82.3263 46.8933 80.065 43.864C77.8037 40.792 76.673 36.6747 76.673 31.512C76.673 26.008 77.889 21.5707 80.321 18.2C82.7957 14.7867 86.529 13.08 91.521 13.08C94.6783 13.08 97.217 13.912 99.137 15.576C101.057 17.1973 102.017 19.5013 102.017 22.488C102.017 26.2 100.716 28.8027 98.113 30.296C95.553 31.7893 92.0543 32.536 87.617 32.536C86.3797 32.536 85.2063 32.4933 84.097 32.408C84.225 35.7787 84.7797 38.4667 85.761 40.472C86.785 42.4773 88.577 43.48 91.137 43.48C93.0143 43.48 94.657 43.0107 96.065 42.072C97.5157 41.0907 98.6463 39.7253 99.457 37.976ZM90.497 16.728C88.193 16.728 86.5717 17.944 85.633 20.376C84.6943 22.7653 84.1823 25.7093 84.097 29.208C85.377 29.2933 86.3157 29.336 86.913 29.336C92.289 29.336 94.977 27.1813 94.977 22.872C94.977 21.1227 94.593 19.672 93.825 18.52C93.0997 17.3253 91.9903 16.728 90.497 16.728ZM119.81 16.856C115.543 16.856 113.41 21.5067 113.41 30.808C113.41 34.6053 113.879 37.6773 114.818 40.024C115.799 42.328 117.676 43.48 120.45 43.48C122.327 43.48 123.927 42.9893 125.25 42.008C126.615 40.984 127.532 39.5547 128.002 37.72C128.727 38.0613 129.239 38.4667 129.538 38.936C129.879 39.3627 130.05 39.96 130.05 40.728C130.05 42.264 129.538 43.6293 128.514 44.824C127.532 45.976 126.252 46.8507 124.674 47.448C123.095 48.088 121.474 48.408 119.81 48.408C115.116 48.408 111.639 46.8933 109.378 43.864C107.116 40.792 105.986 36.6747 105.986 31.512C105.986 26.008 107.202 21.5707 109.634 18.2C112.108 14.7867 115.82 13.08 120.77 13.08C123.671 13.08 126.06 13.6773 127.938 14.872C129.815 16.0667 130.754 17.9013 130.754 20.376C130.754 21.8267 130.306 22.936 129.41 23.704C128.514 24.472 127.298 24.856 125.762 24.856C125.292 24.856 124.802 24.792 124.29 24.664C123.82 24.536 123.436 24.3653 123.138 24.152C123.479 23.128 123.65 22.168 123.65 21.272C123.65 18.328 122.37 16.856 119.81 16.856ZM132.82 17.24L132.756 15.32C134.676 14.552 136.489 13.528 138.196 12.248C139.945 10.968 141.417 9.56 142.612 8.024H144.596V14.36H150.484V17.24H144.468V40.536C144.468 41.816 144.703 42.776 145.172 43.416C145.641 44.056 146.388 44.4613 147.412 44.632C147.199 45.6133 146.623 46.4027 145.684 47C144.788 47.64 143.743 47.96 142.548 47.96C139.092 47.96 137.364 45.9973 137.364 42.072V17.24H132.82ZM188.818 4.76L188.37 9.496H178.514V47H171.026V9.496H160.977V4.76H188.818ZM203.241 18.008C201.406 18.008 200.212 19.2453 199.657 21.72C199.145 24.152 198.889 27.0747 198.889 30.488V47H191.849V14.36L197.737 13.592L198.057 19.352C198.654 17.432 199.7 15.9173 201.193 14.808C202.686 13.656 204.414 13.08 206.377 13.08C208.51 13.08 210.196 13.6987 211.433 14.936C212.713 16.1733 213.353 17.8587 213.353 19.992C213.353 23.448 211.689 25.176 208.361 25.176C207.252 25.176 206.398 24.9413 205.801 24.472C206.1 23.3627 206.249 22.4027 206.249 21.592C206.249 19.2027 205.246 18.008 203.241 18.008ZM234.443 44.056C233.632 45.5493 232.438 46.6373 230.859 47.32C229.323 48.0453 227.574 48.408 225.611 48.408C222.667 48.408 220.192 47.512 218.187 45.72C216.224 43.928 215.243 41.6027 215.243 38.744C215.243 31.832 221.408 28.376 233.739 28.376V22.808C233.739 20.6747 233.419 19.096 232.779 18.072C232.139 17.0053 230.923 16.472 229.131 16.472C227.638 16.472 226.4 16.8773 225.419 17.688C224.438 18.456 223.947 19.544 223.947 20.952C223.947 21.848 224.118 22.808 224.459 23.832C223.862 24.3013 223.008 24.536 221.899 24.536C220.363 24.536 219.147 24.152 218.251 23.384C217.355 22.616 216.907 21.5067 216.907 20.056C216.907 18.008 218.059 16.344 220.363 15.064C222.667 13.7413 225.739 13.08 229.579 13.08C232.395 13.08 234.614 13.5067 236.235 14.36C237.856 15.1707 239.008 16.4507 239.691 18.2C240.416 19.9067 240.779 22.2107 240.779 25.112V41.752C240.779 43.8427 241.44 45.2507 242.763 45.976C242.422 46.616 241.91 47.1067 241.227 47.448C240.587 47.7893 239.84 47.96 238.987 47.96C237.75 47.96 236.726 47.6187 235.915 46.936C235.104 46.2107 234.614 45.2507 234.443 44.056ZM228.107 44.12C229.984 44.12 231.392 43.416 232.331 42.008C233.27 40.5573 233.739 38.7653 233.739 36.632V31.576C226.528 31.576 222.923 33.88 222.923 38.488C222.923 40.1947 223.371 41.56 224.267 42.584C225.206 43.608 226.486 44.12 228.107 44.12ZM252.683 0.919998C254.091 0.919998 255.222 1.26133 256.075 1.944C256.971 2.62666 257.419 3.608 257.419 4.888C257.419 6.21066 256.95 7.23466 256.011 7.96C255.115 8.64266 253.942 8.984 252.491 8.984C251.083 8.984 249.952 8.64266 249.099 7.96C248.246 7.27733 247.819 6.296 247.819 5.016C247.819 3.69333 248.267 2.69066 249.163 2.008C250.102 1.28267 251.275 0.919998 252.683 0.919998ZM256.011 41.752C256.011 43.8427 256.672 45.2507 257.995 45.976C257.654 46.616 257.099 47.1067 256.331 47.448C255.563 47.7893 254.731 47.96 253.835 47.96C252.214 47.96 250.998 47.4907 250.187 46.552C249.376 45.6133 248.971 44.2907 248.971 42.584V14.36H256.011V41.752ZM260.82 17.24L260.756 15.32C262.676 14.552 264.489 13.528 266.196 12.248C267.945 10.968 269.417 9.56 270.612 8.024H272.596V14.36H278.484V17.24H272.468V40.536C272.468 41.816 272.703 42.776 273.172 43.416C273.641 44.056 274.388 44.4613 275.412 44.632C275.199 45.6133 274.623 46.4027 273.684 47C272.788 47.64 271.743 47.96 270.548 47.96C267.092 47.96 265.364 45.9973 265.364 42.072V17.24H260.82ZM293.342 16.472C292.062 16.472 291.038 16.8133 290.27 17.496C289.502 18.136 289.118 19.0747 289.118 20.312C289.118 21.976 289.673 23.3413 290.782 24.408C291.934 25.432 293.683 26.584 296.03 27.864C297.907 28.888 299.401 29.8053 300.51 30.616C301.662 31.4267 302.643 32.472 303.454 33.752C304.265 34.9893 304.67 36.504 304.67 38.296C304.67 41.5387 303.497 44.0347 301.15 45.784C298.846 47.5333 295.902 48.408 292.318 48.408C289.203 48.408 286.579 47.8747 284.446 46.808C282.355 45.7413 281.31 43.9707 281.31 41.496C281.31 40.0453 281.758 38.936 282.654 38.168C283.55 37.4 284.766 37.016 286.302 37.016C287.411 37.016 288.265 37.2507 288.862 37.72C288.521 38.744 288.35 39.704 288.35 40.6C288.35 41.9653 288.777 43.0533 289.63 43.864C290.483 44.632 291.635 45.016 293.086 45.016C294.665 45.016 295.859 44.6107 296.67 43.8C297.523 42.9467 297.95 41.7093 297.95 40.088C297.95 38.424 297.374 37.08 296.222 36.056C295.113 34.9893 293.385 33.816 291.038 32.536C289.161 31.4693 287.646 30.5307 286.494 29.72C285.385 28.9093 284.425 27.8853 283.614 26.648C282.803 25.368 282.398 23.832 282.398 22.04C282.398 19.1813 283.55 16.984 285.854 15.448C288.158 13.8693 290.953 13.08 294.238 13.08C297.267 13.08 299.742 13.6347 301.662 14.744C303.625 15.8107 304.606 17.5813 304.606 20.056C304.606 21.5067 304.137 22.616 303.198 23.384C302.302 24.152 301.086 24.536 299.55 24.536C298.441 24.536 297.587 24.3013 296.99 23.832C297.331 22.808 297.502 21.848 297.502 20.952C297.502 19.544 297.139 18.456 296.414 17.688C295.731 16.8773 294.707 16.472 293.342 16.472Z" fill="#E7AAF1"/>
</svg>
